<svg width="2612" height="1525" viewBox="0 0 2612 1525" fill="none" xmlns="http://www.w3.org/2000/svg">
<path d="M177.896 129.183C114.619 148.892 66.2932 213.907 0 210.449C37.4586 201.653 60.2945 164.975 75.5352 130.26C90.7767 95.5441 104.391 57.1803 135.905 35.4471C149.498 26.0731 165.439 20.6091 181.293 15.7366C204.839 8.50055 229.137 2.25913 253.801 2.94127C302.905 4.2987 415.67 73.8009 362.755 129.494C341.046 152.343 318.768 141.928 293.71 134.679C254.783 123.42 218.24 116.617 177.896 129.183Z" fill="#7A3F3B"/>
<path d="M748.596 845.171C745.957 897.26 745.56 949.38 748.243 1001.33C750.084 1053.3 754.884 1105.08 760.647 1156.67L762.674 1156.53C760.228 1052.83 758.895 949.185 767.156 846.35C771.557 795.009 777.368 743.79 787.797 693.549C793.534 664.573 800.798 635.9 809.927 607.898C805.439 600.905 800.886 593.9 796.299 586.877C765.156 669.745 752.911 758.158 748.596 845.171Z" fill="#D3A29B"/>
<path d="M303.359 4.37988C362.623 15.5883 418.07 43.5226 464.249 81.7301C510.615 119.972 548.475 167.247 580.172 217.633C643.015 319.24 682.95 432.526 712.363 547.086C726.91 604.536 738.764 662.63 747.479 721.294C755.742 780.138 761.339 838.782 764.898 897.883C771.128 1016.04 769.743 1134.06 764.47 1251.9L762.437 1251.91C755.539 1134.11 753.701 1016.28 744.432 899.182C739.914 840.716 734.942 781.915 728.101 723.852C720.682 665.744 710.292 607.881 696.9 550.726C669.691 436.742 631.906 323.971 571.667 222.648C541.496 172.253 505.224 124.867 460.359 86.1843C415.674 47.5522 361.601 18.7536 302.949 6.33331L303.359 4.37988Z" fill="#D3A29B"/>
<path d="M433.04 669.9C487.759 682.607 540.003 709.142 581.123 747.948C622.878 786.197 654.319 834.159 678.455 884.642C701.425 935.332 723.857 986.656 737.035 1041.02C749.926 1095.22 758.628 1150.49 758.454 1206.01L756.431 1206.21C745.025 1152.04 733.591 1098.49 717.397 1046.2C702.032 993.86 684.21 941.947 663.583 891.109C641.944 841.246 613.176 793.643 574.013 755.08C535.944 715.512 486.303 687.08 432.549 671.837L433.04 669.9Z" fill="#D3A29B"/>
<path d="M520.703 384.724C444.311 336.536 374.861 274.912 330.146 197.342C306.534 156.382 289.784 111.067 259.009 74.978C228.234 38.8885 181.293 15.7368 138.473 33.7476C214.372 -17.2956 453.95 -17.0807 571.852 80.8436C683.518 173.59 718.458 326.459 736.672 468.912C742.28 512.778 754.127 584.038 721.119 619.8C698.58 595.273 701.197 547.199 684.769 516.914C650.859 454.406 578.724 421.322 520.703 384.724Z" fill="#D3A29B"/>
<path d="M672.886 410.724C612.56 254.458 501.974 116.39 361.498 21.9563L363.426 19.1851C504.472 114.003 615.507 252.631 676.078 409.533L672.886 410.724Z" fill="white"/>
<path d="M850.284 1056.77C803.893 1091.84 799.184 1167.54 746.414 1192.46C776.029 1121.75 743.838 1030.37 793.094 971.148C814.129 945.856 846.414 932.163 878.608 923.94C916.118 914.359 955.255 910.964 993.901 913.884C1017.85 915.694 1042.32 920.179 1062.52 932.938C1114.67 965.883 1099.76 1036.42 1039.74 1042.62C976.3 1049.16 908.473 1012.77 850.284 1056.77Z" fill="#7A3F3B"/>
<path d="M1163.46 922.034C1238 954.073 1295.98 1017.36 1302.97 1096.93C1305.47 1125.32 1301.55 1153.96 1303.97 1182.35C1306.39 1210.74 1316.66 1240.59 1340.44 1256.93C1262.93 1276.46 1182.9 1234.43 1122.54 1182.86C1062.18 1131.28 1010.59 1067.98 940.077 1030.84C895.343 1007.27 843.279 994.357 807.365 959.138C830.452 914.532 1052.08 874.163 1163.46 922.034Z" fill="#D3A29B"/>
<path d="M1266.97 1204.72C1235.6 1169.81 1221.01 1132.51 1206.91 1096.44C1180.94 1030.04 1156.42 967.315 1032.26 925.425L1033.37 922.25C1090.59 941.555 1130.54 966.171 1159.09 999.717C1184.35 1029.38 1196.85 1061.37 1210.1 1095.23C1224.09 1131.03 1238.57 1168.04 1269.53 1202.49L1266.97 1204.72Z" fill="white"/>
<path d="M823.085 981.593C807.845 978.432 790.266 980.711 779.678 991.923C786.446 980.536 793.637 969.278 802.771 959.612C811.905 949.946 823.151 941.877 836.027 938.123C842.666 936.186 849.606 935.425 856.526 935.105C863.48 934.781 870.817 934.985 876.839 938.414C881.662 941.16 885.149 945.725 887.771 950.554C894.602 963.138 896.086 979.023 889.265 991.609C883.465 1002.31 871.419 1001.04 861.579 996.657C848.937 991.033 836.806 984.439 823.085 981.593Z" fill="#D3A29B"/>
<path d="M572.078 845.482C519.514 816.824 462.2 794.537 417.822 754.717C359.903 702.748 330.847 612.911 370.035 546.183C386.577 518.014 412.929 496.927 434.715 472.433C456.501 447.939 474.626 416.381 468.96 384.347C502.25 423.636 503.931 479.033 516.056 528.728C527.754 576.668 550.583 621.957 582.313 660.17C597.268 678.18 614.134 694.604 628.904 712.76C661.684 753.05 683.042 800.901 696.402 850.503C706.425 887.721 724.764 949.292 713.418 985.99C691.05 970.876 681.001 937.481 664.084 916.71C639.553 886.59 606.129 864.046 572.078 845.482Z" fill="#7A3F3B"/>
<path d="M847.592 669.458C884.348 644.194 931.11 639.079 973.923 625.881C1037.27 606.353 1094.25 567.444 1134.94 515.946C1175.42 464.703 1200.02 401.673 1246.77 355.852C1269.81 333.266 1297.51 315.669 1326.56 301.218C1354.89 287.124 1384.68 275.872 1415.33 267.692C1448.07 258.954 1490.75 257.48 1507.77 286.286C1511.78 261.695 1496.35 237.091 1475.4 223.043C1454.45 208.996 1428.85 203.558 1403.81 199.522C1239.68 173.071 1057.71 199.918 935.308 310.451C867.622 371.576 822.585 454.23 797.218 541.002C775.51 615.256 755.367 711.908 767.199 788.733C800.009 751.658 802.128 700.707 847.592 669.458Z" fill="#D3A29B"/>
<path d="M822.2 627.032L819.123 625.574C824.77 614.06 830.32 600.872 836.746 585.6C859.068 532.558 889.639 459.916 954.905 391.537C990.513 354.232 1033.38 321.646 1082.32 294.686C1139.26 263.32 1206.47 238.396 1282.09 220.608L1282.88 223.872C960.779 299.649 885.112 479.454 839.901 586.884C833.455 602.202 827.888 615.432 822.2 627.032Z" fill="white"/>
<path d="M914.144 1204.39C904.26 1300.57 862.504 1389.06 803.874 1466.83H723.43C656.709 1388.13 610.026 1257.42 621.341 1197.37C630.016 1185.7 643.848 1178.8 658.566 1178.8H884.148C897.101 1178.8 915.508 1191.68 914.144 1204.39Z" fill="#474C6B"/>
<path opacity="0.1" d="M2477.23 1477.23C2477.23 1467.74 2113.98 1460.04 1665.89 1460.04C1217.8 1460.04 615.312 1467.74 615.312 1477.23C615.312 1486.66 1212.9 1494.32 1656.79 1494.42C1593.15 1497.57 1553.2 1502.1 1553.2 1507.14C1553.2 1516.64 1694.85 1524.34 1869.59 1524.34C2044.32 1524.34 2185.98 1516.64 2185.98 1507.14C2185.98 1500.97 2126.12 1495.56 2036.26 1492.53C2298.1 1489.68 2477.23 1483.9 2477.23 1477.23Z" fill="black"/>
<path d="M1462.52 763.601C1462.52 966.131 1462.52 1168.66 1462.52 1371.19C1462.52 1399.66 1462.52 1428.12 1462.52 1456.59C1462.52 1473.86 1489.86 1473.89 1489.86 1456.59C1489.86 1254.06 1489.86 1051.54 1489.86 849.006C1489.86 820.537 1489.86 792.069 1489.86 763.601C1489.86 746.335 1462.52 746.306 1462.52 763.601Z" fill="#AE8069"/>
<path d="M2142.52 1072.88C2218.39 1206.09 2294.27 1339.29 2370.14 1472.5C2378.73 1487.57 2402.35 1474.06 2393.75 1458.95C2317.88 1325.75 2242 1192.54 2166.13 1059.33C2157.54 1044.26 2133.92 1057.77 2142.52 1072.88Z" fill="#AE8069"/>
<path d="M2068.52 1054.52C1914.7 1168.91 1760.87 1283.3 1607.04 1397.68C1584.74 1414.27 1562.44 1430.85 1540.14 1447.43C1526.3 1457.73 1539.9 1481.04 1553.94 1470.6C1707.77 1356.21 1861.6 1241.83 2015.42 1127.44C2037.72 1110.86 2060.02 1094.27 2082.32 1077.69C2096.17 1067.4 2082.56 1044.08 2068.52 1054.52Z" fill="#AE8069"/>
<path d="M2181.7 1072.82H2040.04C2027.6 1072.82 2017.51 1062.9 2017.51 1050.67H2204.23C2204.23 1062.9 2194.14 1072.82 2181.7 1072.82Z" fill="#AE8069"/>
<path d="M2378.14 512.811C2332.13 504.594 2400.84 530.532 2357.7 512.811C2341.47 577.191 2361.17 641.806 2331.24 701.27C2321.19 721.243 2309.19 741.834 2292.9 756.793L2495.87 753.347C2519.39 701.052 2467.05 528.686 2378.14 512.811Z" fill="#F4E7E1"/>
<path d="M2306.57 756.792C2298.15 764.525 2288.61 770.779 2277.54 774.607C2265.76 778.682 2253.02 779.709 2241.43 784.264C2214.75 794.739 2199.09 821.371 2185.44 846.178C2185.39 846.276 2185.33 846.373 2185.28 846.471C2160.17 979.697 2050.07 1026.78 1958.55 1052.63C1967.85 1054.41 2071.16 1058.08 2082.48 1058.66C2379.31 1074.11 2494.74 825.126 2503.5 790.711C2506.62 778.472 2508.17 765.895 2509.54 753.347L2306.57 756.792Z" fill="#E7D9D3"/>
<path d="M2577.06 731.74L2518.23 714.104C2516.11 713.492 2513.92 712.901 2511.72 713.133C2508.69 713.451 2506.09 715.266 2503.54 716.897C2484.6 728.997 2461.52 733.425 2438.94 734.203C2416.36 734.981 2270.75 732.713 2223.79 748.699C2219.06 750.306 2214.28 752.049 2210.37 755.109C2208.92 756.245 2197.46 763.454 2185.1 771.471C2168.42 782.279 2160.5 802.834 2167.2 821.309C2183.02 864.923 2167.27 921.297 2131.74 966.704C2134.22 965.794 2134.29 965.855 2136.72 964.903C2180.33 961.996 2207.25 875.677 2250.41 842.224C2320.31 788.05 2576.19 826.988 2610.73 778.66C2610.81 778.542 2610.78 778.297 2610.81 778.004C2612.89 756.557 2598.37 736.923 2577.06 731.74Z" fill="#F4E7E1"/>
<path d="M1672.73 717.341H1330.18L1155.9 463.874C1168.42 455.585 1185.41 458.823 1193.86 471.106L1344.71 690.506H1645.39C1660.49 690.507 1672.73 702.52 1672.73 717.341Z" fill="#474C6B"/>
<path d="M1834.96 753.347H1108.89V741.144C1108.89 725.87 1121.49 713.488 1137.02 713.488H1806.83C1822.36 713.488 1834.96 725.87 1834.96 741.144V753.347Z" fill="#F4E7E1"/>
<path d="M1834.96 753.347H1108.89V773.384H1834.96V753.347Z" fill="#AE8069"/>
<path d="M1184.63 713.488H1184.57C1163.1 713.488 1145.69 696.377 1145.69 675.269V637.111H1223.51V675.269C1223.51 696.377 1206.11 713.488 1184.63 713.488Z" fill="#ACC8D7"/>
<path d="M1222.22 681.791C1209.51 681.791 1199.17 671.642 1199.17 659.17C1199.17 646.697 1209.51 636.548 1222.22 636.548C1234.93 636.548 1245.27 646.697 1245.27 659.17C1245.27 671.642 1234.93 681.791 1222.22 681.791ZM1222.22 647.474C1215.65 647.474 1210.3 652.719 1210.3 659.17C1210.3 665.619 1215.65 670.866 1222.22 670.866C1228.79 670.866 1234.14 665.619 1234.14 659.17C1234.14 652.72 1228.79 647.474 1222.22 647.474Z" fill="#ACC8D7"/>
</svg>
