<svg width="1600" height="500" viewBox="0 0 1600 500" fill="none" xmlns="http://www.w3.org/2000/svg">
<rect width="1600" height="500" fill="#FEEEEE"/>
<path d="M514.966 250.5C514.966 360.252 428.069 449.225 320.877 449.225C213.68 449.225 126.783 360.252 126.783 250.5C126.783 213.343 136.744 178.562 154.085 148.816C154.911 147.396 155.75 145.99 156.614 144.599C160.748 137.883 165.268 131.443 170.142 125.302C178.357 114.939 187.577 105.441 197.647 96.9622C227.6 71.7282 265.07 55.5048 306.098 52.3455C310.977 51.9685 315.903 51.7751 320.877 51.7751C325.213 51.7751 329.512 51.9199 333.777 52.21C340.148 52.635 346.437 53.3791 352.623 54.4226C353.411 54.5529 354.194 54.6884 354.978 54.8331C445.91 71.3373 514.966 152.662 514.966 250.5Z" fill="#F3F5F4"/>
<mask id="mask0_555_3675" style="mask-type:alpha" maskUnits="userSpaceOnUse" x="126" y="51" width="389" height="399">
<path d="M514.966 250.5C514.966 360.252 428.069 449.225 320.877 449.225C213.68 449.225 126.783 360.252 126.783 250.5C126.783 213.343 136.744 178.562 154.085 148.816C154.911 147.396 155.75 145.99 156.614 144.599C160.748 137.883 165.268 131.443 170.142 125.302C178.357 114.939 187.577 105.441 197.647 96.9622C227.6 71.7282 265.07 55.5048 306.098 52.3455C310.977 51.9685 315.903 51.7751 320.877 51.7751C325.213 51.7751 329.512 51.9199 333.777 52.21C340.148 52.635 346.437 53.3791 352.623 54.4226C353.411 54.5529 354.194 54.6884 354.978 54.8331C445.91 71.3373 514.966 152.662 514.966 250.5Z" fill="white"/>
</mask>
<g mask="url(#mask0_555_3675)">
<path d="M196.896 107.183V119.593C196.896 121.256 199.422 121.259 199.422 119.593V107.183C199.422 105.519 196.896 105.517 196.896 107.183Z" fill="white"/>
<path d="M217.603 76.158V90.6362C217.603 92.2996 220.128 92.3027 220.128 90.6362V76.158C220.128 74.4945 217.603 74.4919 217.603 76.158Z" fill="white"/>
<path d="M236.288 112.354V129.417C236.288 131.081 238.813 131.084 238.813 129.417V112.354C238.813 110.69 236.288 110.688 236.288 112.354Z" fill="white"/>
<path d="M212.047 144.412V155.788C212.047 157.452 214.572 157.455 214.572 155.788V144.412C214.572 142.749 212.047 142.746 212.047 144.412Z" fill="white"/>
<path d="M164.576 121.661V135.105C164.576 136.768 167.101 136.772 167.101 135.105V121.661C167.101 119.997 164.576 119.995 164.576 121.661Z" fill="white"/>
<path d="M166.091 171.301V185.262C166.091 186.925 168.616 186.928 168.616 185.262V171.301C168.616 169.637 166.091 169.635 166.091 171.301Z" fill="white"/>
<path d="M187.554 145.188C186.87 145.22 186.291 145.756 186.291 146.481V153.72C186.291 154.396 186.872 155.044 187.554 155.013C188.237 154.981 188.816 154.445 188.816 153.72V146.481C188.816 145.805 188.235 145.157 187.554 145.188Z" fill="white"/>
<path d="M198.412 188.364V206.979C198.412 208.642 200.937 208.645 200.937 206.979V188.364C200.937 186.701 198.412 186.698 198.412 188.364Z" fill="white"/>
<path d="M234.773 176.471V190.432C234.773 192.096 237.299 192.099 237.299 190.432V176.471C237.299 174.808 234.773 174.805 234.773 176.471Z" fill="white"/>
<path d="M255.983 136.656V152.169C255.983 153.832 258.508 153.835 258.508 152.169V136.656C258.508 134.993 255.983 134.99 255.983 136.656Z" fill="white"/>
<path d="M259.266 78.4849C258.582 78.4849 258.004 79.0764 258.004 79.7776V89.085C258.004 89.7836 258.584 90.3777 259.266 90.3777C259.951 90.3777 260.529 89.7861 260.529 89.085V79.7776C260.529 79.079 259.949 78.4849 259.266 78.4849Z" fill="white"/>
<path d="M285.274 51.3382V63.748C285.274 65.4115 287.799 65.4146 287.799 63.748V51.3382C287.799 49.6747 285.274 49.6721 285.274 51.3382Z" fill="white"/>
<path d="M295.375 85.4653V98.9094C295.375 100.573 297.9 100.576 297.9 98.9094V85.4653C297.9 83.8019 295.375 83.7993 295.375 85.4653Z" fill="white"/>
<path d="M334.767 47.7186V58.0602C334.767 59.7237 337.292 59.7268 337.292 58.0602V47.7186C337.292 46.0552 334.767 46.0526 334.767 47.7186Z" fill="white"/>
<path d="M333.756 93.2217V109.251C333.756 110.915 336.281 110.918 336.281 109.251V93.2217C336.281 91.5583 333.756 91.5557 333.756 93.2217Z" fill="white"/>
<path d="M366.582 74.0896V87.5337C366.582 89.1971 369.107 89.2002 369.107 87.5337V74.0896C369.107 72.4262 366.582 72.4236 366.582 74.0896Z" fill="white"/>
<path d="M369.107 127.866V140.276C369.107 141.939 371.633 141.942 371.633 140.276V127.866C371.633 126.202 369.107 126.2 369.107 127.866Z" fill="white"/>
<path d="M351.937 165.613V179.057C351.937 180.72 354.462 180.723 354.462 179.057V165.613C354.462 163.949 351.937 163.947 351.937 165.613Z" fill="white"/>
<path d="M218.107 219.906V229.731C218.107 231.394 220.633 231.397 220.633 229.731V219.906C220.633 218.243 218.107 218.24 218.107 219.906Z" fill="white"/>
<path d="M171.898 220.682C171.213 220.682 170.636 221.273 170.636 221.974V231.282C170.636 231.98 171.216 232.574 171.898 232.574C172.583 232.574 173.161 231.983 173.161 231.282V221.974C173.161 221.276 172.581 220.682 171.898 220.682Z" fill="white"/>
<path d="M138.567 195.345C137.882 195.345 137.305 195.936 137.305 196.637V205.428C137.305 206.126 137.885 206.72 138.567 206.72C139.252 206.72 139.83 206.129 139.83 205.428V196.637C139.83 195.939 139.25 195.345 138.567 195.345Z" fill="white"/>
<path d="M134.527 245.501C133.843 245.533 133.265 246.069 133.265 246.794V254.55C133.265 255.227 133.845 255.874 134.527 255.843C135.211 255.811 135.79 255.275 135.79 254.55V246.794C135.79 246.118 135.209 245.47 134.527 245.501Z" fill="white"/>
<path d="M157.506 272.648V284.024C157.506 285.687 160.031 285.69 160.031 284.024V272.648C160.031 270.985 157.506 270.982 157.506 272.648Z" fill="white"/>
<path d="M198.664 255.326C197.979 255.326 197.401 255.917 197.401 256.619V265.926C197.401 266.625 197.982 267.219 198.664 267.219C199.349 267.219 199.926 266.627 199.926 265.926V256.619C199.926 255.92 199.346 255.326 198.664 255.326Z" fill="white"/>
<path d="M225.178 279.37V292.297C225.178 293.961 227.703 293.964 227.703 292.297V279.37C227.703 277.707 225.178 277.704 225.178 279.37Z" fill="white"/>
<path d="M186.797 284.541V294.365C186.797 296.029 189.322 296.032 189.322 294.365V284.541C189.322 282.877 186.797 282.875 186.797 284.541Z" fill="white"/>
<path d="M232.753 256.101V265.926C232.753 267.589 235.278 267.592 235.278 265.926V256.101C235.278 254.438 232.753 254.435 232.753 256.101Z" fill="white"/>
<path d="M414.054 160.959V174.403C414.054 176.067 416.579 176.07 416.579 174.403V160.959C416.579 159.296 414.054 159.293 414.054 160.959Z" fill="white"/>
<path d="M404.964 113.388V126.315C404.964 127.978 407.489 127.981 407.489 126.315V113.388C407.489 111.724 404.964 111.722 404.964 113.388Z" fill="white"/>
<path d="M392.844 62.7139V78.2263C392.844 79.8897 395.369 79.8928 395.369 78.2263V62.7139C395.369 61.0504 392.844 61.0479 392.844 62.7139Z" fill="white"/>
<path d="M445.87 132.52V145.964C445.87 147.627 448.395 147.63 448.395 145.964V132.52C448.395 130.856 445.87 130.854 445.87 132.52Z" fill="white"/>
<path d="M428.194 81.3288V94.2557C428.194 95.9192 430.719 95.9223 430.719 94.2557V81.3288C430.719 79.6653 428.194 79.6627 428.194 81.3288Z" fill="white"/>
<path d="M449.91 173.369V185.779C449.91 187.442 452.435 187.445 452.435 185.779V173.369C452.435 171.705 449.91 171.703 449.91 173.369Z" fill="white"/>
<path d="M385.773 165.095V175.437C385.773 177.1 388.299 177.104 388.299 175.437V165.095C388.299 163.432 385.773 163.429 385.773 165.095Z" fill="white"/>
<path d="M484.892 165.216C484.673 164.992 484.313 164.823 483.999 164.838C483.673 164.853 483.334 164.962 483.106 165.216C482.879 165.469 482.736 165.78 482.736 166.13V168.716C482.736 169.047 482.877 169.395 483.106 169.63C483.325 169.854 483.684 170.023 483.999 170.008C484.325 169.993 484.664 169.884 484.892 169.63C485.118 169.377 485.261 169.066 485.261 168.716V166.13C485.261 165.798 485.121 165.45 484.892 165.216Z" fill="white"/>
<path d="M467.586 116.49V129.417C467.586 131.081 470.111 131.084 470.111 129.417V116.49C470.111 114.827 467.586 114.824 467.586 116.49Z" fill="white"/>
<path d="M498.896 208.013V224.043C498.896 225.706 501.422 225.709 501.422 224.043V208.013C501.422 206.35 498.896 206.347 498.896 208.013Z" fill="white"/>
<path d="M483.746 255.067V270.063C483.746 271.726 486.271 271.729 486.271 270.063V255.067C486.271 253.404 483.746 253.401 483.746 255.067Z" fill="white"/>
<path d="M506.724 279.628C506.04 279.628 505.462 280.22 505.462 280.921V289.711C505.462 290.41 506.042 291.004 506.724 291.004C507.409 291.004 507.987 290.413 507.987 289.711V280.921C507.987 280.223 507.407 279.628 506.724 279.628Z" fill="white"/>
</g>
<path d="M294.666 157.947C294.04 158.801 286.734 186.158 286.734 186.158L316.166 184.875L294.666 157.947Z" fill="#02173B"/>
<path d="M475.08 227.89L456.069 295.877L324.978 292.207L327.986 279.885C329.706 275.581 344.616 213.579 351.549 184.596C352.584 180.261 355.292 176.775 358.808 174.703C371.935 177.317 392.037 180.974 411.228 183.069C422.549 184.306 435.142 185.379 446.717 186.25C466.93 187.773 480.659 207.942 475.08 227.89Z" fill="#246D5C"/>
<path d="M485.967 226.13L466.385 296.168L456.07 295.877L475.08 227.89C480.659 207.942 466.931 187.773 446.717 186.25C435.142 185.379 422.549 184.305 411.227 183.069C392.036 180.974 371.934 177.317 358.808 174.703C361.911 172.868 365.65 172.133 369.428 172.89C382.55 175.509 402.794 179.201 422.114 181.309C433.435 182.545 446.029 183.619 457.608 184.49C477.818 186.013 491.546 206.182 485.967 226.13Z" fill="#96BFB4"/>
<path d="M405.782 214.607C407.839 214.607 409.507 212.9 409.507 210.793C409.507 208.687 407.839 206.979 405.782 206.979C403.724 206.979 402.057 208.687 402.057 210.793C402.057 212.9 403.724 214.607 405.782 214.607Z" fill="#28170E"/>
<path d="M439.306 219.302C441.363 219.302 443.031 217.594 443.031 215.488C443.031 213.381 441.363 211.674 439.306 211.674C437.249 211.674 435.581 213.381 435.581 215.488C435.581 217.594 437.249 219.302 439.306 219.302Z" fill="#28170E"/>
<path d="M419.248 244.532C421.306 244.532 422.973 242.825 422.973 240.718C422.973 238.612 421.306 236.904 419.248 236.904C417.191 236.904 415.523 238.612 415.523 240.718C415.523 242.825 417.191 244.532 419.248 244.532Z" fill="#28170E"/>
<path d="M430.71 274.458C432.768 274.458 434.435 272.75 434.435 270.644C434.435 268.537 432.768 266.83 430.71 266.83C428.653 266.83 426.985 268.537 426.985 270.644C426.985 272.75 428.653 274.458 430.71 274.458Z" fill="#28170E"/>
<path d="M410.645 185.394C408.353 190.019 406.958 195.088 406.552 200.257C406.437 201.712 406.404 203.173 406.447 204.632C406.456 204.914 406.885 204.916 406.877 204.632C406.724 199.524 407.552 194.404 409.299 189.616C409.797 188.251 410.372 186.917 411.016 185.617C411.141 185.364 410.77 185.142 410.645 185.394Z" fill="#28170E"/>
<path d="M446.39 189.317C444.306 193.762 442.581 198.381 441.247 203.119C440.867 204.472 440.519 205.834 440.201 207.204C440.137 207.48 440.552 207.597 440.615 207.321C441.722 202.545 443.213 197.862 445.083 193.341C445.612 192.06 446.172 190.793 446.76 189.539C446.88 189.285 446.51 189.062 446.39 189.317Z" fill="#28170E"/>
<path d="M460.567 218.214C456.133 217.375 451.661 216.746 447.17 216.335C445.889 216.217 444.608 216.118 443.325 216.036C443.049 216.018 443.05 216.458 443.325 216.476C447.804 216.763 452.271 217.263 456.704 217.98C457.956 218.183 459.206 218.402 460.453 218.638C460.723 218.69 460.839 218.266 460.567 218.214Z" fill="#28170E"/>
<path d="M436.913 218.545C434.302 220.768 431.698 223.01 429.279 225.453C426.903 227.852 424.696 230.457 422.949 233.376C421.967 235.015 421.143 236.749 420.512 238.56C420.42 238.827 420.835 238.942 420.927 238.676C422.041 235.48 423.788 232.558 425.867 229.927C427.969 227.265 430.387 224.882 432.89 222.622C434.31 221.34 435.762 220.096 437.217 218.857C437.431 218.676 437.125 218.366 436.913 218.545Z" fill="#28170E"/>
<path d="M415.807 233.794C412.749 228.973 410.294 223.757 408.528 218.299C408.031 216.767 407.59 215.216 407.202 213.651C407.134 213.376 406.72 213.493 406.788 213.768C408.174 219.359 410.259 224.768 412.979 229.82C413.748 231.249 414.569 232.648 415.436 234.015C415.586 234.253 415.959 234.033 415.807 233.794Z" fill="#28170E"/>
<path d="M416.819 244.097C413.657 247.886 410.812 251.951 408.333 256.241C407.638 257.445 406.971 258.667 406.333 259.905C406.203 260.155 406.574 260.378 406.704 260.127C408.96 255.754 411.579 251.576 414.535 247.664C415.371 246.557 416.235 245.472 417.123 244.408C417.302 244.194 417 243.881 416.819 244.097Z" fill="#28170E"/>
<path d="M426.45 265.332C423.854 260.334 422.067 254.906 421.172 249.319C420.918 247.733 420.74 246.135 420.632 244.531C420.612 244.25 420.183 244.248 420.202 244.531C420.588 250.25 421.89 255.897 424.055 261.184C424.664 262.672 425.339 264.13 426.079 265.554C426.208 265.805 426.58 265.583 426.45 265.332Z" fill="#28170E"/>
<path d="M428.279 275.009C427.079 278.653 426.077 282.363 425.28 286.12C425.221 286.396 425.636 286.514 425.694 286.237C426.492 282.48 427.493 278.77 428.693 275.126C428.782 274.857 428.367 274.742 428.279 275.009Z" fill="#28170E"/>
<path d="M446.747 272.394C442.724 272.87 438.638 272.602 434.71 271.596C434.441 271.528 434.327 271.952 434.596 272.021C438.559 273.036 442.688 273.315 446.748 272.835C447.018 272.802 447.022 272.362 446.747 272.394Z" fill="#28170E"/>
<path d="M402.089 210.069C399.035 209.019 395.823 208.482 392.601 208.478C392.325 208.478 392.324 208.918 392.601 208.918C395.788 208.922 398.954 209.455 401.975 210.493C402.238 210.584 402.35 210.159 402.089 210.069Z" fill="#28170E"/>
<path d="M378.926 178.026C377.231 180.167 376.228 182.811 376.074 185.564C376.058 185.847 376.488 185.846 376.503 185.564C376.65 182.937 377.611 180.383 379.23 178.338C379.403 178.119 379.1 177.806 378.926 178.026Z" fill="#28170E"/>
<path d="M360.508 184.389C360.508 184.389 378.846 181.225 391.454 211.852C404.062 242.479 409.22 233.384 407.787 246C406.354 258.616 406.927 261.549 410.939 268.004C414.95 274.458 415.968 276.537 416.254 277.417C416.54 278.297 423.547 282.379 425.266 291.181C426.985 299.983 406.641 294.115 406.641 294.115L374.261 236.025L360.508 184.389Z" fill="#28170E"/>
<path d="M342.814 178.521L364.121 182.365C371.41 183.68 377.72 188.33 381.228 195.003C385.152 202.466 390.031 212.591 392.529 221.062C397.113 236.611 404.133 235.731 402.988 245.119C401.841 254.507 400.907 256.413 405.71 263.309C410.512 270.205 413.303 283.406 413.303 283.406L398.117 304.53L295.106 286.193L279.489 255.387L298.258 187.762L342.814 178.521Z" fill="#D81D50"/>
<path d="M329.76 183.323C329.276 183.559 328.764 183.765 328.233 183.953C328.191 183.972 328.149 183.986 328.102 183.996C327.571 184.184 327.013 184.337 326.43 184.467C325.763 184.621 325.068 184.741 324.331 184.827C308.424 186.703 293.526 178.672 286.434 159.048C283.438 150.762 282.856 142.314 284.312 134.889C286.303 124.733 292.117 116.495 300.801 113.202C301.788 112.827 302.797 112.538 303.812 112.336C308.048 111.48 312.454 112.091 316.629 113.909C324.824 117.491 332.146 125.752 335.678 136.846C336.458 139.284 337.049 141.862 337.43 144.555C337.754 146.882 338.05 149.171 338.28 151.402C338.59 154.369 338.801 157.24 338.866 159.971C338.866 160.005 338.866 160.063 338.871 160.149C338.876 160.318 338.876 160.481 338.88 160.645C339.059 171.426 336.927 179.889 329.76 183.323Z" fill="#F9AD8A"/>
<path d="M323.903 192.31L308.378 191.541L297.255 190.99L296.743 181.762C297.822 184.042 300.564 187.813 307.097 188.737C304.549 181.974 305.945 176.076 305.945 176.076L297.349 174.708C297.349 174.708 296.967 175.081 296.425 175.966L295.965 167.667L322.613 180.869L323.309 187.052L323.903 192.31Z" fill="#F9AD8A"/>
<path d="M311.887 135.292C318.044 129.094 321.071 117.766 323.889 119.797C330.855 124.816 335.649 136.861 335.649 136.861L335.68 136.847C330.346 120.089 316.36 109.804 303.809 112.335C296.769 118.874 288.495 126.549 288.086 126.884C287.889 127.047 286.388 130.281 284.313 134.889C282.856 142.313 283.436 150.762 286.432 159.049C288.951 166.014 292.241 171.284 296.422 175.404C296.354 175.506 296.422 175.66 296.425 175.966L296.743 181.762C297.822 184.041 300.564 187.812 307.097 188.737C306.173 186.284 305.769 183.947 305.628 181.962C311.373 184.684 317.766 185.603 324.332 184.829C325.76 184.662 327.057 184.367 328.235 183.953C327.771 183.948 327.285 183.944 326.77 183.948C316.89 183.998 310.196 181.189 305.77 177.077C305.582 176.935 305.242 176.614 305.242 176.614L304.556 175.854C297.344 168.009 297.243 162.145 298.847 155.94C301.426 145.968 306.378 140.837 311.887 135.292Z" fill="#F0655E"/>
<path d="M304.227 249.618C304.227 250.596 301.362 267.416 309.194 271.328C317.026 275.241 321.802 274.458 329.634 276.609C337.466 278.761 335.937 269.568 347.208 276.022C358.479 282.477 362.682 279.347 365.356 269.568C368.031 259.788 359.625 254.312 364.401 242.968C369.177 231.623 364.21 204.632 365.739 198.178C365.739 198.178 368.795 219.497 372.234 232.015C375.672 244.532 369.177 265.265 377.964 266.438C386.752 267.612 390.955 265.656 398.213 265.265C405.472 264.873 410.248 267.612 408.91 271.719C407.573 275.826 399.359 270.936 394.201 277C389.044 283.063 399.932 299.493 392.482 299.493C385.032 299.493 369.941 294.994 369.941 294.994L293.34 287.171L304.227 249.618Z" fill="#B51C4B"/>
<path d="M319.317 256.464C313.399 254.114 311.103 236.709 307.858 231.428C304.609 226.148 292.192 200.526 292.957 189.375C293.472 181.854 295.29 177.805 296.425 175.966L296.743 181.762C297.822 184.042 300.564 187.813 307.098 188.737C307.446 189.657 307.867 190.599 308.378 191.54C309.818 194.216 311.963 196.918 315.118 199.352C316.244 200.223 317.245 201.42 318.139 202.886C327.084 217.549 324.703 258.599 319.317 256.464Z" fill="#B51C4B"/>
<path opacity="0.39" d="M307.244 167.457C310.139 167.457 312.486 165.054 312.486 162.089C312.486 159.125 310.139 156.721 307.244 156.721C304.348 156.721 302.001 159.125 302.001 162.089C302.001 165.054 304.348 167.457 307.244 167.457Z" fill="#F0655E"/>
<path opacity="0.39" d="M339.324 159.794C337.523 159.296 336.18 157.378 336.18 155.076C336.18 153.007 337.272 151.238 338.808 150.547C339.096 153.764 339.284 156.863 339.324 159.794Z" fill="#F0655E"/>
<path d="M314.768 151.399C316.173 151.399 317.312 150.233 317.312 148.794C317.312 147.356 316.173 146.19 314.768 146.19C313.364 146.19 312.225 147.356 312.225 148.794C312.225 150.233 313.364 151.399 314.768 151.399Z" fill="#28170E"/>
<path d="M332.661 147.716C333.91 147.716 334.923 146.678 334.923 145.399C334.923 144.12 333.91 143.083 332.661 143.083C331.411 143.083 330.398 144.12 330.398 145.399C330.398 146.678 331.411 147.716 332.661 147.716Z" fill="#28170E"/>
<path d="M328.586 190.86C326.252 193.918 321.166 196.373 317.732 201.76C317.074 202.794 315.058 202.6 314.611 203.638C310.222 204.281 305.666 203.77 301.841 200.817C290.236 191.871 296.107 179.989 296.107 179.989C296.107 179.989 296.253 180.719 296.744 181.762C297.822 184.042 300.565 187.813 307.098 188.737C307.872 188.843 308.697 188.913 309.578 188.936C318.677 189.165 322.193 187.716 323.311 187.052C323.637 186.863 323.762 186.735 323.762 186.735L328.586 190.86Z" fill="#D4DDDC"/>
<path d="M399.36 268.786C379.49 270.155 373.378 303.016 375.291 289.32C377.169 275.845 393.115 266.916 393.613 266.639C393.27 266.726 386.724 268.416 378.729 269.178C375.754 269.459 374.283 268.124 373.616 266.308C373.765 266.316 373.918 266.198 373.854 266.016C372.664 262.584 372.491 258.93 372.712 255.324C372.938 251.652 373.532 248.017 373.861 244.355C374.026 242.523 374.126 240.682 374.076 238.842C374.027 237.048 373.814 235.265 373.474 233.504C372.789 229.952 371.636 226.52 370.598 223.066C369.571 219.646 368.634 216.157 368.424 212.57C368.397 212.117 368.383 211.664 368.38 211.211C368.377 210.902 367.908 210.901 367.91 211.211C367.938 214.797 368.732 218.308 369.715 221.731C370.716 225.22 371.911 228.653 372.718 232.198C373.12 233.965 373.423 235.756 373.546 237.567C373.67 239.398 373.624 241.238 373.495 243.067C373.233 246.778 372.627 250.451 372.326 254.157C372.036 257.722 372.041 261.367 372.993 264.836C373.038 264.998 373.094 265.156 373.143 265.316L370.704 292.648L369.557 301.057L381.647 303.24C378.797 301.018 377.302 297.057 379.683 290.104C386.178 271.132 399.36 268.786 399.36 268.786Z" fill="#9B1545"/>
<path d="M410.809 274.822C410.506 274.419 410.171 274.054 409.812 273.724C409.811 273.674 409.814 273.626 409.812 273.577C409.804 273.37 409.572 273.316 409.452 273.412C407.859 272.104 405.836 271.41 403.79 271.176C400.958 270.853 398.031 271.375 395.383 272.415C392.66 273.485 390.158 275.144 388.113 277.276C386.007 279.473 384.431 282.163 383.483 285.082C382.517 288.06 382.206 291.263 382.614 294.375C382.663 294.751 382.723 295.125 382.792 295.498C382.844 295.776 383.259 295.659 383.207 295.381C382.651 292.397 382.786 289.295 383.556 286.362C384.321 283.451 385.709 280.711 387.648 278.437C387.785 278.276 387.93 278.123 388.072 277.967C389.559 279.24 391.045 280.513 392.532 281.786C392.742 281.967 393.048 281.657 392.836 281.475C391.345 280.198 389.854 278.921 388.363 277.644C390.086 275.834 392.143 274.365 394.39 273.315C394.513 273.258 394.64 273.207 394.764 273.152C395.275 273.984 395.664 274.883 395.915 275.833C395.987 276.106 396.402 275.99 396.33 275.716C396.075 274.75 395.678 273.827 395.163 272.978C397.134 272.155 399.254 271.642 401.381 271.544C401.628 272.243 401.712 272.984 401.616 273.722C401.601 273.84 401.726 273.943 401.832 273.943C401.96 273.943 402.031 273.841 402.047 273.722C402.142 272.987 402.06 272.233 401.828 271.531C402.057 271.526 402.287 271.522 402.516 271.527C404.948 271.59 407.509 272.255 409.382 273.906C409.384 275.761 408.788 277.57 407.677 279.043C407.508 279.267 407.881 279.486 408.048 279.265C409.119 277.845 409.733 276.1 409.811 274.314C410.035 274.544 410.245 274.787 410.439 275.044C410.604 275.266 410.977 275.047 410.809 274.822Z" fill="#9B1545"/>
<path d="M392.76 288.386C390.122 286.762 387.414 285.262 384.642 283.89C384.395 283.767 384.176 284.146 384.425 284.27C387.196 285.642 389.905 287.142 392.542 288.766C392.78 288.913 392.996 288.533 392.76 288.386Z" fill="#9B1545"/>
<path d="M316.484 200.183C316.407 200.297 316.334 200.412 316.261 200.527C316.192 200.637 316.123 200.742 316.059 200.852C316.042 197.741 315.745 194.63 315.173 191.571C315.122 191.294 315.534 191.18 315.586 191.457C316.127 194.33 316.428 197.252 316.484 200.183Z" fill="#96BFB4"/>
<path d="M314.855 203.092C314.786 203.241 314.717 203.391 314.648 203.546C312.744 203.673 310.827 203.612 308.932 203.471C308.554 203.444 308.175 203.409 307.797 203.369C307.703 203.541 307.419 203.523 307.397 203.325C305.523 203.114 303.662 202.753 301.883 202.106C298.113 200.742 294.623 197.938 293.407 193.907C293.325 193.634 293.738 193.52 293.82 193.788C293.828 193.819 293.841 193.841 293.846 193.867C294.881 191.231 296.046 188.644 297.34 186.127C297.468 185.876 297.843 186.1 297.714 186.351C296.377 188.943 295.178 191.606 294.125 194.325C294.108 194.374 294.077 194.405 294.043 194.427C294.752 196.293 295.998 197.899 297.516 199.158C298.105 199.65 298.733 200.077 299.382 200.456C299.592 196.834 300.383 193.261 301.724 189.903C301.827 189.643 302.239 189.758 302.136 190.022C300.804 193.362 300.009 196.918 299.807 200.522C299.803 200.584 299.776 200.628 299.747 200.663C302.097 201.952 304.762 202.582 307.431 202.889C307.896 198.594 308.197 194.286 308.33 189.969C308.338 189.683 308.768 189.683 308.76 189.969C308.626 194.299 308.321 198.625 307.857 202.933C308.562 203.008 309.263 203.056 309.959 203.096C311.563 203.176 313.217 203.215 314.855 203.092Z" fill="#96BFB4"/>
<path d="M326.768 146.752L330.351 158.612C330.748 159.928 330.046 161.329 328.769 161.765L328.405 161.889C327.412 162.228 326.317 161.928 325.622 161.128" stroke="black" stroke-width="0.934" stroke-miterlimit="10" stroke-linecap="round"/>
<path d="M302.413 94.0268C302.413 94.0268 273.472 92.853 268.601 115.15C263.729 137.448 267.454 130.406 255.993 151.237C244.532 172.067 269.747 166.786 255.993 190.257C242.239 213.727 235.076 199.938 238.514 224.289C241.953 248.64 224.473 243.946 228.772 260.962C228.772 260.962 234.503 255.681 241.093 260.375C241.093 260.375 238.228 254.801 245.964 248.64C245.964 248.64 239.493 258.794 246.538 263.603C247.397 264.19 253.128 265.07 256.853 272.111C260.578 279.152 292.957 284.433 304.705 278.859C304.705 278.859 290.379 274.165 299.834 263.016C309.289 251.867 316.167 250.4 307.857 238.665C299.548 226.93 305.279 230.744 307.571 214.021C309.863 197.298 301.041 202.397 297.142 184.885C293.244 167.373 289.1 161.089 293.398 154.634C297.696 148.18 319.767 133.55 319.193 113.6L302.413 94.0268Z" fill="#02173B"/>
<path d="M370.894 195.245C370.894 195.245 365.165 187.614 363.256 201.895C361.344 216.171 362.298 223.802 355.421 232.212C355.421 232.212 357.716 227.71 352.747 224.189C352.747 224.189 349.12 222.821 352.365 232.212C355.614 241.599 360.961 249.031 354.084 262.529L330.019 274.257C330.182 274.015 336.642 264.28 333.423 254.577C333.415 254.203 333.264 254.114 333.264 254.114C333.32 254.268 333.372 254.422 333.423 254.577C333.449 255.307 332.929 257.138 329.632 261.547C324.732 268.113 326.344 273.152 326.383 273.28C326.172 273.104 320.366 268.329 315.117 275.436C315.117 275.436 308.429 273.284 316.454 265.266C324.474 257.248 327.341 251.377 326.387 241.207C325.433 231.037 303.083 217.931 316.837 200.918C323.98 192.081 326.125 188.152 326.43 184.468C327.011 184.337 327.569 184.182 328.102 183.997C328.15 183.984 328.193 183.971 328.236 183.953C336.626 181.023 339.075 172.155 338.882 160.647C338.878 160.423 338.873 160.198 338.865 159.969C338.8 157.241 338.59 154.371 338.28 151.401C338.048 149.169 337.756 146.881 337.429 144.553C337.051 141.86 336.458 139.286 335.68 136.847C332.147 125.753 324.823 117.493 316.63 113.911C295.892 102.284 302.412 94.0282 302.412 94.0282C302.412 94.0282 314.924 89.2359 326.193 100.383C337.467 111.53 350.645 132.46 343.579 159.256C343.579 159.256 338.228 167.274 349.502 173.73C360.772 180.182 369.368 188.204 370.894 195.245Z" fill="#02173B"/>
<path d="M333.423 254.577C333.371 254.422 333.32 254.268 333.264 254.114C333.264 254.114 333.414 254.202 333.423 254.577Z" fill="#5A4C44"/>
<path d="M391.382 294.04C388.595 293.668 385.842 293.05 383.155 292.203C382.89 292.12 382.777 292.545 383.041 292.628C385.765 293.486 388.556 294.103 391.382 294.48C391.656 294.517 391.653 294.076 391.382 294.04Z" fill="#969FEA"/>
<path d="M285.377 174.189C285.377 174.189 289.447 184.768 287.882 197.912C286.316 211.056 287.256 221.315 295.083 231.894C302.911 242.473 292.892 268.44 292.892 268.44C292.892 268.44 298.214 252.411 292.892 245.358C287.569 238.305 275.671 220.673 278.802 205.927C281.933 191.18 279.115 184.127 279.115 184.127L285.377 174.189Z" fill="#0E2644"/>
<path d="M275.045 154.634C275.045 154.634 289.447 146.619 294.457 131.552C299.467 116.485 299.467 112.317 305.729 107.508C305.729 107.508 301.972 108.149 300.719 105.264C299.467 102.379 300.406 102.379 298.215 99.1727C296.023 95.9669 285.064 112.637 281.933 125.461C278.802 138.284 281.62 140.208 275.045 154.634Z" fill="#0E2644"/>
<path d="M307.607 97.2497C307.607 97.2497 313.243 100.135 314.496 103.982C315.748 107.829 319.506 108.791 322.324 111.035C325.142 113.279 332.03 116.164 336.413 124.179C340.797 132.193 337.666 124.499 337.666 124.499C337.666 124.499 335.161 109.432 327.959 104.623C320.758 99.8139 313.87 95.0055 307.607 97.2497Z" fill="#183351"/>
<path d="M274.419 127.384C274.419 127.384 260.643 147.901 260.643 156.557C260.643 165.213 265.965 175.471 265.965 175.471C265.965 175.471 261.582 158.801 266.592 149.184C271.601 139.566 274.419 127.384 274.419 127.384Z" fill="#0E2644"/>
<path d="M291.326 184.448C291.326 185.41 301.169 193.156 301.884 202.107C302.598 211.057 297.901 219.391 300.406 224.841C300.406 224.841 296.336 219.071 297.588 210.415C298.841 201.759 291.326 184.448 291.326 184.448Z" fill="#183351"/>
<path d="M262.208 197.912C262.208 197.912 245.3 205.286 245.613 215.865C245.927 226.443 248.745 232.214 242.482 241.191C242.482 241.191 249.997 233.176 252.189 224.841C254.381 216.506 256.885 214.262 256.885 214.262C256.885 214.262 253.441 225.482 253.441 232.535C253.441 239.587 241.543 247.602 241.543 247.602C241.543 247.602 251.563 245.358 257.198 239.267C262.834 233.175 266.591 220.032 266.591 220.032L262.208 197.912Z" fill="#0E2644"/>
<path d="M338.605 197.592C336.727 197.592 326.394 211.056 335.474 227.726C344.554 244.397 347.372 247.282 341.736 257.541C341.736 257.541 350.817 248.564 346.433 236.382C342.049 224.2 345.181 204.645 347.059 203.362C348.938 202.08 338.605 197.592 338.605 197.592Z" fill="#0E2644"/>
<path d="M356.765 231.251C356.765 231.251 359.269 208.814 351.754 200.797C344.239 192.781 339.543 180.601 339.543 180.601C339.543 180.601 337.039 187.655 342.99 195.349C348.917 203.019 353.604 212.275 354.252 225.673C354.088 223.966 352.031 205.539 338.603 197.59C330.816 192.983 329.436 187.4 329.76 183.322C336.926 179.889 339.059 171.425 338.88 160.644C338.876 160.481 338.876 160.317 338.871 160.149C338.932 161.933 339.674 174.931 348.626 183.485C358.019 192.464 364.28 205.928 356.765 231.251Z" fill="#183351"/>
<path d="M307.74 115.531C307.33 121.304 305.148 126.787 302.009 131.56C300.436 133.953 298.624 136.177 296.644 138.229C294.677 140.266 292.491 142.044 290.42 143.964C288.18 146.041 286.086 148.385 285.052 151.345C284.95 151.638 285.403 151.763 285.505 151.473C286.441 148.794 288.304 146.629 290.31 144.72C292.352 142.775 294.556 141.021 296.542 139.013C300.548 134.963 303.943 130.189 306.062 124.827C307.235 121.86 307.983 118.725 308.209 115.53C308.231 115.222 307.762 115.223 307.74 115.531Z" fill="#183351"/>
<path d="M308.802 103.826C306.635 100.34 303.945 97.2094 300.84 94.5707C300.609 94.3742 300.275 94.7129 300.508 94.911C303.583 97.5243 306.25 100.617 308.396 104.069C308.558 104.33 308.964 104.089 308.802 103.826Z" fill="#183351"/>
<path d="M341.851 137.671C341.559 136.334 341.161 135.023 340.665 133.751C340.554 133.467 340.1 133.59 340.212 133.878C341.93 138.288 342.433 143.171 341.649 147.851C341.429 149.166 341.107 150.462 340.69 151.727C340.593 152.021 341.047 152.147 341.143 151.855C342.64 147.306 342.875 142.352 341.851 137.671Z" fill="#183351"/>
<path d="M289.118 100.768C287.4 101.743 285.747 102.835 284.176 104.041C282.786 105.107 281.441 106.251 280.287 107.585C279.212 108.829 278.295 110.242 277.785 111.83C277.175 113.734 277.392 115.659 277.57 117.614C277.748 119.555 277.783 121.801 276.402 123.332C276.197 123.559 276.529 123.9 276.735 123.672C279.386 120.732 277.321 116.49 277.965 113.035C278.605 109.604 281.232 106.984 283.816 104.923C285.562 103.53 287.419 102.282 289.355 101.183C289.619 101.033 289.382 100.617 289.118 100.768Z" fill="#183351"/>
<path d="M240.503 240.758C238.141 245.099 233.89 248.535 233.421 253.777C233.303 255.104 233.494 256.431 234.046 257.641C234.174 257.921 234.579 257.677 234.452 257.398C233.464 255.237 233.829 252.748 234.697 250.613C235.618 248.348 237.164 246.433 238.6 244.497C239.432 243.375 240.239 242.233 240.909 241.001C241.056 240.73 240.651 240.487 240.503 240.758Z" fill="#183351"/>
<path d="M330.34 229.423C329.231 225.948 327.633 222.633 325.636 219.603C325.39 219.23 325.139 218.863 324.881 218.499C324.706 218.25 324.298 218.49 324.476 218.741C326.562 221.694 328.266 224.934 329.485 228.36C330.693 231.753 331.436 235.333 331.541 238.947C331.645 242.525 331.11 246.12 329.83 249.459C328.551 252.798 326.541 255.773 324.772 258.848C323.076 261.796 321.521 264.948 321.211 268.406C321.172 268.836 321.155 269.268 321.155 269.7C321.156 270.01 321.625 270.01 321.625 269.7C321.622 266.14 323.065 262.862 324.759 259.828C326.5 256.71 328.538 253.748 329.939 250.441C331.321 247.177 331.994 243.638 332.023 240.086C332.053 236.469 331.436 232.856 330.34 229.423Z" fill="#183351"/>
<path d="M327.824 197.139C325.243 199.32 323.306 202.262 322.269 205.518C321.97 206.459 321.75 207.423 321.608 208.402C321.565 208.704 322.017 208.835 322.061 208.529C322.546 205.19 323.975 202.016 326.147 199.475C326.763 198.754 327.435 198.088 328.157 197.479C328.389 197.282 328.056 196.944 327.824 197.139Z" fill="#183351"/>
<path d="M351.593 250.488C351.568 255.109 350.429 259.689 348.289 263.758C348.146 264.03 348.551 264.273 348.695 264C350.387 260.782 351.47 257.25 351.881 253.619C351.998 252.579 352.057 251.534 352.063 250.488C352.065 250.178 351.595 250.178 351.593 250.488Z" fill="#183351"/>
<path d="M357.796 184.056C356.864 183.298 355.86 182.643 354.791 182.106C354.521 181.971 354.283 182.386 354.554 182.522C358.26 184.38 361.205 187.714 362.687 191.653C363.108 192.77 363.408 193.931 363.586 195.114C363.631 195.419 364.084 195.289 364.039 194.986C363.399 190.712 361.098 186.743 357.796 184.056Z" fill="#183351"/>
<path d="M375.517 196.486C373.308 199.034 371.55 201.97 370.336 205.143C369.99 206.049 369.691 206.973 369.436 207.91C369.354 208.209 369.807 208.336 369.889 208.038C371.015 203.895 373.061 200.041 375.85 196.825C376.05 196.595 375.718 196.253 375.517 196.486Z" fill="#9B1545"/>
<path d="M379.045 192.762C378.928 192.735 378.783 192.799 378.757 192.93C378.747 192.974 378.737 193.017 378.724 193.059C378.718 193.08 378.711 193.101 378.704 193.122C378.701 193.128 378.698 193.135 378.696 193.142C378.66 193.221 378.62 193.298 378.571 193.369C378.56 193.386 378.513 193.441 378.562 193.384C378.547 193.401 378.534 193.419 378.52 193.436C378.493 193.467 378.465 193.498 378.435 193.527C378.419 193.542 378.403 193.557 378.387 193.571C378.379 193.578 378.371 193.585 378.364 193.591C378.359 193.595 378.351 193.601 378.348 193.603C378.339 193.61 378.33 193.616 378.321 193.622C378.302 193.636 378.281 193.649 378.261 193.662C378.156 193.727 378.108 193.88 378.177 193.99C378.245 194.099 378.386 194.147 378.498 194.077C378.856 193.854 379.124 193.48 379.21 193.059C379.234 192.935 379.174 192.792 379.045 192.762Z" fill="#9B1545"/>
<path d="M322.988 188.907C322.884 188.832 322.727 188.889 322.667 188.993C322.598 189.114 322.647 189.247 322.751 189.322C322.797 189.356 322.847 189.398 322.903 189.452C322.959 189.506 323.011 189.565 323.061 189.625C323.063 189.628 323.086 189.657 323.072 189.639C323.085 189.656 323.098 189.674 323.11 189.692C323.132 189.725 323.153 189.758 323.174 189.791C323.214 189.859 323.249 189.929 323.283 190.001C323.299 190.035 323.328 190.114 323.348 190.178C323.371 190.253 323.39 190.33 323.404 190.408C323.408 190.43 323.411 190.452 323.414 190.473C323.411 190.448 323.415 190.48 323.416 190.488C323.419 190.527 323.423 190.566 323.425 190.606C323.428 190.69 323.426 190.773 323.418 190.857C323.407 190.986 323.534 191.097 323.653 191.097C323.789 191.097 323.877 190.987 323.888 190.857C323.954 190.096 323.59 189.346 322.988 188.907Z" fill="#96BFB4"/>
<path d="M316.922 188.008C312.284 189.491 307.14 189.154 302.704 187.134C301.466 186.571 300.287 185.878 299.187 185.069C298.941 184.888 298.707 185.305 298.951 185.484C302.966 188.439 308.048 189.795 312.964 189.312C314.35 189.176 315.718 188.897 317.047 188.473C317.334 188.38 317.211 187.915 316.922 188.008Z" fill="#96BFB4"/>
<path d="M323.46 186.238C322.869 187.147 321.82 187.687 320.757 187.65C320.455 187.64 320.455 188.121 320.757 188.131C321.989 188.173 323.185 187.529 323.865 186.48C324.033 186.222 323.626 185.981 323.46 186.238Z" fill="#96BFB4"/>
<path d="M305.28 146.598C305.28 146.598 310.364 139.048 321.262 141.895" stroke="#06193A" stroke-width="3" stroke-miterlimit="10" stroke-linecap="round"/>
<path d="M327.748 141.763C327.748 141.763 330.676 136.82 336.86 140.239" stroke="#06193A" stroke-width="3" stroke-miterlimit="10" stroke-linecap="round"/>
<path d="M318.94 166.945C318.94 166.945 322.952 167.619 325.214 166.945C327.477 166.272 327.756 168.285 328.803 167.095C329.851 165.905 330.304 165.359 332.304 165.039C332.304 165.039 328.396 169.432 327.794 169.649C327.191 169.865 323.754 168.158 322.486 168.38C321.217 168.603 318.94 166.945 318.94 166.945Z" fill="#F0655E"/>
<path d="M319.556 167.353C319.556 167.353 325.428 170.881 327.794 170.395C330.16 169.91 331.413 166.027 331.413 166.027C331.413 166.027 332.304 172.276 327.794 173.402C321.553 174.961 319.556 167.353 319.556 167.353Z" fill="#F0655E"/>
<path d="M291.809 179.874L290.236 178.26L288.517 187.061C288.517 187.061 285.22 186.621 285.938 181.635L284.219 184.275L274.475 196.743L278.79 239.509L279.491 246.471C279.491 246.471 278.652 247.65 277.015 248.781C274.78 250.322 271.049 251.774 265.922 250.014C264.044 249.367 261.972 248.289 259.72 246.62L260.579 191.756L266.958 161.131L267.026 160.806L272.184 159.925L281.494 153.47L289.23 160.656L291.526 168.727L291.809 179.874Z" fill="#F9AD8A"/>
<path d="M288.839 290.012C283.771 293.634 276.391 295.79 268.887 293.414C254.991 289.013 253.556 269.945 255.421 257.623C257.282 245.301 255.851 238.404 259.431 237.524L259.29 239.725C259.29 239.725 259.384 240.261 259.81 240.966C260.57 242.233 262.38 244.033 266.583 244.174C267.551 244.205 268.646 244.151 269.889 243.98C279.491 242.66 278.915 240.31 278.915 240.31L278.855 239.447L278.773 238.259C278.773 238.259 281.21 234.589 284.219 245.591C284.236 245.657 284.253 245.719 284.275 245.784C284.46 246.471 284.666 247.175 284.885 247.892C288.19 258.683 294.594 272.779 295.394 279.477C295.789 282.786 293.154 286.927 288.839 290.012Z" fill="#D81D50"/>
<path d="M269.889 243.98C263.274 244.891 260.742 242.524 259.81 240.966L260.579 191.756L266.957 161.131C268.926 161.708 268.771 165.088 270.318 168.873C272.038 173.079 264.017 190.291 263.635 192.932C263.253 195.572 265.926 221.876 266.88 232.732C267.839 243.589 269.27 242.022 269.27 242.022C274.397 242.964 277.686 240.513 278.79 239.509C278.812 239.487 278.833 239.469 278.855 239.448L278.915 240.31C278.915 240.31 279.491 242.66 269.889 243.98Z" fill="#F0655E"/>
<path d="M274.57 176.843L277.914 173.371L282.355 174.3L284.122 177.283C284.122 177.283 281.02 180.95 284.219 184.275C284.219 184.275 283.31 183.542 280.826 184.667C278.343 185.791 276.719 186.231 276.528 183.982C276.337 181.733 275.955 178.261 274.57 176.843Z" fill="#F0655E"/>
<path d="M291.445 176.027C291.444 176.027 291.444 176.027 291.444 176.027C291.426 176.029 291.402 176.038 291.445 176.027Z" fill="#F0655E"/>
<path d="M290.967 176.403C290.972 176.394 290.97 176.396 290.967 176.403C290.967 176.402 290.967 176.402 290.966 176.401C290.967 176.399 290.968 176.397 290.969 176.395C290.99 176.351 291.016 176.31 291.044 176.269C291.05 176.261 291.056 176.254 291.062 176.247C291.079 176.228 291.096 176.21 291.114 176.192C291.13 176.177 291.148 176.163 291.164 176.148C291.173 176.142 291.183 176.135 291.192 176.129C291.212 176.115 291.234 176.102 291.255 176.09C291.266 176.084 291.278 176.078 291.289 176.072C291.333 176.056 291.376 176.041 291.423 176.031C291.434 176.029 291.445 176.028 291.456 176.026C291.45 176.027 291.449 176.027 291.445 176.028C291.471 176.026 291.497 176.026 291.524 176.026C291.636 176.029 291.744 175.923 291.739 175.806C291.733 175.684 291.644 175.589 291.524 175.586C291.264 175.579 291.02 175.689 290.834 175.863C290.213 173.342 289.449 170.327 289.04 169.02C288.276 166.575 287.703 163.641 285.649 163.641C283.596 163.641 272.803 163.788 270.893 164.423L286.557 166.77L290.235 178.26L291.808 179.875C291.808 179.874 291.444 178.345 290.967 176.403Z" fill="#F0655E"/>
<path d="M272.469 159.778L285.458 159.289L291.525 168.728L285.697 158.017L272.469 159.778Z" fill="#F0655E"/>
<path d="M272.612 167.21L285.698 169.215L288.038 177.918L285.938 181.634C285.938 181.634 284.841 185.934 288.517 187.061C288.517 187.061 286.51 185.253 287.513 182.124C288.516 178.994 288.802 177.576 288.802 177.576L285.841 167.992L272.612 167.21Z" fill="#F0655E"/>
<path d="M274.874 178.653C274.847 178.374 274.417 178.371 274.444 178.653C274.772 182.125 274.661 185.72 273.517 189.036C273.194 189.971 272.785 190.87 272.294 191.724C272.153 191.969 272.525 192.191 272.665 191.947C274.439 188.863 275.052 185.254 275.033 181.713C275.028 180.691 274.97 179.67 274.874 178.653Z" fill="#F0655E"/>
<path d="M285.935 180.308C285.722 180.084 285.484 179.858 285.169 179.813C284.874 179.77 284.573 179.893 284.443 180.181C284.374 180.334 284.342 180.501 284.302 180.662C284.26 180.837 284.216 181.011 284.173 181.185L283.904 182.275C283.836 182.549 284.25 182.667 284.319 182.392C284.466 181.796 284.613 181.201 284.761 180.605C284.808 180.413 284.851 180.227 285.08 180.243C285.308 180.26 285.483 180.463 285.632 180.619C285.825 180.822 286.129 180.51 285.935 180.308Z" fill="#F0655E"/>
<path d="M288.954 183.339C288.826 183.127 288.576 183.054 288.347 183.123C288.096 183.2 287.941 183.42 287.876 183.671C287.806 183.939 287.807 184.232 287.784 184.507C287.759 184.821 287.734 185.136 287.709 185.45C287.699 185.568 287.814 185.67 287.924 185.67C288.048 185.67 288.129 185.569 288.139 185.45C288.177 184.971 288.211 184.491 288.254 184.013C288.268 183.87 288.285 183.673 288.403 183.577C288.385 183.591 288.422 183.565 288.427 183.563C288.439 183.557 288.437 183.557 288.433 183.558C288.437 183.556 288.44 183.556 288.451 183.551C288.464 183.547 288.476 183.544 288.489 183.541C288.494 183.541 288.513 183.538 288.52 183.538C288.523 183.538 288.539 183.539 288.544 183.539C288.55 183.541 288.57 183.547 288.578 183.549C288.577 183.549 288.575 183.549 288.58 183.551C288.581 183.555 288.579 183.552 288.585 183.561C288.729 183.801 289.101 183.58 288.954 183.339Z" fill="#F0655E"/>
<path d="M274.194 196.593C272.319 197.042 270.192 197.372 268.508 196.167C268.281 196.004 268.065 196.386 268.291 196.547C270.068 197.82 272.326 197.493 274.308 197.017C274.578 196.952 274.464 196.528 274.194 196.593Z" fill="#F0655E"/>
<path d="M288.839 290.012C283.771 293.634 276.391 295.79 268.887 293.414C254.991 289.013 253.556 269.945 255.421 257.623C257.282 245.301 255.851 238.404 259.431 237.524L259.29 239.725C259.29 239.725 259.384 240.261 259.81 240.966C260.57 242.233 262.38 244.033 266.583 244.174C265.393 255.541 263.467 296.873 288.839 290.012Z" fill="#B51C4B"/>
<path d="M288.462 267.911C287.714 269.226 286.475 270.036 285.113 270.539C284.917 266.784 284.507 263.041 283.88 259.337C283.245 255.588 282.39 251.879 281.32 248.236C280.794 246.446 280.213 244.673 279.585 242.918C280.485 242.04 281.133 240.892 281.378 239.629C281.432 239.352 281.018 239.234 280.964 239.512C280.746 240.632 280.196 241.662 279.424 242.468C279.379 242.344 279.335 242.219 279.29 242.096C279.194 241.833 278.778 241.947 278.875 242.212C278.947 242.407 279.011 242.604 279.081 242.798C278.53 243.288 277.888 243.673 277.185 243.912C276.924 244.001 277.036 244.426 277.299 244.337C278.008 244.096 278.662 243.716 279.235 243.235C280.378 246.454 281.362 249.731 282.159 253.057C283.043 256.749 283.712 260.496 284.155 264.27C284.405 266.399 284.583 268.537 284.692 270.678C284.692 270.68 284.693 270.682 284.693 270.684C284.19 270.845 283.676 270.968 283.168 271.062C280.926 271.477 278.575 271.466 276.313 271.262C275.746 271.211 275.18 271.143 274.617 271.06C274.626 271.034 274.631 271.005 274.63 270.971C274.475 268.038 274.321 265.107 274.167 262.174C274.015 259.295 273.918 256.405 273.644 253.535C273.494 251.97 273.279 250.411 272.94 248.877C272.879 248.601 272.465 248.718 272.526 248.994C273.138 251.77 273.334 254.614 273.487 257.449C273.642 260.317 273.79 263.185 273.941 266.054L274.199 270.971C274.2 270.98 274.204 270.986 274.206 270.995C270.231 270.355 266.374 268.935 262.91 266.841C261.944 266.258 261.012 265.619 260.115 264.932C260.131 264.901 260.142 264.865 260.137 264.819C259.621 259.89 259.421 254.928 259.544 249.973C259.58 248.563 259.641 247.153 259.728 245.745C259.745 245.462 259.316 245.463 259.298 245.745C258.994 250.692 259.007 255.658 259.342 260.603C259.433 261.938 259.549 263.271 259.686 264.602C258.606 263.746 257.581 262.818 256.621 261.821C256.427 261.618 256.123 261.93 256.317 262.132C259.735 265.685 263.971 268.369 268.568 270.003C270.854 270.815 273.226 271.363 275.631 271.634C277.981 271.899 280.4 271.926 282.743 271.576C285.076 271.228 287.58 270.33 288.831 268.134C288.973 267.888 288.602 267.667 288.462 267.911Z" fill="#9B1545"/>
<path d="M265.566 252.118C265.578 250.579 265.632 249.04 265.725 247.503C265.742 247.221 265.313 247.222 265.296 247.503C264.965 252.972 265.144 258.469 265.838 263.902C266.031 265.412 266.262 266.917 266.532 268.415C266.582 268.693 266.997 268.575 266.947 268.298C265.986 262.965 265.523 257.541 265.566 252.118Z" fill="#9B1545"/>
<path d="M272.899 245.183C270.492 245.374 268.071 245.343 265.67 245.084C263.556 244.855 261.203 244.634 259.723 242.884C259.032 242.066 258.597 241.025 258.513 239.947C258.49 239.666 258.061 239.664 258.083 239.947C258.239 241.947 259.472 243.788 261.273 244.603C262.345 245.088 263.527 245.249 264.68 245.404C265.945 245.574 267.219 245.681 268.495 245.725C269.964 245.775 271.434 245.74 272.899 245.624C273.173 245.602 273.175 245.161 272.899 245.183Z" fill="#9B1545"/>
<path d="M549.152 388.737H94.4053V405.618H549.152V388.737Z" fill="#84516A"/>
<path d="M549.594 388.737H94.4072L148.084 290.396H486.436L549.594 388.737Z" fill="#D4DDDC"/>
<path d="M329.546 339.093L371.445 346.682L366.191 362.544L312.571 353.715L329.546 339.093Z" fill="#EFEDEE"/>
<path d="M404.571 359.878L425.11 336.574L448.147 341.406L438.155 368.687L404.571 359.878Z" fill="#EFEDEE"/>
<path d="M540.173 405.619H106.185V424.104H540.173V405.619Z" fill="#84516A"/>
<path d="M540.173 405.619H106.185V413.156H540.173V405.619Z" fill="#28170E"/>
<path d="M366.418 310.702L348.734 345.732C348.366 346.461 347.585 346.867 346.794 346.742L242.912 330.297C241.577 330.086 240.898 328.536 241.632 327.375L243.033 325.157L366.418 310.702Z" fill="#28170E"/>
<path d="M425.45 306.121L436.498 308.604L414.942 336.744L392.847 323.778L425.45 306.121Z" fill="white"/>
<path d="M433.264 312.192L416.701 318.304L408.889 321.188L393.655 326.812L372.101 317.986L377.593 316.036L410.154 304.499L421.139 300.604L433.264 312.192Z" fill="#EFEDEE"/>
<path d="M376.95 298.396L418.848 305.985L413.595 321.847L359.975 313.018L376.95 298.396Z" fill="white"/>
<path d="M424.063 332.156L447.982 305.019L474.81 310.645L463.173 342.415L424.063 332.156Z" fill="white"/>
<path d="M347.268 342.144C346.937 342.939 346.102 343.482 345.18 343.333L344.685 343.256C344.804 342.921 344.831 342.559 344.751 342.18L343.678 337.101L341.788 328.175L341.324 325.973L340.936 324.141L340.379 321.509L340.141 320.374L339.47 317.195L336.573 303.499L332.43 283.941C332.023 282.006 330.438 280.563 328.517 280.373L243.894 271.94L236.549 271.207L220.854 269.647C221.14 268.838 221.931 268.25 222.868 268.344L235.794 269.633L246.527 270.7L331.146 279.129C333.071 279.319 334.657 280.766 335.063 282.697L339.201 302.255L342.098 315.951L342.77 319.13L343.013 320.27L343.569 322.902L343.958 324.729L344.422 326.931L346.625 337.35L347.385 340.936C347.476 341.366 347.423 341.782 347.268 342.144Z" fill="#1797C6"/>
<path d="M344.685 343.256L241.914 326.823C240.285 326.565 238.925 325.394 238.394 323.793L224.465 281.893L220.834 270.977C220.68 270.521 220.702 270.055 220.852 269.648L236.548 271.208L243.892 271.941L328.516 280.374C330.437 280.564 332.022 282.007 332.428 283.942L336.571 303.5L339.468 317.196L340.14 320.375L340.378 321.51L340.934 324.142L341.323 325.974L341.786 328.176L343.677 337.102L344.75 342.181C344.831 342.56 344.804 342.921 344.685 343.256Z" fill="#96BFB4"/>
<path d="M366.418 310.703L347.683 341.641L347.308 342.261L347.268 342.144C347.422 341.782 347.476 341.366 347.383 340.936L346.844 338.34L347.268 337.644L364.664 308.907C364.779 308.718 364.85 308.509 364.876 308.301L365.481 308.405C366.479 308.636 366.957 309.808 366.418 310.703Z" fill="#037493"/>
<path d="M364.878 308.302C364.85 308.508 364.781 308.715 364.664 308.906L346.844 338.341L339.767 304.052L364.878 308.302Z" fill="#96BFB4"/>
<path d="M344.973 316.529L343.821 319.384L342.77 319.132L342.099 315.954V315.917C342.16 315.916 343.372 316.177 344.973 316.529Z" fill="#02173B"/>
<path d="M353.06 318.304L351.217 321.155L345.85 319.868L347.244 317.021C350.089 317.646 353.06 318.304 353.06 318.304Z" fill="#02173B"/>
<path d="M350.453 322.351L349.196 324.561L343.566 322.902L343.013 320.27C344.645 320.742 350.453 322.351 350.453 322.351Z" fill="#02173B"/>
<path d="M347.491 325.753L346.545 327.64L344.419 326.932L343.954 324.73C345.219 325.112 347.491 325.753 347.491 325.753Z" fill="#02173B"/>
<path d="M347.268 342.144C346.937 342.939 346.102 343.482 345.18 343.333L344.685 343.256C344.804 342.921 344.831 342.559 344.751 342.18L343.678 337.101L341.788 328.175L341.324 325.973L340.936 324.141L340.379 321.509L340.141 320.374L339.47 317.195L336.573 303.499L332.43 283.941C332.023 282.006 330.438 280.563 328.517 280.373L243.894 271.94L236.549 271.207L220.854 269.647C221.14 268.838 221.931 268.25 222.868 268.344L235.794 269.633L246.527 270.7L331.146 279.129C333.071 279.319 334.657 280.766 335.063 282.697L339.201 302.255L342.098 315.951L342.77 319.13L343.013 320.27L343.569 322.902L343.958 324.729L344.422 326.931L346.625 337.35L347.385 340.936C347.476 341.366 347.423 341.782 347.268 342.144Z" fill="#246D5C"/>
<path d="M366.418 310.703L347.683 341.641L347.308 342.261L347.268 342.144C347.422 341.782 347.476 341.366 347.383 340.936L346.844 338.34L347.268 337.644L364.664 308.907C364.779 308.718 364.85 308.509 364.876 308.301L365.481 308.405C366.479 308.636 366.957 309.808 366.418 310.703Z" fill="#246D5C"/>
<path d="M285.085 310.275C287.811 308.156 287.905 303.585 285.295 300.066C282.686 296.547 278.36 295.412 275.634 297.532C272.908 299.651 272.814 304.222 275.424 307.741C278.034 311.26 282.359 312.395 285.085 310.275Z" fill="white"/>
<path d="M409.014 326.536L405.757 325.107C404.919 324.74 404.971 323.507 405.836 323.215L419.762 318.507C421.408 317.95 423.217 318.271 424.584 319.363L426.887 321.203L409.014 326.536Z" fill="#28170E"/>
<path d="M426.599 321.988L419.873 324.211C421.058 323.819 421.709 322.517 421.327 321.303C421.134 320.693 420.721 320.22 420.204 319.953C419.691 319.68 419.08 319.612 418.484 319.809L425.211 317.585C425.801 317.39 426.417 317.456 426.931 317.73C427.447 317.996 427.861 318.469 428.053 319.079C428.436 320.293 427.785 321.596 426.599 321.988Z" fill="#596687"/>
<path d="M418.004 324.828L411.256 327.059C410.062 327.453 408.79 326.786 408.407 325.573C408.023 324.355 408.675 323.052 409.868 322.658L416.616 320.427C417.212 320.23 417.823 320.299 418.336 320.571C418.852 320.838 419.266 321.313 419.457 321.92C419.84 323.133 419.189 324.436 418.004 324.828Z" fill="#323850"/>
<path d="M419.872 324.211L418.005 324.829C419.19 324.437 419.841 323.134 419.458 321.92C419.267 321.31 418.853 320.837 418.336 320.571C417.823 320.297 417.212 320.229 416.616 320.426L418.484 319.809C419.079 319.612 419.691 319.68 420.204 319.954C420.72 320.22 421.134 320.693 421.326 321.303C421.709 322.517 421.058 323.819 419.872 324.211Z" fill="#FEE5D1"/>
<path d="M411.386 327.015L411.256 327.058C410.062 327.453 408.79 326.786 408.407 325.573C408.023 324.355 408.675 323.052 409.868 322.657L409.998 322.614C410.595 322.417 411.206 322.486 411.718 322.758C412.234 323.025 412.649 323.501 412.839 324.107C413.222 325.32 412.571 326.624 411.386 327.015Z" fill="#222738"/>
<path d="M395.866 310.656L394.819 307.875C395.446 309.32 395.822 310.516 395.866 310.656Z" fill="#28170E"/>
<path opacity="0.2" d="M347.684 341.641L347.309 342.261L347.269 342.143C346.938 342.939 346.103 343.482 345.18 343.333L344.686 343.256L241.915 326.823C240.286 326.565 238.926 325.394 238.395 323.793L224.466 281.893L220.835 270.977C220.681 270.521 220.703 270.055 220.853 269.648C221.14 268.839 221.931 268.251 222.867 268.345L235.794 269.634C236.01 270.1 236.262 270.629 236.549 271.207C243.452 285.176 271.192 330.372 343.678 337.101C344.65 337.191 345.635 337.277 346.624 337.35C346.628 337.354 346.637 337.354 346.642 337.354C346.84 337.368 347.044 337.386 347.242 337.399L347.268 337.643L347.684 341.641Z" fill="#246D5C"/>
<path d="M207.465 361.459C221.48 361.459 232.842 358.918 232.842 355.783C232.842 352.648 221.48 350.106 207.465 350.106C193.449 350.106 182.087 352.648 182.087 355.783C182.087 358.918 193.449 361.459 207.465 361.459Z" fill="#28170E"/>
<path d="M231.607 349.015C231.607 349.941 230.604 350.81 228.848 351.564C225.154 353.143 218.131 354.212 210.071 354.212C202.011 354.212 194.988 353.143 191.294 351.564C189.539 350.81 188.535 349.941 188.535 349.015C188.535 346.148 198.176 343.819 210.072 343.819C221.967 343.819 231.607 346.148 231.607 349.015Z" fill="#F9C0B4"/>
<path d="M231.607 349.015V354.107C231.607 356.975 221.966 359.304 210.071 359.304C198.175 359.304 188.534 356.975 188.534 354.107V349.015C188.534 349.941 189.538 350.81 191.293 351.564C194.987 353.143 202.01 354.212 210.07 354.212C218.131 354.212 225.153 353.143 228.847 351.564C230.604 350.81 231.607 349.941 231.607 349.015Z" fill="#D89393"/>
<path d="M208.129 350.824C215.545 350.824 221.557 350.008 221.557 349.002C221.557 347.996 215.545 347.18 208.129 347.18C200.713 347.18 194.701 347.996 194.701 349.002C194.701 350.008 200.713 350.824 208.129 350.824Z" fill="#28170E"/>
<path d="M202.608 338.06C195.047 338.06 188.804 332.892 188.049 325.973L187.478 320.746C187.276 318.899 187.854 317.095 189.103 315.663C190.509 314.055 192.59 313.132 194.814 313.132H203.738V317.802H194.814C193.9 317.802 193.036 318.166 192.502 318.777C192.239 319.079 191.938 319.576 192.009 320.227L192.58 325.455C193.069 329.925 197.464 333.391 202.614 333.391C202.656 333.391 202.698 333.391 202.739 333.391L203.713 333.38L203.762 338.049L202.787 338.06C202.728 338.06 202.667 338.06 202.608 338.06Z" fill="#B51C4B"/>
<path d="M224.736 311.233L224.573 312.907L224.428 314.397L221.673 342.879L221.221 347.556C221.274 347.642 221.305 347.724 221.305 347.809C221.305 348.988 216.22 349.945 209.946 349.945C203.672 349.945 198.587 348.988 198.587 347.809C198.587 347.723 198.618 347.638 198.675 347.552L195.406 313.77L195.383 313.54V313.528L195.159 311.232C195.558 311.547 196.436 311.835 197.679 312.08C198.317 312.209 199.051 312.326 199.867 312.431C202.531 312.769 206.066 312.975 209.946 312.975C215.201 312.975 219.826 312.598 222.513 312.018C223.6 311.786 224.371 311.517 224.736 311.233Z" fill="#D81D50"/>
<path d="M224.735 311.234C223.462 312.226 217.325 312.978 209.944 312.978C202.568 312.978 196.431 312.226 195.158 311.234C195.111 310.743 195.384 310.282 195.825 310.111C197.929 309.295 203.458 308.715 209.944 308.715C216.434 308.715 221.963 309.295 224.068 310.111C224.509 310.282 224.782 310.743 224.735 311.234Z" fill="#9B1545"/>
<path d="M222.512 312.018C219.826 312.598 215.201 312.978 209.945 312.978C204.879 312.978 200.399 312.622 197.678 312.083C200.307 311.287 204.932 310.759 210.2 310.759C215.33 310.759 219.853 311.259 222.512 312.018Z" fill="black"/>
<path d="M221.221 347.556C221.274 347.642 221.305 347.724 221.305 347.809C221.305 348.988 216.22 349.945 209.946 349.945C203.672 349.945 198.587 348.988 198.587 347.809C198.587 347.723 198.618 347.638 198.675 347.552L195.406 313.77L195.383 313.54V313.528L195.159 311.232C195.558 311.547 196.436 311.835 197.679 312.08C198.317 312.209 199.051 312.326 199.867 312.431C199.89 323.166 202.315 344.8 221.674 342.878L221.221 347.556Z" fill="#B51C4B"/>
<path d="M218.485 315.222C212.811 313.961 207.295 317.12 201.606 316.389C200.17 316.205 198.776 315.746 197.561 314.932C197.356 314.794 197.165 315.131 197.37 315.268C199.539 316.721 202.191 317.018 204.725 316.842C207.615 316.641 210.414 315.813 213.284 315.464C214.981 315.258 216.706 315.225 218.384 315.598C218.622 315.651 218.724 315.276 218.485 315.222Z" fill="white"/>
<path d="M192.482 315.119C190.262 315.551 188.636 317.73 188.497 319.988C188.458 320.628 188.548 321.274 188.767 321.875C188.852 322.108 189.219 322.007 189.134 321.772C188.4 319.762 189.285 317.374 190.985 316.18C191.469 315.839 192.007 315.607 192.583 315.495C192.823 315.448 192.721 315.073 192.482 315.119Z" fill="white"/>
<path opacity="0.46" d="M262.063 275.887L326.421 282.301C327.726 282.432 328.806 283.399 329.105 284.706L332.334 298.798L326.565 286.089C326.124 285.117 325.228 284.444 324.19 284.303L262.063 275.887Z" fill="white"/>
<path d="M129.913 323.171L106.817 365.456L107.258 365.708L130.354 323.424L129.913 323.171Z" fill="#84516A"/>
<path d="M100.492 377.065L94.1924 388.598L94.6332 388.851L100.933 377.317L100.492 377.065Z" fill="#84516A"/>
<path d="M509.617 325.901L509.195 326.184L549.386 388.871L549.808 388.587L509.617 325.901Z" fill="#84516A"/>
<path d="M501.269 312.922L500.847 313.206L502.042 315.071L502.464 314.787L501.269 312.922Z" fill="#84516A"/>
<path d="M494.247 302.884L486.299 290.487H472.215V289.97H486.571L494.669 302.6L494.247 302.884Z" fill="#84516A"/>
<path d="M360.3 388.738L361.108 394.038C361.318 395.411 362.618 396.316 363.942 396.01L395.393 388.738H360.3Z" fill="#28170E"/>
<path d="M421.158 381.267L395.393 388.738H360.3L343.946 353.1C343.597 352.336 343.508 351.473 343.703 350.649L344.948 345.372L346.905 341.434L421.004 372.883L422.709 378.31C423.101 379.567 422.399 380.91 421.158 381.267Z" fill="#28170E"/>
<path d="M424.131 371.795L424.014 376.757C423.985 377.833 423.249 378.752 422.227 378.992L368.549 391.436C367.551 391.667 366.532 391.163 366.088 390.219L344.949 345.373C344.699 344.847 344.893 344.21 345.39 343.924L346.19 343.457L344.201 339.517C343.761 338.64 344.27 337.577 345.22 337.402L360.288 334.601L368.052 333.161L394.432 328.257C395.245 328.104 396.065 328.459 396.526 329.159L411.388 351.692L413.214 354.464L423.739 370.426C424.005 370.827 424.143 371.307 424.131 371.795Z" fill="#596687"/>
<path d="M346.188 343.458L365.148 382.461C365.566 383.321 366.498 383.785 367.417 383.589L422.082 371.966L421.993 377.483L367.744 389.898L346.009 345.297L346.188 343.458Z" fill="#D4DDDC"/>
<path d="M394.419 360.4L377.366 364.49L375.738 360.908L392.791 356.819L394.419 360.4Z" fill="white"/>
<path d="M366.678 338.767L351.47 342.14L350.78 340.791L365.988 337.418L366.678 338.767Z" fill="white"/>
<path d="M429.712 339.504L429.619 340.99C429.583 341.524 429.328 342.008 428.912 342.331L413.214 354.464L410.732 356.38C410.037 356.914 409.12 357.034 408.315 356.691L384.764 346.61L384.267 346.395L384.339 347.156C384.424 348.021 383.588 348.671 382.8 348.356L377.335 346.184C376.98 346.043 376.721 345.733 376.636 345.352L376.179 343.228C376.159 343.125 376.147 343.022 376.135 342.918L360.093 336.053C359.608 335.846 359.54 335.167 359.976 334.861L360.287 334.6L368.051 333.16L377.5 340.03L385.96 334.212C386.158 334.079 386.404 334.05 386.627 334.137L392.859 336.62C393.417 336.839 393.485 337.622 392.98 337.94L385.551 342.658C385.382 342.766 385.232 342.89 385.091 343.026L386.328 343.514L408.02 352.073C409.139 352.515 410.392 352.375 411.387 351.692C411.423 351.675 411.455 351.651 411.488 351.626L428.803 339.02L429.433 338.665C429.627 338.888 429.732 339.19 429.712 339.504Z" fill="#28170E"/>
<path d="M431.401 340.506L431.216 341.983C431.147 342.513 430.86 342.981 430.427 343.274L411.399 356.095C410.672 356.583 409.75 356.641 408.97 356.244L386.101 344.632L378.257 340.651L362.146 332.474C361.673 332.234 361.649 331.551 362.102 331.274L363.746 330.26L380.734 338.284L387.855 341.648L408.963 351.619C410.088 352.151 411.398 352.069 412.452 351.402L430.524 339.964L431.175 339.65C431.357 339.885 431.442 340.192 431.401 340.506Z" fill="#E55B57"/>
<path d="M431.176 339.649L430.525 339.964L412.493 351.376C411.414 352.059 410.072 352.142 408.921 351.598L363.747 330.259L362.781 329.626C362.361 329.349 362.373 328.715 362.806 328.459L381.563 317.319C381.883 317.129 382.271 317.108 382.606 317.261L430.735 339.285C430.913 339.368 431.067 339.492 431.176 339.649Z" fill="#F9C0B4"/>
<path d="M395.019 337.266L387.857 341.648L387.517 341.855C386.571 342.434 386.022 343.506 386.103 344.632L378.258 340.651C378.468 340.051 378.868 339.521 379.414 339.161L380.735 338.283L388.059 333.421C388.257 333.288 388.508 333.264 388.726 333.355L394.922 335.941C395.475 336.169 395.532 336.951 395.019 337.266Z" fill="#28170E"/>
<path d="M388.075 332.341L379.167 337.65C378.128 338.268 377.566 339.475 377.748 340.692L378.071 342.842C378.129 343.226 378.371 343.556 378.715 343.72L384.032 346.247C384.8 346.612 385.675 346.019 385.646 345.152L385.59 343.481C385.552 342.34 386.152 341.277 387.135 340.74L394.846 336.525C395.373 336.236 395.352 335.455 394.81 335.197L388.746 332.309C388.53 332.207 388.28 332.219 388.075 332.341Z" fill="#FCCFC8"/>
<path d="M388.545 337.383C389.788 336.873 390.571 335.886 390.294 335.179C390.017 334.472 388.785 334.312 387.542 334.822C386.299 335.333 385.516 336.32 385.792 337.027C386.069 337.734 387.302 337.894 388.545 337.383Z" fill="#28170E"/>
<path d="M388.545 337.062C389.788 336.551 390.571 335.564 390.294 334.857C390.017 334.15 388.785 333.99 387.542 334.501C386.299 335.011 385.516 335.998 385.792 336.705C386.069 337.412 387.302 337.572 388.545 337.062Z" fill="#596687"/>
<path d="M213.776 309.849C213.776 309.849 222.2 301.824 216.723 300.502C211.246 299.181 198.146 309.175 195.43 300.798C192.474 291.68 210.619 291.038 206.949 279.198C206.949 279.198 211.311 285.817 206.782 291.998C202.535 297.795 216.345 293.587 221.134 297.436C225.922 301.285 213.776 309.849 213.776 309.849Z" fill="white"/>
<path d="M425.874 298.186L419.281 304.641L418.279 306.252L410.543 305.372C405.673 307.132 403.954 305.521 403.954 305.521L402.235 306.692C401.006 305.433 400.907 303.576 401.113 302.045L399.798 307.133L393.639 297.305L393.493 285.423L393.665 285.089L394.782 282.928C394.782 282.928 391.632 276.916 398.221 275.156C404.814 273.396 405.674 278.087 405.674 278.087C405.674 278.087 405.868 278.082 406.199 278.082C408.137 278.065 414.782 278.069 415.272 278.822C415.844 279.702 418.853 282.197 421.001 283.958C423.15 285.718 423.727 288.649 423.727 288.649L425.874 298.186Z" fill="#F9AD8A"/>
<path d="M406.245 278.307C406.245 278.307 402.303 278.602 399.51 279.408C396.716 280.218 393.78 284.908 393.707 285.129L393.664 285.089L394.782 282.928C394.782 282.928 391.631 276.916 398.22 275.156C404.813 273.396 405.673 278.087 405.673 278.087C405.673 278.087 405.867 278.082 406.198 278.082L406.245 278.307Z" fill="#F0655E"/>
<path d="M399.798 286.01C399.798 286.01 402.806 283.15 404.884 283.957C406.961 284.763 409.11 285.79 409.11 285.79C409.11 285.79 411.546 289.897 411.402 290.118C411.259 290.338 399.657 299.209 402.234 306.693C402.234 306.693 400.872 303.173 401.159 300.973L401.122 302.707C401.122 302.707 401.66 300.9 400.084 297.673C398.508 294.446 398.437 292.465 398.437 292.465L399.798 286.01Z" fill="#F0655E"/>
<path d="M419.822 290.725C419.271 288.231 418.641 285.757 417.933 283.305C417.855 283.034 417.44 283.149 417.519 283.422C418.226 285.874 418.856 288.348 419.407 290.842C419.468 291.119 419.882 291.002 419.822 290.725Z" fill="#F0655E"/>
<path d="M417.194 290.471C417.081 290.449 416.971 290.418 416.863 290.379C416.836 290.369 416.809 290.357 416.782 290.347C416.78 290.346 416.78 290.346 416.778 290.345C416.763 290.338 416.748 290.332 416.733 290.324C416.679 290.299 416.627 290.271 416.576 290.242C416.527 290.214 416.48 290.184 416.434 290.152C416.41 290.136 416.385 290.118 416.362 290.1C416.351 290.093 416.34 290.084 416.33 290.077C416.328 290.075 416.329 290.076 416.328 290.075C416.327 290.074 416.325 290.073 416.32 290.068C416.229 289.991 416.144 289.909 416.064 289.819C415.989 289.733 415.836 289.734 415.76 289.819C415.678 289.91 415.68 290.038 415.76 290.13C416.103 290.521 416.576 290.796 417.08 290.896C417.19 290.918 417.317 290.865 417.344 290.743C417.368 290.633 417.312 290.494 417.194 290.471Z" fill="#F0655E"/>
<path d="M404.09 275.132V280.949C404.09 279.924 403.278 279.092 402.276 279.092C401.773 279.092 401.318 279.299 400.991 279.637C400.66 279.972 400.458 280.434 400.458 280.949V275.131C400.458 274.621 400.66 274.154 400.991 273.82C401.318 273.481 401.773 273.274 402.276 273.274C403.278 273.275 404.09 274.107 404.09 275.132Z" fill="#596687"/>
<path d="M404.09 282.565V311.592C404.09 310.567 403.278 309.735 402.276 309.735C401.773 309.735 401.318 309.941 400.991 310.28C400.66 310.615 400.458 311.076 400.458 311.591V282.564C400.458 282.049 400.66 281.587 400.991 281.253C401.318 280.914 401.773 280.707 402.276 280.707C403.278 280.708 404.09 281.539 404.09 282.565Z" fill="#323850"/>
<path d="M404.09 280.95V282.564C404.09 281.539 403.278 280.707 402.276 280.707C401.773 280.707 401.318 280.914 400.991 281.253C400.66 281.587 400.458 282.049 400.458 282.564V280.949C400.458 280.434 400.66 279.972 400.991 279.638C401.318 279.299 401.773 279.092 402.276 279.092C403.278 279.092 404.09 279.924 404.09 280.95Z" fill="#FEE5D1"/>
<path d="M404.09 311.592V311.706C404.09 312.736 403.278 313.567 402.276 313.567C401.271 313.567 400.458 312.735 400.458 311.706V311.592C400.458 311.077 400.66 310.615 400.991 310.28C401.318 309.942 401.773 309.735 402.276 309.735C403.278 309.735 404.09 310.566 404.09 311.592Z" fill="#596687"/>
<path d="M403.176 313V313.056C403.176 313.555 402.781 313.959 402.295 313.959C401.807 313.959 401.413 313.555 401.413 313.056V313C401.413 312.751 401.511 312.526 401.672 312.364C401.83 312.199 402.051 312.099 402.295 312.099C402.781 312.099 403.176 312.503 403.176 313Z" fill="#FEE5D1"/>
<path d="M402.299 315.571C402.154 315.571 402.036 315.45 402.036 315.302V313.004C402.036 312.855 402.154 312.735 402.299 312.735C402.444 312.735 402.561 312.855 402.561 313.004V315.302C402.561 315.45 402.444 315.571 402.299 315.571Z" fill="#323850"/>
<path d="M399.93 301.968C399.847 301.674 399.75 301.384 399.649 301.096C399.569 300.868 399.495 300.629 399.346 300.436C398.966 299.946 398.41 300.258 397.967 300.472C397.442 300.725 396.936 301.017 396.451 301.342C396.221 301.497 396.436 301.878 396.668 301.722C397.084 301.443 397.515 301.189 397.96 300.962C398.181 300.851 398.406 300.732 398.637 300.647C398.853 300.567 398.974 300.62 399.081 300.821C399.187 301.02 399.248 301.248 399.321 301.46C399.404 301.708 399.484 301.958 399.55 302.212C399.683 302.718 399.758 303.232 399.722 303.757C399.702 304.039 400.132 304.038 400.151 303.757C400.192 303.152 400.092 302.549 399.93 301.968Z" fill="#F0655E"/>
<path d="M409.864 304.218C409.689 304.098 409.514 303.978 409.339 303.858C409.175 303.746 409.014 303.613 408.84 303.522C408.521 303.356 408.12 303.574 407.816 303.696C407.119 303.979 406.466 304.355 405.872 304.824C405.656 304.994 405.87 305.376 406.089 305.204C406.617 304.787 407.193 304.435 407.808 304.172C407.95 304.111 408.095 304.055 408.241 304.003C408.323 303.974 408.408 303.938 408.493 303.919C408.598 303.895 408.631 303.904 408.72 303.962C409.033 304.166 409.339 304.386 409.647 304.598C409.878 304.756 410.093 304.375 409.864 304.218Z" fill="#F0655E"/>
<path d="M419.552 291.445C419.43 291.416 419.331 291.483 419.288 291.598C419.276 291.629 419.264 291.66 419.252 291.691C419.251 291.694 419.251 291.693 419.25 291.695C419.25 291.697 419.25 291.696 419.248 291.7C419.243 291.714 419.237 291.728 419.231 291.741C419.204 291.802 419.175 291.862 419.146 291.921C419.088 292.036 419.023 292.148 418.954 292.257C418.92 292.309 418.885 292.361 418.848 292.412C418.84 292.424 418.831 292.435 418.822 292.447C418.818 292.453 418.818 292.453 418.818 292.454C418.816 292.457 418.815 292.458 418.81 292.464C418.792 292.488 418.773 292.511 418.755 292.534C418.672 292.637 418.583 292.734 418.49 292.827C418.409 292.907 418.405 293.059 418.49 293.138C418.577 293.22 418.707 293.224 418.794 293.138C419.197 292.738 419.503 292.252 419.703 291.716C419.743 291.608 419.658 291.47 419.552 291.445Z" fill="#F0655E"/>
<path d="M422.414 293.7C421.523 295.441 421.236 297.537 419.982 299.074C419.318 299.888 418.454 300.487 417.58 301.039C416.605 301.654 415.621 302.252 414.64 302.857C413.494 303.566 412.346 304.275 411.199 304.983C410.962 305.129 411.179 305.51 411.416 305.363C413.478 304.09 415.544 302.823 417.601 301.541C418.47 301 419.341 300.425 420.045 299.663C420.709 298.944 421.155 298.073 421.515 297.161C421.941 296.082 422.256 294.956 422.785 293.922C422.914 293.671 422.543 293.449 422.414 293.7Z" fill="#F0655E"/>
<path d="M424.395 298.281C422.362 300.723 420.329 303.165 418.296 305.608C418.118 305.823 418.421 306.136 418.601 305.919C420.633 303.477 422.666 301.035 424.699 298.592C424.877 298.378 424.574 298.065 424.395 298.281Z" fill="#F0655E"/>
<path d="M419.405 297.093C419.017 296.833 418.63 296.572 418.242 296.311C418.148 296.247 418.001 296.289 417.949 296.39C417.892 296.5 417.925 296.623 418.025 296.691C418.413 296.952 418.8 297.213 419.187 297.473C419.281 297.537 419.429 297.496 419.481 297.394C419.538 297.284 419.505 297.161 419.405 297.093Z" fill="#F0655E"/>
<path d="M404.852 297.07C404.852 297.07 400.234 302.386 402.373 306.287L407.409 302.253L404.852 297.07Z" fill="#F9AD8A"/>
<path d="M406.613 302.16C406.397 301.667 406.06 301.176 405.494 301.107C404.941 301.04 404.505 301.553 404.129 301.896C403.287 302.661 402.52 303.535 402.13 304.634C402.036 304.901 402.451 305.016 402.545 304.751C402.868 303.838 403.498 303.092 404.183 302.439C404.348 302.282 404.516 302.13 404.687 301.98C404.855 301.834 405.039 301.624 405.256 301.557C405.755 301.405 406.078 302.007 406.242 302.382C406.355 302.64 406.725 302.416 406.613 302.16Z" fill="#F0655E"/>
<path d="M417.97 293.538C413.991 296.851 409.966 300.105 405.892 303.296C404.752 304.189 403.609 305.078 402.461 305.961C402.243 306.129 402.457 306.511 402.679 306.341C406.778 303.183 410.834 299.965 414.84 296.685C415.989 295.745 417.134 294.799 418.274 293.849C418.488 293.67 418.183 293.361 417.97 293.538Z" fill="#F0655E"/>
</svg>
