<svg width="7156" height="2834" viewBox="0 0 7156 2834" fill="none" xmlns="http://www.w3.org/2000/svg">
<rect width="7156" height="2834" fill="#FEEEEE"/>
<path d="M1885.48 1416.5C1885.48 1768.76 1620.47 2054.32 1293.57 2054.32C966.66 2054.32 701.652 1768.76 701.652 1416.5C701.652 1297.24 732.03 1185.61 784.914 1090.14C787.432 1085.58 789.993 1081.07 792.627 1076.6C805.232 1055.05 819.018 1034.38 833.882 1014.67C858.935 981.408 887.054 950.923 917.762 923.71C1009.11 842.72 1123.38 790.65 1248.5 780.51C1263.38 779.3 1278.41 778.68 1293.57 778.68C1306.8 778.68 1319.91 779.144 1332.92 780.075C1352.34 781.44 1371.52 783.828 1390.39 787.177C1392.79 787.595 1395.18 788.03 1397.57 788.495C1674.88 841.466 1885.48 1102.48 1885.48 1416.5Z" fill="#F3F5F4"/>
<mask id="mask0_554_3025" style="mask-type:alpha" maskUnits="userSpaceOnUse" x="701" y="778" width="1185" height="1277">
<path d="M1885.48 1416.5C1885.48 1768.76 1620.47 2054.32 1293.57 2054.32C966.66 2054.32 701.652 1768.76 701.652 1416.5C701.652 1297.24 732.03 1185.61 784.914 1090.14C787.432 1085.58 789.993 1081.07 792.627 1076.6C805.232 1055.05 819.018 1034.38 833.882 1014.67C858.935 981.408 887.054 950.923 917.762 923.71C1009.11 842.72 1123.38 790.65 1248.5 780.51C1263.38 779.3 1278.41 778.68 1293.57 778.68C1306.8 778.68 1319.91 779.144 1332.92 780.075C1352.34 781.44 1371.52 783.828 1390.39 787.177C1392.79 787.595 1395.18 788.03 1397.57 788.495C1674.88 841.466 1885.48 1102.48 1885.48 1416.5Z" fill="white"/>
</mask>
<g mask="url(#mask0_554_3025)">
<path d="M915.475 956.513V996.344C915.475 1001.68 923.175 1001.69 923.175 996.344V956.513C923.175 951.174 915.475 951.166 915.475 956.513Z" fill="white"/>
<path d="M978.62 856.938V903.407C978.62 908.746 986.321 908.756 986.321 903.407V856.938C986.321 851.599 978.62 851.591 978.62 856.938Z" fill="white"/>
<path d="M1035.61 973.11V1027.88C1035.61 1033.22 1043.31 1033.23 1043.31 1027.88V973.11C1043.31 967.771 1035.61 967.763 1035.61 973.11Z" fill="white"/>
<path d="M961.679 1076V1112.52C961.679 1117.85 969.379 1117.86 969.379 1112.52V1076C969.379 1070.67 961.679 1070.66 961.679 1076Z" fill="white"/>
<path d="M816.906 1002.98V1046.13C816.906 1051.47 824.607 1051.48 824.607 1046.13V1002.98C824.607 997.643 816.906 997.635 816.906 1002.98Z" fill="white"/>
<path d="M821.526 1162.3V1207.11C821.526 1212.45 829.227 1212.46 829.227 1207.11V1162.3C829.227 1156.97 821.526 1156.96 821.526 1162.3Z" fill="white"/>
<path d="M886.982 1078.49C884.897 1078.59 883.132 1080.32 883.132 1082.64V1105.88C883.132 1108.05 884.903 1110.13 886.982 1110.03C889.068 1109.92 890.833 1108.2 890.833 1105.88V1082.64C890.833 1080.47 889.061 1078.39 886.982 1078.49Z" fill="white"/>
<path d="M920.096 1217.07V1276.82C920.096 1282.16 927.796 1282.17 927.796 1276.82V1217.07C927.796 1211.73 920.096 1211.72 920.096 1217.07Z" fill="white"/>
<path d="M1030.99 1178.9V1223.71C1030.99 1229.05 1038.69 1229.06 1038.69 1223.71V1178.9C1038.69 1173.56 1030.99 1173.55 1030.99 1178.9Z" fill="white"/>
<path d="M1095.67 1051.11V1100.9C1095.67 1106.24 1103.37 1106.25 1103.37 1100.9V1051.11C1103.37 1045.77 1095.67 1045.76 1095.67 1051.11Z" fill="white"/>
<path d="M1105.68 864.406C1103.59 864.406 1101.83 866.305 1101.83 868.555V898.428C1101.83 900.67 1103.6 902.577 1105.68 902.577C1107.77 902.577 1109.53 900.678 1109.53 898.428V868.555C1109.53 866.313 1107.76 864.406 1105.68 864.406Z" fill="white"/>
<path d="M1185 777.277V817.107C1185 822.446 1192.7 822.456 1192.7 817.107V777.277C1192.7 771.938 1185 771.93 1185 777.277Z" fill="white"/>
<path d="M1215.8 886.81V929.96C1215.8 935.299 1223.5 935.309 1223.5 929.96V886.81C1223.5 881.471 1215.8 881.463 1215.8 886.81Z" fill="white"/>
<path d="M1335.93 765.66V798.852C1335.93 804.191 1343.63 804.201 1343.63 798.852V765.66C1343.63 760.321 1335.93 760.312 1335.93 765.66Z" fill="white"/>
<path d="M1332.85 911.705V963.152C1332.85 968.491 1340.55 968.501 1340.55 963.152V911.705C1340.55 906.366 1332.85 906.357 1332.85 911.705Z" fill="white"/>
<path d="M1432.96 850.299V893.449C1432.96 898.788 1440.66 898.798 1440.66 893.449V850.299C1440.66 844.96 1432.96 844.952 1432.96 850.299Z" fill="white"/>
<path d="M1440.66 1022.9V1062.73C1440.66 1068.07 1448.36 1068.08 1448.36 1062.73V1022.9C1448.36 1017.56 1440.66 1017.55 1440.66 1022.9Z" fill="white"/>
<path d="M1388.3 1144.05V1187.2C1388.3 1192.54 1396 1192.55 1396 1187.2V1144.05C1396 1138.71 1388.3 1138.7 1388.3 1144.05Z" fill="white"/>
<path d="M980.16 1318.31V1349.84C980.16 1355.18 987.861 1355.19 987.861 1349.84V1318.31C987.861 1312.97 980.16 1312.96 980.16 1318.31Z" fill="white"/>
<path d="M839.238 1320.8C837.15 1320.8 835.388 1322.69 835.388 1324.94V1354.82C835.388 1357.06 837.157 1358.97 839.238 1358.97C841.326 1358.97 843.088 1357.07 843.088 1354.82V1324.94C843.088 1322.7 841.319 1320.8 839.238 1320.8Z" fill="white"/>
<path d="M737.59 1239.48C735.501 1239.48 733.739 1241.37 733.739 1243.62V1271.84C733.739 1274.08 735.509 1275.99 737.59 1275.99C739.678 1275.99 741.44 1274.09 741.44 1271.84V1243.62C741.44 1241.38 739.67 1239.48 737.59 1239.48Z" fill="white"/>
<path d="M725.268 1400.46C723.183 1400.56 721.418 1402.28 721.418 1404.61V1429.5C721.418 1431.67 723.189 1433.75 725.268 1433.65C727.354 1433.55 729.119 1431.83 729.119 1429.5V1404.61C729.119 1402.44 727.347 1400.36 725.268 1400.46Z" fill="white"/>
<path d="M795.345 1487.59V1524.1C795.345 1529.44 803.045 1529.45 803.045 1524.1V1487.59C803.045 1482.25 795.345 1482.24 795.345 1487.59Z" fill="white"/>
<path d="M920.865 1431.99C918.777 1431.99 917.015 1433.89 917.015 1436.14V1466.01C917.015 1468.25 918.784 1470.16 920.865 1470.16C922.953 1470.16 924.715 1468.26 924.715 1466.01V1436.14C924.715 1433.9 922.946 1431.99 920.865 1431.99Z" fill="white"/>
<path d="M1001.72 1509.16V1550.65C1001.72 1555.99 1009.42 1556 1009.42 1550.65V1509.16C1009.42 1503.82 1001.72 1503.81 1001.72 1509.16Z" fill="white"/>
<path d="M884.672 1525.76V1557.29C884.672 1562.63 892.373 1562.64 892.373 1557.29V1525.76C892.373 1520.42 884.672 1520.41 884.672 1525.76Z" fill="white"/>
<path d="M1024.82 1434.48V1466.01C1024.82 1471.35 1032.52 1471.36 1032.52 1466.01V1434.48C1032.52 1429.14 1024.82 1429.13 1024.82 1434.48Z" fill="white"/>
<path d="M1577.73 1129.11V1172.26C1577.73 1177.6 1585.43 1177.61 1585.43 1172.26V1129.11C1585.43 1123.77 1577.73 1123.76 1577.73 1129.11Z" fill="white"/>
<path d="M1550.01 976.429V1017.92C1550.01 1023.26 1557.71 1023.27 1557.71 1017.92V976.429C1557.71 971.09 1550.01 971.082 1550.01 976.429Z" fill="white"/>
<path d="M1513.05 813.788V863.576C1513.05 868.915 1520.75 868.924 1520.75 863.576V813.788C1520.75 808.449 1513.05 808.44 1513.05 813.788Z" fill="white"/>
<path d="M1674.76 1037.83V1080.98C1674.76 1086.32 1682.46 1086.33 1682.46 1080.98V1037.83C1682.46 1032.49 1674.76 1032.49 1674.76 1037.83Z" fill="white"/>
<path d="M1620.86 873.534V915.024C1620.86 920.363 1628.56 920.373 1628.56 915.024V873.534C1628.56 868.195 1620.86 868.186 1620.86 873.534Z" fill="white"/>
<path d="M1687.08 1168.94V1208.77C1687.08 1214.11 1694.78 1214.12 1694.78 1208.77V1168.94C1694.78 1163.6 1687.08 1163.6 1687.08 1168.94Z" fill="white"/>
<path d="M1491.48 1142.39V1175.58C1491.48 1180.92 1499.19 1180.93 1499.19 1175.58V1142.39C1499.19 1137.05 1491.48 1137.04 1491.48 1142.39Z" fill="white"/>
<path d="M1793.76 1142.78C1793.1 1142.05 1792 1141.51 1791.04 1141.56C1790.05 1141.61 1789.01 1141.96 1788.32 1142.78C1787.63 1143.59 1787.19 1144.58 1787.19 1145.71V1154.01C1787.19 1155.07 1787.62 1156.19 1788.32 1156.94C1788.99 1157.66 1790.08 1158.2 1791.04 1158.16C1792.04 1158.11 1793.07 1157.76 1793.76 1156.94C1794.46 1156.13 1794.89 1155.13 1794.89 1154.01V1145.71C1794.89 1144.64 1794.46 1143.53 1793.76 1142.78Z" fill="white"/>
<path d="M1740.99 986.386V1027.88C1740.99 1033.22 1748.69 1033.23 1748.69 1027.88V986.386C1748.69 981.047 1740.99 981.039 1740.99 986.386Z" fill="white"/>
<path d="M1836.47 1280.14V1331.58C1836.47 1336.92 1844.18 1336.93 1844.18 1331.58V1280.14C1844.18 1274.8 1836.47 1274.79 1836.47 1280.14Z" fill="white"/>
<path d="M1790.27 1431.16V1479.29C1790.27 1484.63 1797.97 1484.64 1797.97 1479.29V1431.16C1797.97 1425.82 1790.27 1425.81 1790.27 1431.16Z" fill="white"/>
<path d="M1860.35 1509.99C1858.26 1509.99 1856.5 1511.89 1856.5 1514.14V1542.35C1856.5 1544.59 1858.27 1546.5 1860.35 1546.5C1862.43 1546.5 1864.2 1544.6 1864.2 1542.35V1514.14C1864.2 1511.9 1862.43 1509.99 1860.35 1509.99Z" fill="white"/>
</g>
<path d="M1213.64 1119.44C1211.73 1122.19 1189.45 1209.99 1189.45 1209.99L1279.21 1205.87L1213.64 1119.44Z" fill="#02173B"/>
<path d="M1763.84 1343.93L1705.87 1562.14L1306.08 1550.36L1315.26 1510.81C1320.5 1497 1365.97 1298 1387.11 1204.98C1390.27 1191.06 1398.53 1179.88 1409.25 1173.22C1449.28 1181.61 1510.59 1193.35 1569.12 1200.08C1603.64 1204.05 1642.05 1207.49 1677.35 1210.29C1738.99 1215.17 1780.86 1279.91 1763.84 1343.93Z" fill="#246D5C"/>
<path d="M1797.04 1338.28L1737.33 1563.07L1705.87 1562.14L1763.84 1343.93C1780.86 1279.91 1738.99 1215.17 1677.34 1210.29C1642.05 1207.49 1603.64 1204.04 1569.11 1200.07C1510.59 1193.35 1449.28 1181.61 1409.25 1173.22C1418.71 1167.33 1430.12 1164.98 1441.64 1167.41C1481.66 1175.81 1543.39 1187.66 1602.31 1194.43C1636.84 1198.39 1675.25 1201.84 1710.56 1204.64C1772.19 1209.52 1814.06 1274.26 1797.04 1338.28Z" fill="#96BFB4"/>
<path d="M1552.51 1301.3C1558.78 1301.3 1563.87 1295.82 1563.87 1289.06C1563.87 1282.3 1558.78 1276.82 1552.51 1276.82C1546.23 1276.82 1541.15 1282.3 1541.15 1289.06C1541.15 1295.82 1546.23 1301.3 1552.51 1301.3Z" fill="#28170E"/>
<path d="M1654.74 1316.37C1661.02 1316.37 1666.1 1310.89 1666.1 1304.13C1666.1 1297.36 1661.02 1291.88 1654.74 1291.88C1648.47 1291.88 1643.38 1297.36 1643.38 1304.13C1643.38 1310.89 1648.47 1316.37 1654.74 1316.37Z" fill="#28170E"/>
<path d="M1593.58 1397.35C1599.85 1397.35 1604.94 1391.87 1604.94 1385.11C1604.94 1378.34 1599.85 1372.86 1593.58 1372.86C1587.3 1372.86 1582.22 1378.34 1582.22 1385.11C1582.22 1391.87 1587.3 1397.35 1593.58 1397.35Z" fill="#28170E"/>
<path d="M1628.53 1493.39C1634.8 1493.39 1639.89 1487.91 1639.89 1481.15C1639.89 1474.39 1634.8 1468.91 1628.53 1468.91C1622.26 1468.91 1617.17 1474.39 1617.17 1481.15C1617.17 1487.91 1622.26 1493.39 1628.53 1493.39Z" fill="#28170E"/>
<path d="M1567.34 1207.54C1560.35 1222.38 1556.09 1238.65 1554.85 1255.24C1554.5 1259.91 1554.4 1264.6 1554.54 1269.28C1554.56 1270.19 1555.87 1270.19 1555.85 1269.28C1555.38 1252.89 1557.91 1236.46 1563.23 1221.09C1564.75 1216.71 1566.5 1212.43 1568.47 1208.26C1568.85 1207.44 1567.72 1206.73 1567.34 1207.54Z" fill="#28170E"/>
<path d="M1676.35 1220.13C1669.99 1234.39 1664.73 1249.22 1660.66 1264.43C1659.5 1268.77 1658.44 1273.14 1657.47 1277.54C1657.28 1278.42 1658.54 1278.8 1658.74 1277.91C1662.11 1262.58 1666.66 1247.55 1672.36 1233.04C1673.97 1228.93 1675.68 1224.87 1677.48 1220.84C1677.84 1220.03 1676.71 1219.31 1676.35 1220.13Z" fill="#28170E"/>
<path d="M1719.58 1312.88C1706.06 1310.18 1692.42 1308.16 1678.72 1306.84C1674.82 1306.47 1670.91 1306.15 1667 1305.88C1666.16 1305.83 1666.16 1307.24 1667 1307.3C1680.66 1308.22 1694.28 1309.82 1707.8 1312.12C1711.62 1312.78 1715.43 1313.48 1719.23 1314.24C1720.06 1314.4 1720.41 1313.04 1719.58 1312.88Z" fill="#28170E"/>
<path d="M1647.45 1313.94C1639.48 1321.07 1631.54 1328.27 1624.16 1336.11C1616.92 1343.81 1610.19 1352.17 1604.86 1361.54C1601.87 1366.8 1599.35 1372.36 1597.43 1378.18C1597.15 1379.03 1598.41 1379.4 1598.69 1378.55C1602.09 1368.29 1607.42 1358.91 1613.76 1350.47C1620.17 1341.93 1627.54 1334.28 1635.18 1327.02C1639.51 1322.91 1643.94 1318.92 1648.37 1314.94C1649.02 1314.36 1648.09 1313.36 1647.45 1313.94Z" fill="#28170E"/>
<path d="M1583.08 1362.88C1573.75 1347.41 1566.27 1330.67 1560.88 1313.15C1559.37 1308.23 1558.02 1303.25 1556.84 1298.23C1556.63 1297.35 1555.37 1297.72 1555.57 1298.61C1559.8 1316.55 1566.16 1333.91 1574.46 1350.13C1576.8 1354.71 1579.3 1359.2 1581.95 1363.59C1582.41 1364.36 1583.54 1363.65 1583.08 1362.88Z" fill="#28170E"/>
<path d="M1586.17 1395.95C1576.52 1408.11 1567.85 1421.16 1560.29 1434.92C1558.17 1438.79 1556.13 1442.71 1554.19 1446.68C1553.79 1447.49 1554.92 1448.2 1555.32 1447.4C1562.2 1433.36 1570.19 1419.95 1579.2 1407.4C1581.75 1403.84 1584.39 1400.36 1587.09 1396.95C1587.64 1396.26 1586.72 1395.26 1586.17 1395.95Z" fill="#28170E"/>
<path d="M1615.54 1464.11C1607.62 1448.06 1602.17 1430.64 1599.44 1412.71C1598.67 1407.62 1598.12 1402.49 1597.79 1397.34C1597.74 1396.44 1596.42 1396.43 1596.48 1397.34C1597.66 1415.7 1601.63 1433.82 1608.23 1450.79C1610.09 1455.57 1612.15 1460.25 1614.41 1464.82C1614.8 1465.62 1615.93 1464.91 1615.54 1464.11Z" fill="#28170E"/>
<path d="M1621.11 1495.16C1617.46 1506.86 1614.4 1518.77 1611.97 1530.82C1611.79 1531.71 1613.05 1532.09 1613.23 1531.2C1615.66 1519.14 1618.72 1507.23 1622.38 1495.54C1622.65 1494.68 1621.38 1494.31 1621.11 1495.16Z" fill="#28170E"/>
<path d="M1677.44 1486.77C1665.17 1488.3 1652.71 1487.44 1640.73 1484.21C1639.91 1483.99 1639.56 1485.35 1640.38 1485.57C1652.47 1488.83 1665.06 1489.73 1677.44 1488.18C1678.26 1488.08 1678.28 1486.67 1677.44 1486.77Z" fill="#28170E"/>
<path d="M1541.24 1286.73C1531.93 1283.37 1522.13 1281.64 1512.31 1281.63C1511.47 1281.63 1511.46 1283.04 1512.31 1283.04C1522.03 1283.05 1531.68 1284.76 1540.9 1288.1C1541.7 1288.39 1542.04 1287.02 1541.24 1286.73Z" fill="#28170E"/>
<path d="M1470.61 1183.89C1465.44 1190.76 1462.38 1199.25 1461.91 1208.08C1461.86 1208.99 1463.17 1208.99 1463.22 1208.08C1463.67 1199.65 1466.6 1191.45 1471.53 1184.89C1472.06 1184.19 1471.14 1183.18 1470.61 1183.89Z" fill="#28170E"/>
<path d="M1414.44 1204.31C1414.44 1204.31 1470.36 1194.16 1508.81 1292.46C1547.26 1390.76 1562.99 1361.57 1558.62 1402.06C1554.25 1442.55 1556 1451.96 1568.23 1472.68C1580.47 1493.4 1583.57 1500.07 1584.44 1502.89C1585.32 1505.72 1606.68 1518.82 1611.93 1547.07C1617.17 1575.32 1555.13 1556.49 1555.13 1556.49L1456.38 1370.04L1414.44 1204.31Z" fill="#28170E"/>
<path d="M1360.48 1185.48L1425.46 1197.82C1447.69 1202.04 1466.93 1216.96 1477.63 1238.38C1489.59 1262.33 1504.47 1294.83 1512.09 1322.02C1526.07 1371.92 1547.48 1369.1 1543.99 1399.23C1540.49 1429.36 1537.64 1435.48 1552.29 1457.61C1566.93 1479.74 1575.44 1522.11 1575.44 1522.11L1529.13 1589.91L1214.98 1531.06L1167.36 1432.19L1224.59 1215.14L1360.48 1185.48Z" fill="#D81D50"/>
<path d="M1320.66 1200.89C1319.19 1201.65 1317.63 1202.31 1316.01 1202.91C1315.88 1202.97 1315.75 1203.02 1315.61 1203.05C1313.99 1203.65 1312.29 1204.15 1310.51 1204.56C1308.48 1205.06 1306.36 1205.44 1304.11 1205.72C1255.6 1211.74 1210.16 1185.96 1188.54 1122.98C1179.4 1096.39 1177.62 1069.27 1182.06 1045.44C1188.14 1012.84 1205.87 986.404 1232.35 975.832C1235.36 974.629 1238.44 973.703 1241.53 973.054C1254.45 970.307 1267.89 972.267 1280.62 978.101C1305.61 989.598 1327.94 1016.11 1338.71 1051.72C1341.09 1059.55 1342.9 1067.82 1344.06 1076.46C1345.04 1083.93 1345.95 1091.28 1346.65 1098.44C1347.59 1107.96 1348.24 1117.18 1348.44 1125.94C1348.44 1126.05 1348.44 1126.24 1348.45 1126.51C1348.47 1127.05 1348.47 1127.58 1348.48 1128.1C1349.02 1162.71 1342.52 1189.87 1320.66 1200.89Z" fill="#F9AD8A"/>
<path d="M1302.8 1229.74L1255.46 1227.27L1221.53 1225.5L1219.97 1195.88C1223.26 1203.2 1231.63 1215.3 1251.55 1218.27C1243.78 1196.56 1248.04 1177.63 1248.04 1177.63L1221.82 1173.24C1221.82 1173.24 1220.66 1174.44 1219 1177.28L1217.6 1150.64L1298.87 1193.01L1300.99 1212.86L1302.8 1229.74Z" fill="#F9AD8A"/>
<path d="M1266.16 1046.73C1284.94 1026.84 1294.17 990.483 1302.76 997C1324 1013.11 1338.62 1051.77 1338.62 1051.77L1338.72 1051.72C1322.45 997.938 1279.8 964.928 1241.52 973.05C1220.05 994.039 1194.82 1018.67 1193.57 1019.75C1192.97 1020.27 1188.4 1030.65 1182.07 1045.44C1177.62 1069.27 1179.39 1096.39 1188.53 1122.98C1196.21 1145.34 1206.24 1162.25 1218.99 1175.47C1218.79 1175.8 1218.99 1176.3 1219 1177.28L1219.97 1195.88C1223.26 1203.2 1231.63 1215.3 1251.55 1218.27C1248.73 1210.39 1247.5 1202.89 1247.07 1196.52C1264.59 1205.26 1284.09 1208.21 1304.11 1205.72C1308.46 1205.19 1312.42 1204.24 1316.01 1202.91C1314.6 1202.9 1313.12 1202.88 1311.54 1202.9C1281.41 1203.06 1261 1194.04 1247.5 1180.84C1246.93 1180.39 1245.89 1179.36 1245.89 1179.36L1243.8 1176.92C1221.81 1151.74 1221.5 1132.92 1226.39 1113C1234.26 1081 1249.36 1064.53 1266.16 1046.73Z" fill="#F0655E"/>
<path d="M1242.8 1413.67C1242.8 1416.81 1234.06 1470.79 1257.95 1483.35C1281.83 1495.91 1296.39 1493.39 1320.28 1500.3C1344.17 1507.21 1339.5 1477.7 1373.88 1498.42C1408.25 1519.13 1421.07 1509.09 1429.22 1477.7C1437.38 1446.31 1411.74 1428.73 1426.31 1392.32C1440.87 1355.91 1425.73 1269.29 1430.39 1248.57C1430.39 1248.57 1439.71 1316.99 1450.2 1357.17C1460.68 1397.35 1440.87 1463.89 1467.67 1467.66C1494.47 1471.42 1507.29 1465.14 1529.42 1463.89C1551.56 1462.63 1566.13 1471.42 1562.05 1484.6C1557.97 1497.79 1532.92 1482.09 1517.19 1501.55C1501.46 1521.01 1534.67 1573.75 1511.95 1573.75C1489.23 1573.75 1443.2 1559.31 1443.2 1559.31L1209.6 1534.2L1242.8 1413.67Z" fill="#B51C4B"/>
<path d="M1288.82 1435.64C1270.77 1428.1 1263.77 1372.24 1253.87 1355.29C1243.96 1338.34 1206.09 1256.11 1208.43 1220.32C1210 1196.18 1215.54 1183.18 1219 1177.28L1219.97 1195.88C1223.26 1203.2 1231.63 1215.3 1251.55 1218.27C1252.61 1221.22 1253.9 1224.24 1255.46 1227.27C1259.85 1235.85 1266.39 1244.53 1276.01 1252.34C1279.45 1255.13 1282.5 1258.98 1285.23 1263.68C1312.5 1310.74 1305.24 1442.49 1288.82 1435.64Z" fill="#B51C4B"/>
<path opacity="0.39" d="M1252 1149.97C1260.83 1149.97 1267.99 1142.25 1267.99 1132.74C1267.99 1123.23 1260.83 1115.51 1252 1115.51C1243.17 1115.51 1236.01 1123.23 1236.01 1132.74C1236.01 1142.25 1243.17 1149.97 1252 1149.97Z" fill="#F0655E"/>
<path opacity="0.39" d="M1349.83 1125.37C1344.34 1123.77 1340.24 1117.62 1340.24 1110.23C1340.24 1103.59 1343.57 1097.91 1348.26 1095.69C1349.13 1106.02 1349.71 1115.96 1349.83 1125.37Z" fill="#F0655E"/>
<path d="M1274.95 1098.43C1279.23 1098.43 1282.7 1094.69 1282.7 1090.07C1282.7 1085.45 1279.23 1081.71 1274.95 1081.71C1270.66 1081.71 1267.19 1085.45 1267.19 1090.07C1267.19 1094.69 1270.66 1098.43 1274.95 1098.43Z" fill="#28170E"/>
<path d="M1329.51 1086.61C1333.32 1086.61 1336.41 1083.28 1336.41 1079.17C1336.41 1075.07 1333.32 1071.74 1329.51 1071.74C1325.7 1071.74 1322.61 1075.07 1322.61 1079.17C1322.61 1083.28 1325.7 1086.61 1329.51 1086.61Z" fill="#28170E"/>
<path d="M1317.08 1225.08C1309.97 1234.9 1294.45 1242.77 1283.98 1260.06C1281.98 1263.38 1275.83 1262.76 1274.46 1266.09C1261.08 1268.16 1247.19 1266.52 1235.52 1257.04C1200.13 1228.33 1218.03 1190.19 1218.03 1190.19C1218.03 1190.19 1218.48 1192.53 1219.97 1195.88C1223.26 1203.2 1231.63 1215.3 1251.55 1218.27C1253.91 1218.61 1256.43 1218.83 1259.12 1218.9C1286.87 1219.64 1297.59 1214.99 1301 1212.86C1301.99 1212.25 1302.37 1211.84 1302.37 1211.84L1317.08 1225.08Z" fill="#D4DDDC"/>
<path d="M1532.92 1475.19C1472.33 1479.58 1453.69 1585.05 1459.52 1541.1C1465.25 1497.85 1513.88 1469.19 1515.4 1468.3C1514.35 1468.58 1494.39 1474 1470.01 1476.45C1460.93 1477.35 1456.45 1473.07 1454.41 1467.24C1454.87 1467.26 1455.33 1466.88 1455.14 1466.3C1451.51 1455.28 1450.98 1443.56 1451.66 1431.98C1452.34 1420.2 1454.15 1408.53 1455.16 1396.78C1455.66 1390.9 1455.97 1384.99 1455.81 1379.08C1455.66 1373.32 1455.01 1367.6 1453.98 1361.95C1451.89 1350.55 1448.37 1339.54 1445.21 1328.45C1442.07 1317.47 1439.22 1306.27 1438.58 1294.76C1438.5 1293.31 1438.45 1291.85 1438.44 1290.4C1438.44 1289.41 1437 1289.4 1437.01 1290.4C1437.1 1301.91 1439.52 1313.18 1442.51 1324.16C1445.57 1335.36 1449.21 1346.38 1451.67 1357.76C1452.9 1363.43 1453.82 1369.18 1454.2 1374.99C1454.58 1380.87 1454.44 1386.77 1454.04 1392.64C1453.24 1404.55 1451.39 1416.34 1450.48 1428.24C1449.59 1439.68 1449.61 1451.38 1452.51 1462.51C1452.65 1463.03 1452.82 1463.54 1452.97 1464.05L1445.53 1551.78L1442.03 1578.77L1478.9 1585.77C1470.21 1578.64 1465.65 1565.93 1472.91 1543.61C1492.72 1482.72 1532.92 1475.19 1532.92 1475.19Z" fill="#9B1545"/>
<path d="M1567.84 1494.56C1566.91 1493.27 1565.89 1492.1 1564.8 1491.04C1564.79 1490.88 1564.8 1490.72 1564.8 1490.57C1564.77 1489.9 1564.07 1489.73 1563.7 1490.04C1558.84 1485.84 1552.67 1483.61 1546.43 1482.86C1537.8 1481.82 1528.87 1483.5 1520.8 1486.84C1512.49 1490.27 1504.86 1495.6 1498.62 1502.44C1492.2 1509.49 1487.39 1518.13 1484.5 1527.49C1481.56 1537.05 1480.61 1547.33 1481.85 1557.32C1482 1558.53 1482.18 1559.73 1482.4 1560.93C1482.56 1561.82 1483.82 1561.44 1483.66 1560.55C1481.97 1550.97 1482.38 1541.01 1484.73 1531.6C1487.06 1522.26 1491.29 1513.46 1497.21 1506.17C1497.62 1505.65 1498.07 1505.16 1498.5 1504.66C1503.03 1508.74 1507.57 1512.83 1512.1 1516.92C1512.74 1517.5 1513.67 1516.5 1513.03 1515.92C1508.48 1511.82 1503.93 1507.72 1499.39 1503.62C1504.64 1497.81 1510.91 1493.1 1517.76 1489.73C1518.14 1489.54 1518.53 1489.38 1518.91 1489.2C1520.46 1491.87 1521.65 1494.76 1522.42 1497.81C1522.64 1498.68 1523.9 1498.31 1523.68 1497.43C1522.9 1494.33 1521.69 1491.37 1520.12 1488.64C1526.13 1486 1532.6 1484.36 1539.09 1484.04C1539.84 1486.29 1540.09 1488.66 1539.8 1491.03C1539.76 1491.41 1540.14 1491.74 1540.46 1491.74C1540.85 1491.74 1541.07 1491.41 1541.12 1491.03C1541.41 1488.67 1541.16 1486.25 1540.45 1484C1541.15 1483.99 1541.85 1483.97 1542.55 1483.99C1549.96 1484.19 1557.78 1486.32 1563.49 1491.62C1563.49 1497.58 1561.67 1503.38 1558.29 1508.11C1557.77 1508.83 1558.91 1509.53 1559.42 1508.82C1562.68 1504.27 1564.56 1498.67 1564.79 1492.93C1565.48 1493.67 1566.12 1494.45 1566.71 1495.28C1567.21 1495.99 1568.35 1495.29 1567.84 1494.56Z" fill="#9B1545"/>
<path d="M1512.79 1538.1C1504.75 1532.88 1496.49 1528.07 1488.04 1523.67C1487.28 1523.27 1486.62 1524.49 1487.38 1524.89C1495.83 1529.29 1504.09 1534.1 1512.13 1539.32C1512.86 1539.79 1513.52 1538.57 1512.79 1538.1Z" fill="#9B1545"/>
<path d="M1280.18 1255C1279.94 1255.37 1279.72 1255.74 1279.5 1256.11C1279.29 1256.46 1279.08 1256.8 1278.88 1257.15C1278.83 1247.17 1277.92 1237.18 1276.18 1227.36C1276.02 1226.47 1277.28 1226.11 1277.44 1227C1279.09 1236.22 1280.01 1245.6 1280.18 1255Z" fill="#96BFB4"/>
<path d="M1275.21 1264.34C1275 1264.82 1274.79 1265.3 1274.58 1265.8C1268.77 1266.21 1262.93 1266.01 1257.15 1265.56C1255.99 1265.47 1254.84 1265.36 1253.69 1265.23C1253.4 1265.78 1252.53 1265.73 1252.47 1265.09C1246.75 1264.41 1241.08 1263.25 1235.65 1261.18C1224.15 1256.8 1213.51 1247.8 1209.8 1234.86C1209.55 1233.99 1210.81 1233.62 1211.06 1234.48C1211.09 1234.58 1211.13 1234.65 1211.14 1234.73C1214.3 1226.27 1217.85 1217.97 1221.8 1209.89C1222.19 1209.08 1223.33 1209.81 1222.94 1210.61C1218.86 1218.93 1215.2 1227.47 1211.99 1236.2C1211.94 1236.36 1211.85 1236.46 1211.74 1236.53C1213.9 1242.52 1217.7 1247.67 1222.33 1251.71C1224.13 1253.3 1226.04 1254.67 1228.02 1255.88C1228.66 1244.26 1231.08 1232.79 1235.17 1222.01C1235.48 1221.18 1236.74 1221.54 1236.42 1222.39C1232.36 1233.11 1229.93 1244.52 1229.32 1256.09C1229.31 1256.29 1229.23 1256.43 1229.14 1256.54C1236.3 1260.68 1244.43 1262.7 1252.57 1263.69C1253.99 1249.91 1254.9 1236.08 1255.31 1222.22C1255.34 1221.3 1256.65 1221.3 1256.62 1222.22C1256.22 1236.12 1255.29 1250 1253.87 1263.83C1256.02 1264.07 1258.16 1264.23 1260.28 1264.35C1265.17 1264.61 1270.22 1264.74 1275.21 1264.34Z" fill="#96BFB4"/>
<path d="M1311.54 1083.51L1322.47 1121.58C1323.68 1125.8 1321.54 1130.3 1317.64 1131.7L1316.53 1132.1C1313.5 1133.18 1310.17 1132.22 1308.05 1129.65" stroke="black" stroke-width="0.934" stroke-miterlimit="10" stroke-linecap="round"/>
<path d="M1237.26 914.288C1237.26 914.288 1149.01 910.521 1134.15 982.086C1119.29 1053.65 1130.65 1031.05 1095.7 1097.91C1060.75 1164.76 1137.65 1147.81 1095.7 1223.14C1053.75 1298.48 1031.91 1254.22 1042.39 1332.37C1052.88 1410.53 999.576 1395.46 1012.68 1450.08C1012.68 1450.08 1030.16 1433.13 1050.26 1448.19C1050.26 1448.19 1041.52 1430.3 1065.12 1410.53C1065.12 1410.53 1045.38 1443.12 1066.86 1458.55C1069.49 1460.44 1086.96 1463.26 1098.32 1485.86C1109.68 1508.46 1208.43 1525.41 1244.26 1507.52C1244.26 1507.52 1200.56 1492.45 1229.4 1456.67C1258.24 1420.89 1279.21 1416.18 1253.87 1378.51C1228.53 1340.85 1246 1353.09 1253 1299.42C1259.99 1245.74 1233.08 1262.11 1221.19 1205.9C1209.3 1149.7 1196.67 1129.53 1209.77 1108.81C1222.88 1088.1 1290.19 1041.14 1288.44 977.109L1237.26 914.288Z" fill="#02173B"/>
<path d="M1446.11 1239.16C1446.11 1239.16 1428.64 1214.66 1422.82 1260.5C1416.98 1306.32 1419.89 1330.81 1398.92 1357.8C1398.92 1357.8 1405.92 1343.35 1390.77 1332.05C1390.77 1332.05 1379.7 1327.66 1389.6 1357.8C1399.51 1387.93 1415.82 1411.79 1394.84 1455.11L1321.45 1492.75C1321.95 1491.97 1341.65 1460.73 1331.84 1429.58C1331.81 1428.38 1331.35 1428.1 1331.35 1428.1C1331.52 1428.59 1331.68 1429.09 1331.84 1429.58C1331.91 1431.93 1330.33 1437.8 1320.27 1451.96C1305.33 1473.03 1310.25 1489.2 1310.36 1489.61C1309.72 1489.05 1292.01 1473.72 1276.01 1496.53C1276.01 1496.53 1255.61 1489.63 1280.09 1463.89C1304.54 1438.16 1313.29 1419.32 1310.38 1386.67C1307.47 1354.03 1239.31 1311.97 1281.25 1257.36C1303.04 1229 1309.58 1216.39 1310.51 1204.57C1312.28 1204.14 1313.98 1203.65 1315.61 1203.06C1315.75 1203.01 1315.88 1202.97 1316.02 1202.91C1341.6 1193.51 1349.07 1165.05 1348.48 1128.11C1348.47 1127.39 1348.46 1126.67 1348.43 1125.94C1348.23 1117.18 1347.59 1107.97 1346.65 1098.43C1345.94 1091.27 1345.05 1083.93 1344.05 1076.46C1342.9 1067.81 1341.09 1059.55 1338.72 1051.72C1327.94 1016.12 1305.61 989.606 1280.62 978.108C1217.38 940.791 1237.26 914.293 1237.26 914.293C1237.26 914.293 1275.42 898.912 1309.79 934.69C1344.17 970.467 1384.36 1037.64 1362.81 1123.65C1362.81 1123.65 1346.49 1149.38 1380.87 1170.1C1415.24 1190.81 1441.46 1216.56 1446.11 1239.16Z" fill="#02173B"/>
<path d="M1331.84 1429.58C1331.68 1429.09 1331.52 1428.6 1331.35 1428.1C1331.35 1428.1 1331.81 1428.38 1331.84 1429.58Z" fill="#5A4C44"/>
<path d="M1508.59 1556.24C1500.09 1555.05 1491.7 1553.07 1483.5 1550.35C1482.7 1550.08 1482.35 1551.45 1483.16 1551.71C1491.46 1554.47 1499.97 1556.45 1508.59 1557.66C1509.43 1557.77 1509.42 1556.36 1508.59 1556.24Z" fill="#969FEA"/>
<path d="M1185.31 1171.57C1185.31 1171.57 1197.73 1205.53 1192.95 1247.71C1188.18 1289.9 1191.04 1322.83 1214.91 1356.78C1238.79 1390.74 1208.23 1474.08 1208.23 1474.08C1208.23 1474.08 1224.46 1422.63 1208.23 1400C1192 1377.36 1155.71 1320.77 1165.26 1273.44C1174.81 1226.11 1166.22 1203.47 1166.22 1203.47L1185.31 1171.57Z" fill="#0E2644"/>
<path d="M1153.8 1108.81C1153.8 1108.81 1197.73 1083.09 1213 1034.73C1228.28 986.368 1228.28 972.992 1247.38 957.557C1247.38 957.557 1235.92 959.615 1232.1 950.355C1228.28 941.094 1231.15 941.094 1224.46 930.804C1217.78 920.515 1184.36 974.019 1174.81 1015.18C1165.26 1056.33 1173.85 1062.51 1153.8 1108.81Z" fill="#0E2644"/>
<path d="M1253.11 924.633C1253.11 924.633 1270.3 933.893 1274.11 946.241C1277.93 958.588 1289.39 961.675 1297.99 968.878C1306.58 976.08 1327.59 985.341 1340.96 1011.06C1354.32 1036.79 1344.77 1012.09 1344.77 1012.09C1344.77 1012.09 1337.14 963.733 1315.17 948.299C1293.21 932.863 1272.21 917.43 1253.11 924.633Z" fill="#183351"/>
<path d="M1151.89 1021.35C1151.89 1021.35 1109.88 1087.2 1109.88 1114.98C1109.88 1142.77 1126.11 1175.69 1126.11 1175.69C1126.11 1175.69 1112.74 1122.19 1128.02 1091.32C1143.3 1060.45 1151.89 1021.35 1151.89 1021.35Z" fill="#0E2644"/>
<path d="M1203.46 1204.5C1203.46 1207.59 1233.47 1232.45 1235.65 1261.18C1237.83 1289.9 1223.51 1316.66 1231.15 1334.15C1231.15 1334.15 1218.73 1315.63 1222.55 1287.85C1226.37 1260.06 1203.46 1204.5 1203.46 1204.5Z" fill="#183351"/>
<path d="M1114.65 1247.72C1114.65 1247.72 1063.09 1271.38 1064.05 1305.34C1065 1339.29 1073.59 1357.81 1054.5 1386.62C1054.5 1386.62 1077.41 1360.9 1084.1 1334.15C1090.78 1307.4 1098.42 1300.19 1098.42 1300.19C1098.42 1300.19 1087.92 1336.2 1087.92 1358.84C1087.92 1381.47 1051.63 1407.2 1051.63 1407.2C1051.63 1407.2 1082.19 1400 1099.37 1380.45C1116.56 1360.9 1128.02 1318.71 1128.02 1318.71L1114.65 1247.72Z" fill="#0E2644"/>
<path d="M1347.64 1246.69C1341.91 1246.69 1310.4 1289.9 1338.09 1343.41C1365.78 1396.91 1374.38 1406.17 1357.19 1439.1C1357.19 1439.1 1384.88 1410.29 1371.51 1371.19C1358.14 1332.09 1367.69 1269.32 1373.42 1265.21C1379.15 1261.09 1347.64 1246.69 1347.64 1246.69Z" fill="#0E2644"/>
<path d="M1403.02 1354.72C1403.02 1354.72 1410.66 1282.7 1387.74 1256.98C1364.82 1231.25 1350.5 1192.15 1350.5 1192.15C1350.5 1192.15 1342.86 1214.8 1361.01 1239.49C1379.09 1264.11 1393.38 1293.82 1395.36 1336.82C1394.86 1331.34 1388.58 1272.19 1347.63 1246.68C1323.89 1231.9 1319.68 1213.98 1320.66 1200.89C1342.52 1189.87 1349.02 1162.7 1348.48 1128.1C1348.46 1127.58 1348.46 1127.05 1348.45 1126.51C1348.64 1132.24 1350.9 1173.96 1378.2 1201.41C1406.85 1230.23 1425.94 1273.44 1403.02 1354.72Z" fill="#183351"/>
<path d="M1253.51 983.308C1252.26 1001.84 1245.61 1019.44 1236.04 1034.75C1231.24 1042.43 1225.71 1049.57 1219.67 1056.16C1213.68 1062.7 1207.01 1068.4 1200.69 1074.57C1193.86 1081.23 1187.48 1088.76 1184.32 1098.26C1184.01 1099.19 1185.39 1099.6 1185.7 1098.67C1188.56 1090.07 1194.24 1083.12 1200.36 1076.99C1206.59 1070.75 1213.31 1065.12 1219.36 1058.67C1231.58 1045.68 1241.93 1030.35 1248.4 1013.14C1251.97 1003.62 1254.25 993.561 1254.95 983.306C1255.01 982.316 1253.58 982.321 1253.51 983.308Z" fill="#183351"/>
<path d="M1256.75 945.742C1250.14 934.553 1241.94 924.504 1232.47 916.035C1231.77 915.404 1230.75 916.491 1231.46 917.127C1240.84 925.515 1248.97 935.441 1255.51 946.522C1256.01 947.357 1257.25 946.583 1256.75 945.742Z" fill="#183351"/>
<path d="M1357.54 1054.37C1356.65 1050.08 1355.43 1045.87 1353.92 1041.79C1353.58 1040.88 1352.2 1041.27 1352.54 1042.2C1357.78 1056.35 1359.31 1072.02 1356.92 1087.04C1356.25 1091.26 1355.27 1095.42 1354 1099.48C1353.7 1100.42 1355.09 1100.83 1355.38 1099.89C1359.95 1085.29 1360.66 1069.39 1357.54 1054.37Z" fill="#183351"/>
<path d="M1196.72 935.925C1191.48 939.055 1186.44 942.56 1181.65 946.43C1177.41 949.852 1173.31 953.522 1169.79 957.804C1166.51 961.797 1163.71 966.334 1162.16 971.431C1160.3 977.54 1160.96 983.72 1161.5 989.993C1162.05 996.225 1162.15 1003.43 1157.94 1008.34C1157.32 1009.07 1158.33 1010.17 1158.95 1009.44C1167.04 1000 1160.74 986.385 1162.71 975.296C1164.66 964.286 1172.67 955.877 1180.55 949.26C1185.88 944.789 1191.54 940.786 1197.44 937.258C1198.25 936.775 1197.53 935.442 1196.72 935.925Z" fill="#183351"/>
<path d="M1048.46 1385.23C1041.26 1399.17 1028.29 1410.19 1026.86 1427.02C1026.5 1431.28 1027.08 1435.54 1028.77 1439.42C1029.16 1440.32 1030.39 1439.54 1030.01 1438.64C1026.99 1431.71 1028.11 1423.71 1030.75 1416.86C1033.56 1409.59 1038.28 1403.45 1042.66 1397.23C1045.19 1393.63 1047.66 1389.97 1049.7 1386.01C1050.15 1385.14 1048.91 1384.36 1048.46 1385.23Z" fill="#183351"/>
<path d="M1322.44 1348.85C1319.05 1337.7 1314.18 1327.06 1308.09 1317.33C1307.34 1316.14 1306.57 1314.96 1305.79 1313.79C1305.25 1312.99 1304.01 1313.76 1304.55 1314.57C1310.91 1324.04 1316.11 1334.44 1319.83 1345.44C1323.51 1356.33 1325.78 1367.82 1326.1 1379.42C1326.42 1390.9 1324.78 1402.44 1320.88 1413.16C1316.98 1423.87 1310.85 1433.42 1305.45 1443.29C1300.28 1452.75 1295.54 1462.87 1294.59 1473.97C1294.48 1475.35 1294.42 1476.74 1294.42 1478.12C1294.43 1479.12 1295.86 1479.12 1295.86 1478.12C1295.85 1466.7 1300.25 1456.18 1305.42 1446.44C1310.73 1436.43 1316.94 1426.92 1321.21 1416.31C1325.43 1405.83 1327.48 1394.48 1327.57 1383.07C1327.66 1371.47 1325.78 1359.87 1322.44 1348.85Z" fill="#183351"/>
<path d="M1314.76 1245.23C1306.89 1252.23 1300.98 1261.68 1297.82 1272.13C1296.91 1275.15 1296.24 1278.24 1295.81 1281.38C1295.67 1282.35 1297.05 1282.77 1297.19 1281.79C1298.66 1271.07 1303.02 1260.89 1309.65 1252.73C1311.52 1250.42 1313.58 1248.28 1315.77 1246.33C1316.48 1245.69 1315.47 1244.61 1314.76 1245.23Z" fill="#183351"/>
<path d="M1387.25 1416.46C1387.17 1431.29 1383.7 1445.99 1377.17 1459.05C1376.73 1459.92 1377.97 1460.7 1378.41 1459.83C1383.57 1449.5 1386.87 1438.16 1388.12 1426.51C1388.48 1423.17 1388.66 1419.82 1388.68 1416.46C1388.69 1415.47 1387.25 1415.47 1387.25 1416.46Z" fill="#183351"/>
<path d="M1406.17 1203.24C1403.32 1200.81 1400.26 1198.71 1397 1196.99C1396.18 1196.55 1395.45 1197.88 1396.28 1198.32C1407.58 1204.28 1416.56 1214.98 1421.08 1227.63C1422.36 1231.21 1423.28 1234.94 1423.82 1238.74C1423.96 1239.71 1425.34 1239.3 1425.2 1238.33C1423.25 1224.61 1416.24 1211.87 1406.17 1203.24Z" fill="#183351"/>
<path d="M1460.21 1243.14C1453.47 1251.32 1448.11 1260.74 1444.41 1270.92C1443.35 1273.83 1442.44 1276.8 1441.66 1279.81C1441.41 1280.76 1442.8 1281.17 1443.04 1280.22C1446.48 1266.92 1452.72 1254.55 1461.22 1244.23C1461.83 1243.49 1460.82 1242.39 1460.21 1243.14Z" fill="#9B1545"/>
<path d="M1470.97 1231.19C1470.61 1231.1 1470.17 1231.3 1470.09 1231.73C1470.06 1231.87 1470.03 1232 1469.99 1232.14C1469.97 1232.21 1469.95 1232.27 1469.93 1232.34C1469.92 1232.36 1469.91 1232.38 1469.9 1232.41C1469.79 1232.66 1469.67 1232.9 1469.52 1233.13C1469.49 1233.19 1469.35 1233.37 1469.49 1233.18C1469.45 1233.24 1469.41 1233.29 1469.37 1233.35C1469.29 1233.45 1469.2 1233.55 1469.11 1233.64C1469.06 1233.69 1469.01 1233.74 1468.96 1233.78C1468.94 1233.8 1468.91 1233.83 1468.89 1233.85C1468.88 1233.86 1468.85 1233.88 1468.84 1233.89C1468.82 1233.91 1468.79 1233.93 1468.76 1233.95C1468.7 1233.99 1468.64 1234.03 1468.58 1234.07C1468.26 1234.28 1468.11 1234.78 1468.32 1235.13C1468.53 1235.48 1468.96 1235.63 1469.3 1235.41C1470.39 1234.69 1471.21 1233.49 1471.47 1232.14C1471.55 1231.74 1471.36 1231.28 1470.97 1231.19Z" fill="#9B1545"/>
<path d="M1300.01 1218.81C1299.7 1218.57 1299.22 1218.75 1299.03 1219.09C1298.82 1219.48 1298.97 1219.9 1299.29 1220.15C1299.43 1220.25 1299.58 1220.39 1299.75 1220.56C1299.93 1220.73 1300.08 1220.92 1300.24 1221.12C1300.24 1221.13 1300.31 1221.22 1300.27 1221.16C1300.31 1221.22 1300.35 1221.28 1300.39 1221.33C1300.45 1221.44 1300.52 1221.54 1300.58 1221.65C1300.7 1221.87 1300.81 1222.09 1300.91 1222.32C1300.96 1222.43 1301.05 1222.69 1301.11 1222.89C1301.18 1223.13 1301.24 1223.38 1301.28 1223.63C1301.29 1223.7 1301.31 1223.77 1301.31 1223.84C1301.3 1223.76 1301.32 1223.86 1301.32 1223.89C1301.33 1224.01 1301.34 1224.14 1301.35 1224.27C1301.36 1224.54 1301.35 1224.8 1301.32 1225.07C1301.29 1225.49 1301.68 1225.84 1302.04 1225.84C1302.46 1225.84 1302.72 1225.49 1302.76 1225.07C1302.96 1222.63 1301.85 1220.22 1300.01 1218.81Z" fill="#96BFB4"/>
<path d="M1281.51 1215.93C1267.37 1220.69 1251.68 1219.61 1238.15 1213.12C1234.38 1211.32 1230.78 1209.09 1227.43 1206.49C1226.68 1205.91 1225.96 1207.25 1226.71 1207.83C1238.95 1217.31 1254.45 1221.66 1269.44 1220.11C1273.67 1219.68 1277.84 1218.78 1281.89 1217.42C1282.77 1217.12 1282.39 1215.63 1281.51 1215.93Z" fill="#96BFB4"/>
<path d="M1301.45 1210.25C1299.65 1213.17 1296.45 1214.9 1293.21 1214.78C1292.29 1214.75 1292.29 1216.29 1293.21 1216.32C1296.97 1216.46 1300.62 1214.39 1302.69 1211.03C1303.2 1210.2 1301.96 1209.42 1301.45 1210.25Z" fill="#96BFB4"/>
<path d="M1246.01 1083.02C1246.01 1083.02 1261.52 1058.79 1294.75 1067.93" stroke="#06193A" stroke-width="3" stroke-miterlimit="10" stroke-linecap="round"/>
<path d="M1314.53 1067.5C1314.53 1067.5 1323.46 1051.64 1342.32 1062.61" stroke="#06193A" stroke-width="3" stroke-miterlimit="10" stroke-linecap="round"/>
<path d="M1287.67 1148.33C1287.67 1148.33 1299.9 1150.49 1306.8 1148.33C1313.7 1146.16 1314.55 1152.63 1317.75 1148.81C1320.94 1144.99 1322.32 1143.23 1328.42 1142.21C1328.42 1142.21 1316.51 1156.31 1314.67 1157C1312.83 1157.7 1302.35 1152.22 1298.48 1152.93C1294.61 1153.64 1287.67 1148.33 1287.67 1148.33Z" fill="#F0655E"/>
<path d="M1289.54 1149.63C1289.54 1149.63 1307.45 1160.96 1314.67 1159.4C1321.88 1157.84 1325.71 1145.38 1325.71 1145.38C1325.71 1145.38 1328.42 1165.43 1314.67 1169.05C1295.64 1174.05 1289.54 1149.63 1289.54 1149.63Z" fill="#F0655E"/>
<path d="M1204.93 1189.82L1200.13 1184.64L1194.89 1212.89C1194.89 1212.89 1184.83 1211.48 1187.02 1195.47L1181.78 1203.95L1152.06 1243.96L1165.22 1381.22L1167.36 1403.57C1167.36 1403.57 1164.8 1407.35 1159.81 1410.98C1152.99 1415.93 1141.62 1420.59 1125.98 1414.94C1120.25 1412.86 1113.93 1409.4 1107.06 1404.05L1109.69 1227.96L1129.14 1129.66L1129.35 1128.62L1145.08 1125.79L1173.47 1105.07L1197.06 1128.14L1204.06 1154.04L1204.93 1189.82Z" fill="#F9AD8A"/>
<path d="M1195.87 1543.32C1180.41 1554.94 1157.91 1561.86 1135.02 1554.23C1092.65 1540.11 1088.27 1478.91 1093.96 1439.36C1099.63 1399.81 1095.27 1377.68 1106.19 1374.85L1105.75 1381.92C1105.75 1381.92 1106.04 1383.64 1107.34 1385.9C1109.66 1389.97 1115.18 1395.74 1128 1396.19C1130.95 1396.29 1134.29 1396.12 1138.08 1395.57C1167.36 1391.34 1165.6 1383.79 1165.6 1383.79L1165.42 1381.03L1165.17 1377.21C1165.17 1377.21 1172.6 1365.43 1181.78 1400.74C1181.83 1400.96 1181.88 1401.15 1181.95 1401.36C1182.51 1403.57 1183.14 1405.83 1183.81 1408.13C1193.89 1442.76 1213.42 1488.01 1215.86 1509.5C1217.07 1520.12 1209.03 1533.41 1195.87 1543.32Z" fill="#D81D50"/>
<path d="M1138.08 1395.57C1117.9 1398.5 1110.18 1390.9 1107.34 1385.9L1109.68 1227.96L1129.14 1129.66C1135.14 1131.51 1134.67 1142.36 1139.39 1154.51C1144.63 1168.01 1120.17 1223.25 1119 1231.73C1117.84 1240.2 1125.99 1324.63 1128.9 1359.47C1131.82 1394.32 1136.19 1389.29 1136.19 1389.29C1151.83 1392.31 1161.85 1384.44 1165.22 1381.22C1165.29 1381.15 1165.35 1381.1 1165.42 1381.03L1165.6 1383.79C1165.6 1383.79 1167.36 1391.34 1138.08 1395.57Z" fill="#F0655E"/>
<path d="M1152.35 1180.09L1162.55 1168.95L1176.09 1171.93L1181.48 1181.5C1181.48 1181.5 1172.03 1193.27 1181.78 1203.95C1181.78 1203.95 1179.01 1201.59 1171.43 1205.2C1163.86 1208.81 1158.91 1210.23 1158.33 1203.01C1157.74 1195.79 1156.58 1184.64 1152.35 1180.09Z" fill="#F0655E"/>
<path d="M1203.82 1177.47C1203.81 1177.47 1203.81 1177.47 1203.81 1177.47C1203.76 1177.48 1203.69 1177.51 1203.82 1177.47Z" fill="#F0655E"/>
<path d="M1202.36 1178.68C1202.37 1178.65 1202.37 1178.66 1202.36 1178.68C1202.36 1178.68 1202.36 1178.68 1202.36 1178.67C1202.36 1178.67 1202.36 1178.66 1202.37 1178.66C1202.43 1178.51 1202.51 1178.38 1202.59 1178.25C1202.61 1178.23 1202.63 1178.2 1202.65 1178.18C1202.7 1178.12 1202.75 1178.06 1202.81 1178C1202.86 1177.96 1202.91 1177.91 1202.96 1177.86C1202.99 1177.84 1203.02 1177.82 1203.05 1177.8C1203.11 1177.75 1203.17 1177.71 1203.24 1177.67C1203.27 1177.65 1203.31 1177.64 1203.34 1177.62C1203.48 1177.57 1203.61 1177.52 1203.75 1177.49C1203.78 1177.48 1203.82 1177.48 1203.85 1177.47C1203.83 1177.47 1203.83 1177.47 1203.82 1177.48C1203.9 1177.47 1203.98 1177.47 1204.06 1177.47C1204.4 1177.48 1204.73 1177.14 1204.71 1176.76C1204.7 1176.37 1204.43 1176.07 1204.06 1176.06C1203.27 1176.04 1202.52 1176.39 1201.95 1176.95C1200.06 1168.86 1197.73 1159.18 1196.48 1154.98C1194.15 1147.14 1192.4 1137.72 1186.14 1137.72C1179.88 1137.72 1146.96 1138.19 1141.14 1140.23L1188.91 1147.76L1200.13 1184.64L1204.93 1189.82C1204.93 1189.82 1203.82 1184.91 1202.36 1178.68Z" fill="#F0655E"/>
<path d="M1145.95 1125.32L1185.56 1123.75L1204.06 1154.05L1186.29 1119.67L1145.95 1125.32Z" fill="#F0655E"/>
<path d="M1146.38 1149.17L1186.29 1155.61L1193.43 1183.54L1187.02 1195.47C1187.02 1195.47 1183.68 1209.27 1194.89 1212.89C1194.89 1212.89 1188.77 1207.08 1191.82 1197.04C1194.88 1187 1195.76 1182.45 1195.76 1182.45L1186.73 1151.69L1146.38 1149.17Z" fill="#F0655E"/>
<path d="M1153.28 1185.9C1153.2 1185.01 1151.89 1185 1151.97 1185.9C1152.97 1197.04 1152.63 1208.58 1149.14 1219.23C1148.16 1222.23 1146.91 1225.11 1145.41 1227.85C1144.98 1228.64 1146.12 1229.35 1146.54 1228.57C1151.95 1218.67 1153.82 1207.09 1153.77 1195.72C1153.75 1192.44 1153.57 1189.17 1153.28 1185.9Z" fill="#F0655E"/>
<path d="M1187.01 1191.21C1186.36 1190.49 1185.64 1189.77 1184.68 1189.62C1183.77 1189.49 1182.86 1189.88 1182.46 1190.81C1182.25 1191.29 1182.15 1191.83 1182.03 1192.35C1181.9 1192.91 1181.77 1193.47 1181.64 1194.03L1180.82 1197.53C1180.61 1198.41 1181.87 1198.78 1182.08 1197.9C1182.53 1195.99 1182.98 1194.08 1183.43 1192.17C1183.57 1191.55 1183.71 1190.95 1184.4 1191C1185.1 1191.06 1185.63 1191.71 1186.09 1192.21C1186.68 1192.86 1187.6 1191.86 1187.01 1191.21Z" fill="#F0655E"/>
<path d="M1196.22 1200.94C1195.83 1200.26 1195.07 1200.03 1194.37 1200.25C1193.6 1200.5 1193.13 1201.2 1192.93 1202.01C1192.72 1202.87 1192.72 1203.81 1192.65 1204.69C1192.58 1205.7 1192.5 1206.71 1192.42 1207.72C1192.39 1208.1 1192.74 1208.42 1193.08 1208.42C1193.46 1208.42 1193.71 1208.1 1193.73 1207.72C1193.85 1206.18 1193.96 1204.64 1194.09 1203.1C1194.13 1202.65 1194.18 1202.01 1194.54 1201.7C1194.49 1201.75 1194.6 1201.67 1194.61 1201.66C1194.65 1201.64 1194.64 1201.64 1194.63 1201.64C1194.64 1201.64 1194.65 1201.64 1194.69 1201.62C1194.73 1201.61 1194.76 1201.6 1194.8 1201.59C1194.82 1201.59 1194.88 1201.58 1194.9 1201.58C1194.91 1201.58 1194.96 1201.58 1194.97 1201.58C1194.99 1201.59 1195.05 1201.61 1195.07 1201.62C1195.07 1201.62 1195.07 1201.62 1195.08 1201.62C1195.08 1201.63 1195.08 1201.63 1195.09 1201.66C1195.53 1202.43 1196.67 1201.72 1196.22 1200.94Z" fill="#F0655E"/>
<path d="M1151.21 1243.48C1145.49 1244.92 1139 1245.98 1133.87 1242.11C1133.17 1241.59 1132.52 1242.82 1133.2 1243.33C1138.62 1247.42 1145.51 1246.37 1151.55 1244.84C1152.38 1244.63 1152.03 1243.27 1151.21 1243.48Z" fill="#F0655E"/>
<path d="M1195.87 1543.32C1180.41 1554.94 1157.91 1561.86 1135.02 1554.23C1092.65 1540.11 1088.27 1478.91 1093.96 1439.36C1099.63 1399.81 1095.27 1377.68 1106.19 1374.85L1105.75 1381.92C1105.75 1381.92 1106.04 1383.64 1107.34 1385.9C1109.66 1389.97 1115.18 1395.74 1128 1396.19C1124.37 1432.68 1118.49 1565.34 1195.87 1543.32Z" fill="#B51C4B"/>
<path d="M1194.72 1472.38C1192.44 1476.6 1188.66 1479.2 1184.51 1480.82C1183.91 1468.76 1182.66 1456.75 1180.74 1444.86C1178.81 1432.83 1176.2 1420.93 1172.94 1409.23C1171.34 1403.49 1169.56 1397.8 1167.65 1392.16C1170.39 1389.35 1172.37 1385.66 1173.12 1381.61C1173.28 1380.72 1172.02 1380.34 1171.85 1381.23C1171.19 1384.83 1169.51 1388.13 1167.16 1390.72C1167.02 1390.32 1166.89 1389.92 1166.75 1389.52C1166.45 1388.68 1165.19 1389.05 1165.48 1389.9C1165.7 1390.52 1165.9 1391.16 1166.11 1391.78C1164.43 1393.35 1162.47 1394.59 1160.33 1395.35C1159.53 1395.64 1159.87 1397 1160.68 1396.72C1162.84 1395.94 1164.83 1394.73 1166.58 1393.18C1170.07 1403.51 1173.07 1414.03 1175.5 1424.71C1178.19 1436.56 1180.23 1448.58 1181.59 1460.7C1182.35 1467.53 1182.89 1474.39 1183.22 1481.26C1183.22 1481.27 1183.23 1481.27 1183.23 1481.28C1181.69 1481.8 1180.12 1482.19 1178.57 1482.49C1171.74 1483.82 1164.57 1483.79 1157.67 1483.14C1155.94 1482.97 1154.21 1482.75 1152.5 1482.49C1152.52 1482.41 1152.54 1482.31 1152.54 1482.2C1152.06 1472.79 1151.59 1463.38 1151.12 1453.97C1150.66 1444.73 1150.36 1435.45 1149.53 1426.24C1149.07 1421.22 1148.42 1416.21 1147.38 1411.29C1147.2 1410.4 1145.93 1410.78 1146.12 1411.67C1147.99 1420.58 1148.58 1429.7 1149.05 1438.8C1149.52 1448.01 1149.97 1457.21 1150.43 1466.42L1151.22 1482.2C1151.22 1482.23 1151.24 1482.25 1151.24 1482.28C1139.12 1480.22 1127.36 1475.67 1116.79 1468.95C1113.85 1467.07 1111.01 1465.02 1108.27 1462.82C1108.32 1462.72 1108.35 1462.6 1108.34 1462.46C1106.76 1446.64 1106.15 1430.71 1106.53 1414.81C1106.64 1410.28 1106.83 1405.76 1107.09 1401.24C1107.14 1400.33 1105.83 1400.33 1105.78 1401.24C1104.85 1417.12 1104.89 1433.05 1105.91 1448.92C1106.19 1453.21 1106.55 1457.49 1106.96 1461.76C1103.67 1459.01 1100.54 1456.03 1097.62 1452.83C1097.02 1452.18 1096.1 1453.18 1096.69 1453.83C1107.11 1465.24 1120.03 1473.85 1134.05 1479.09C1141.02 1481.7 1148.25 1483.46 1155.59 1484.33C1162.76 1485.18 1170.13 1485.27 1177.28 1484.14C1184.39 1483.03 1192.03 1480.14 1195.85 1473.1C1196.28 1472.31 1195.14 1471.6 1194.72 1472.38Z" fill="#9B1545"/>
<path d="M1124.89 1421.69C1124.93 1416.75 1125.1 1411.82 1125.38 1406.88C1125.43 1405.97 1124.12 1405.98 1124.07 1406.88C1123.06 1424.43 1123.61 1442.08 1125.72 1459.51C1126.31 1464.36 1127.02 1469.19 1127.84 1474C1127.99 1474.89 1129.26 1474.51 1129.1 1473.63C1126.18 1456.51 1124.76 1439.1 1124.89 1421.69Z" fill="#9B1545"/>
<path d="M1147.26 1399.44C1139.92 1400.05 1132.53 1399.95 1125.21 1399.12C1118.76 1398.38 1111.59 1397.67 1107.07 1392.05C1104.97 1389.43 1103.64 1386.09 1103.38 1382.63C1103.32 1381.73 1102.01 1381.72 1102.07 1382.63C1102.55 1389.05 1106.31 1394.96 1111.8 1397.57C1115.07 1399.13 1118.68 1399.64 1122.19 1400.14C1126.05 1400.69 1129.94 1401.03 1133.83 1401.17C1138.31 1401.33 1142.79 1401.22 1147.26 1400.85C1148.09 1400.78 1148.1 1399.36 1147.26 1399.44Z" fill="#9B1545"/>
<path d="M1989.74 1860.18H602.912V1914.36H1989.74V1860.18Z" fill="#84516A"/>
<path d="M1991.09 1860.18H602.917L766.615 1544.55H1798.47L1991.09 1860.18Z" fill="#D4DDDC"/>
<path d="M1320.01 1700.85L1447.79 1725.2L1431.77 1776.11L1268.25 1747.78L1320.01 1700.85Z" fill="#EFEDEE"/>
<path d="M1548.81 1767.55L1611.45 1692.76L1681.71 1708.27L1651.23 1795.83L1548.81 1767.55Z" fill="#EFEDEE"/>
<path d="M1962.36 1914.37H638.835V1973.69H1962.36V1914.37Z" fill="#84516A"/>
<path d="M1962.36 1914.37H638.835V1938.55H1962.36V1914.37Z" fill="#28170E"/>
<path d="M1432.46 1609.72L1378.53 1722.16C1377.41 1724.49 1375.03 1725.8 1372.61 1725.4L1055.81 1672.61C1051.74 1671.94 1049.66 1666.96 1051.9 1663.23L1056.18 1656.12L1432.46 1609.72Z" fill="#28170E"/>
<path d="M1612.49 1595.02L1646.18 1602.99L1580.44 1693.31L1513.06 1651.69L1612.49 1595.02Z" fill="white"/>
<path d="M1636.32 1614.5L1585.81 1634.12L1561.98 1643.38L1515.53 1661.43L1449.79 1633.1L1466.54 1626.84L1565.84 1589.81L1599.34 1577.31L1636.32 1614.5Z" fill="#EFEDEE"/>
<path d="M1464.58 1570.23L1592.35 1594.58L1576.33 1645.49L1412.81 1617.16L1464.58 1570.23Z" fill="white"/>
<path d="M1608.26 1678.58L1681.2 1591.48L1763.02 1609.54L1727.53 1711.51L1608.26 1678.58Z" fill="white"/>
<path d="M1374.06 1710.64C1373.05 1713.19 1370.51 1714.93 1367.69 1714.45L1366.18 1714.21C1366.55 1713.13 1366.63 1711.97 1366.39 1710.75L1363.11 1694.45L1357.35 1665.8L1355.93 1658.73L1354.75 1652.86L1353.05 1644.41L1352.33 1640.77L1350.28 1630.56L1341.44 1586.6L1328.81 1523.83C1327.57 1517.62 1322.73 1512.99 1316.88 1512.38L1058.8 1485.31L1036.41 1482.96L988.538 1477.95C989.413 1475.36 991.825 1473.47 994.68 1473.77L1034.1 1477.91L1066.83 1481.33L1324.89 1508.39C1330.77 1509 1335.6 1513.64 1336.84 1519.84L1349.46 1582.61L1358.29 1626.57L1360.34 1636.77L1361.08 1640.43L1362.78 1648.88L1363.97 1654.74L1365.38 1661.81L1372.1 1695.25L1374.42 1706.76C1374.69 1708.14 1374.53 1709.48 1374.06 1710.64Z" fill="#1797C6"/>
<path d="M1366.18 1714.2L1052.77 1661.46C1047.8 1660.64 1043.65 1656.88 1042.03 1651.74L999.551 1517.26L988.479 1482.22C988.008 1480.76 988.076 1479.26 988.533 1477.96L1036.4 1482.96L1058.8 1485.31L1316.87 1512.38C1322.73 1512.99 1327.57 1517.62 1328.8 1523.83L1341.44 1586.61L1350.27 1630.57L1352.32 1640.77L1353.05 1644.41L1354.74 1652.86L1355.93 1658.74L1357.34 1665.81L1363.11 1694.46L1366.38 1710.75C1366.63 1711.97 1366.54 1713.13 1366.18 1714.2Z" fill="#96BFB4"/>
<path d="M1432.46 1609.72L1375.33 1709.02L1374.18 1711.01L1374.06 1710.64C1374.53 1709.47 1374.69 1708.14 1374.41 1706.76L1372.77 1698.43L1374.06 1696.19L1427.11 1603.96C1427.46 1603.35 1427.68 1602.68 1427.76 1602.02L1429.61 1602.35C1432.65 1603.09 1434.1 1606.85 1432.46 1609.72Z" fill="#037493"/>
<path d="M1427.76 1602.02C1427.68 1602.68 1427.47 1603.35 1427.11 1603.96L1372.77 1698.43L1351.18 1588.38L1427.76 1602.02Z" fill="#96BFB4"/>
<path d="M1367.06 1628.42L1363.55 1637.59L1360.34 1636.78L1358.29 1626.58V1626.46C1358.48 1626.46 1362.18 1627.29 1367.06 1628.42Z" fill="#02173B"/>
<path d="M1391.72 1634.12L1386.1 1643.27L1369.73 1639.14L1373.99 1630C1382.66 1632.01 1391.72 1634.12 1391.72 1634.12Z" fill="#02173B"/>
<path d="M1383.77 1647.11L1379.94 1654.2L1362.77 1648.88L1361.08 1640.43C1366.06 1641.94 1383.77 1647.11 1383.77 1647.11Z" fill="#02173B"/>
<path d="M1374.74 1658.03L1371.85 1664.09L1365.37 1661.81L1363.95 1654.75C1367.81 1655.97 1374.74 1658.03 1374.74 1658.03Z" fill="#02173B"/>
<path d="M1374.06 1710.64C1373.05 1713.19 1370.51 1714.93 1367.69 1714.45L1366.18 1714.21C1366.55 1713.13 1366.63 1711.97 1366.39 1710.75L1363.11 1694.45L1357.35 1665.8L1355.93 1658.73L1354.75 1652.86L1353.05 1644.41L1352.33 1640.77L1350.28 1630.56L1341.44 1586.6L1328.81 1523.83C1327.57 1517.62 1322.73 1512.99 1316.88 1512.38L1058.8 1485.31L1036.41 1482.96L988.538 1477.95C989.413 1475.36 991.825 1473.47 994.68 1473.77L1034.1 1477.91L1066.83 1481.33L1324.89 1508.39C1330.77 1509 1335.6 1513.64 1336.84 1519.84L1349.46 1582.61L1358.29 1626.57L1360.34 1636.77L1361.08 1640.43L1362.78 1648.88L1363.97 1654.74L1365.38 1661.81L1372.1 1695.25L1374.42 1706.76C1374.69 1708.14 1374.53 1709.48 1374.06 1710.64Z" fill="#246D5C"/>
<path d="M1432.46 1609.72L1375.33 1709.02L1374.18 1711.01L1374.06 1710.64C1374.53 1709.47 1374.69 1708.14 1374.41 1706.76L1372.77 1698.43L1374.06 1696.19L1427.11 1603.96C1427.46 1603.35 1427.68 1602.68 1427.76 1602.02L1429.61 1602.35C1432.65 1603.09 1434.1 1606.85 1432.46 1609.72Z" fill="#246D5C"/>
<path d="M1184.42 1608.35C1192.74 1601.55 1193.02 1586.88 1185.06 1575.59C1177.11 1564.29 1163.91 1560.65 1155.6 1567.45C1147.29 1574.25 1147 1588.92 1154.96 1600.22C1162.92 1611.51 1176.11 1615.16 1184.42 1608.35Z" fill="white"/>
<path d="M1562.36 1660.54L1552.43 1655.96C1549.88 1654.78 1550.03 1650.82 1552.67 1649.88L1595.14 1634.77C1600.16 1632.99 1605.68 1634.02 1609.85 1637.52L1616.87 1643.43L1562.36 1660.54Z" fill="#28170E"/>
<path d="M1615.99 1645.94L1595.48 1653.08C1599.1 1651.82 1601.08 1647.64 1599.91 1643.75C1599.33 1641.79 1598.07 1640.27 1596.49 1639.42C1594.93 1638.54 1593.06 1638.32 1591.25 1638.95L1611.76 1631.81C1613.56 1631.19 1615.44 1631.4 1617 1632.28C1618.58 1633.13 1619.84 1634.65 1620.43 1636.61C1621.59 1640.51 1619.61 1644.69 1615.99 1645.94Z" fill="#596687"/>
<path d="M1589.78 1655.06L1569.2 1662.22C1565.56 1663.49 1561.68 1661.35 1560.51 1657.45C1559.34 1653.54 1561.33 1649.36 1564.97 1648.1L1585.55 1640.94C1587.37 1640.3 1589.23 1640.52 1590.79 1641.4C1592.37 1642.25 1593.63 1643.78 1594.21 1645.73C1595.38 1649.62 1593.39 1653.8 1589.78 1655.06Z" fill="#323850"/>
<path d="M1595.48 1653.08L1589.78 1655.06C1593.4 1653.81 1595.39 1649.62 1594.22 1645.73C1593.63 1643.77 1592.37 1642.25 1590.8 1641.4C1589.23 1640.52 1587.37 1640.3 1585.55 1640.93L1591.25 1638.95C1593.06 1638.32 1594.93 1638.54 1596.49 1639.42C1598.07 1640.27 1599.33 1641.79 1599.91 1643.75C1601.08 1647.64 1599.1 1651.82 1595.48 1653.08Z" fill="#FEE5D1"/>
<path d="M1569.6 1662.08L1569.2 1662.22C1565.56 1663.49 1561.68 1661.34 1560.51 1657.45C1559.34 1653.54 1561.33 1649.36 1564.97 1648.09L1565.37 1647.96C1567.19 1647.32 1569.05 1647.54 1570.61 1648.42C1572.18 1649.27 1573.45 1650.8 1574.03 1652.75C1575.2 1656.64 1573.21 1660.82 1569.6 1662.08Z" fill="#222738"/>
<path d="M1522.27 1609.58L1519.08 1600.65C1520.98 1605.29 1522.13 1609.12 1522.27 1609.58Z" fill="#28170E"/>
<path d="M1565.21 1549.69L1561.75 1567.45C1561.34 1571.58 1560.93 1575.71 1560.53 1579.84C1560.5 1580.05 1560.4 1580.17 1560.28 1580.24L1560.31 1581.14L1542.3 1589.59C1537.39 1596.51 1533.24 1598.53 1530.75 1599.04L1538.73 1613.52L1538.89 1613.83C1539.92 1615.67 1539.94 1617.8 1539.15 1619.39C1539.35 1620.23 1539.2 1621.06 1538.75 1621.66L1540.73 1625.26C1540.94 1625.65 1540.87 1626.12 1540.55 1626.32C1540.24 1626.54 1539.81 1626.38 1539.6 1625.99L1537.61 1622.39C1536.92 1622.55 1536.18 1622.31 1535.6 1621.77C1533.86 1621.81 1532.08 1620.76 1531.03 1618.86L1530.87 1618.55L1521.11 1600.86C1519.38 1598.86 1518.08 1596.39 1517.12 1594.03L1519.04 1600.56C1519.05 1600.58 1519.06 1600.62 1519.08 1600.65L1521.55 1609.06L1494.15 1592.11L1476.84 1561.48L1476.73 1560.38L1476.05 1553.22C1476.05 1553.22 1471.43 1549.86 1469.17 1544.55H1560.89L1565.21 1549.69Z" fill="#28170E"/>
<path opacity="0.2" d="M1375.33 1709.02L1374.18 1711.01L1374.06 1710.64C1373.05 1713.19 1370.5 1714.93 1367.69 1714.45L1366.18 1714.21L1052.77 1661.46C1047.8 1660.64 1043.65 1656.88 1042.03 1651.74L999.552 1517.26L988.48 1482.22C988.009 1480.76 988.077 1479.26 988.534 1477.96C989.409 1475.36 991.821 1473.47 994.676 1473.78L1034.1 1477.91C1034.76 1479.41 1035.53 1481.11 1036.4 1482.96C1057.45 1527.79 1142.05 1672.86 1363.11 1694.45C1366.07 1694.74 1369.08 1695.02 1372.09 1695.25C1372.11 1695.26 1372.13 1695.26 1372.15 1695.26C1372.75 1695.31 1373.37 1695.37 1373.98 1695.41L1374.06 1696.19L1375.33 1709.02Z" fill="#246D5C"/>
<path d="M947.704 1772.63C990.447 1772.63 1025.1 1764.48 1025.1 1754.41C1025.1 1744.35 990.447 1736.19 947.704 1736.19C904.961 1736.19 870.311 1744.35 870.311 1754.41C870.311 1764.48 904.961 1772.63 947.704 1772.63Z" fill="#28170E"/>
<path d="M1021.33 1732.69C1021.33 1735.66 1018.27 1738.45 1012.92 1740.87C1001.65 1745.94 980.235 1749.37 955.654 1749.37C931.072 1749.37 909.655 1745.94 898.39 1740.87C893.037 1738.45 889.977 1735.66 889.977 1732.69C889.977 1723.49 919.379 1716.01 955.656 1716.01C991.932 1716.01 1021.33 1723.49 1021.33 1732.69Z" fill="#F9C0B4"/>
<path d="M1021.33 1732.69V1749.03C1021.33 1758.24 991.929 1765.71 955.653 1765.71C919.376 1765.71 889.974 1758.24 889.974 1749.03V1732.69C889.974 1735.66 893.034 1738.45 898.387 1740.87C909.652 1745.94 931.071 1749.37 955.651 1749.37C980.233 1749.37 1001.65 1745.94 1012.91 1740.87C1018.27 1738.45 1021.33 1735.66 1021.33 1732.69Z" fill="#D89393"/>
<path d="M949.731 1738.5C972.347 1738.5 990.682 1735.88 990.682 1732.65C990.682 1729.42 972.347 1726.8 949.731 1726.8C927.114 1726.8 908.78 1729.42 908.78 1732.65C908.78 1735.88 927.114 1738.5 949.731 1738.5Z" fill="#28170E"/>
<path d="M932.891 1697.53C909.833 1697.53 890.796 1680.94 888.492 1658.74L886.75 1641.96C886.135 1636.03 887.896 1630.24 891.708 1625.65C895.994 1620.48 902.341 1617.52 909.122 1617.52H936.338V1632.51H909.122C906.334 1632.51 903.699 1633.68 902.073 1635.64C901.269 1636.61 900.352 1638.2 900.569 1640.29L902.311 1657.07C903.801 1671.42 917.203 1682.55 932.911 1682.55C933.037 1682.55 933.165 1682.55 933.291 1682.54L936.262 1682.51L936.411 1697.5L933.439 1697.53C933.259 1697.53 933.072 1697.53 932.891 1697.53Z" fill="#B51C4B"/>
<path d="M1000.38 1611.43L999.878 1616.8L999.437 1621.58L991.034 1713L989.656 1728.01C989.818 1728.28 989.912 1728.55 989.912 1728.82C989.912 1732.6 974.404 1735.68 955.271 1735.68C936.136 1735.68 920.63 1732.6 920.63 1728.82C920.63 1728.55 920.723 1728.27 920.897 1728L910.929 1619.57L910.86 1618.83V1618.79L910.176 1611.43C911.392 1612.44 914.071 1613.36 917.859 1614.15C919.806 1614.56 922.044 1614.93 924.534 1615.27C932.659 1616.36 943.436 1617.02 955.269 1617.02C971.298 1617.02 985.402 1615.81 993.596 1613.95C996.911 1613.2 999.263 1612.34 1000.38 1611.43Z" fill="#D81D50"/>
<path d="M1000.37 1611.43C996.491 1614.61 977.774 1617.03 955.266 1617.03C932.771 1617.03 914.054 1614.61 910.171 1611.43C910.028 1609.85 910.863 1608.37 912.206 1607.83C918.623 1605.21 935.483 1603.34 955.266 1603.34C975.059 1603.34 991.92 1605.21 998.339 1607.83C999.682 1608.37 1000.52 1609.85 1000.37 1611.43Z" fill="#9B1545"/>
<path d="M993.595 1613.95C985.402 1615.81 971.297 1617.03 955.269 1617.03C939.82 1617.03 926.156 1615.89 917.857 1614.15C925.877 1611.6 939.981 1609.91 956.045 1609.91C971.691 1609.91 985.483 1611.51 993.595 1613.95Z" fill="black"/>
<path d="M989.656 1728.01C989.818 1728.28 989.912 1728.55 989.912 1728.82C989.912 1732.6 974.404 1735.68 955.271 1735.68C936.136 1735.68 920.63 1732.6 920.63 1728.82C920.63 1728.55 920.723 1728.27 920.897 1728L910.929 1619.57L910.86 1618.83V1618.79L910.176 1611.43C911.392 1612.44 914.071 1613.36 917.859 1614.15C919.806 1614.56 922.044 1614.93 924.534 1615.27C924.604 1649.73 931.998 1719.16 991.036 1712.99L989.656 1728.01Z" fill="#B51C4B"/>
<path d="M981.313 1624.23C964.01 1620.18 947.187 1630.32 929.837 1627.98C925.46 1627.38 921.208 1625.91 917.504 1623.3C916.878 1622.86 916.296 1623.94 916.919 1624.38C923.535 1629.04 931.624 1629.99 939.349 1629.43C948.163 1628.78 956.699 1626.13 965.453 1625.01C970.628 1624.35 975.889 1624.24 981.005 1625.44C981.732 1625.61 982.043 1624.4 981.313 1624.23Z" fill="white"/>
<path d="M902.013 1623.9C895.244 1625.29 890.283 1632.28 889.861 1639.53C889.741 1641.58 890.015 1643.65 890.684 1645.58C890.943 1646.33 892.064 1646.01 891.802 1645.25C889.566 1638.8 892.264 1631.14 897.448 1627.3C898.924 1626.21 900.564 1625.47 902.321 1625.11C903.053 1624.95 902.743 1623.75 902.013 1623.9Z" fill="white"/>
<path opacity="0.46" d="M1114.21 1497.98L1310.48 1518.57C1314.46 1518.99 1317.75 1522.09 1318.67 1526.29L1328.51 1571.52L1310.92 1530.73C1309.57 1527.61 1306.84 1525.44 1303.68 1524.99L1114.21 1497.98Z" fill="white"/>
<path d="M711.198 1649.74L640.763 1785.46L642.107 1786.27L712.542 1650.55L711.198 1649.74Z" fill="#84516A"/>
<path d="M621.474 1822.72L602.263 1859.74L603.607 1860.55L622.818 1823.53L621.474 1822.72Z" fill="#84516A"/>
<path d="M1869.17 1658.5L1867.88 1659.42L1990.45 1860.61L1991.74 1859.7L1869.17 1658.5Z" fill="#84516A"/>
<path d="M1843.71 1616.85L1842.42 1617.76L1846.07 1623.75L1847.36 1622.83L1843.71 1616.85Z" fill="#84516A"/>
<path d="M1822.3 1584.63L1798.06 1544.84H1755.11V1543.18H1798.89L1823.58 1583.72L1822.3 1584.63Z" fill="#84516A"/>
<path d="M1413.8 1860.18L1416.27 1877.19C1416.91 1881.6 1420.87 1884.5 1424.91 1883.52L1520.82 1860.18H1413.8Z" fill="#28170E"/>
<path d="M1599.4 1836.21L1520.82 1860.18H1413.8L1363.93 1745.8C1362.86 1743.35 1362.59 1740.58 1363.19 1737.94L1366.98 1721L1372.95 1708.36L1598.93 1809.3L1604.13 1826.71C1605.33 1830.75 1603.18 1835.06 1599.4 1836.21Z" fill="#28170E"/>
<path d="M1608.46 1805.81L1608.11 1821.73C1608.02 1825.18 1605.78 1828.13 1602.66 1828.9L1438.96 1868.84C1435.91 1869.59 1432.81 1867.97 1431.45 1864.94L1366.99 1721C1366.22 1719.31 1366.81 1717.27 1368.33 1716.35L1370.77 1714.85L1364.71 1702.21C1363.36 1699.39 1364.91 1695.98 1367.81 1695.42L1413.76 1686.43L1437.44 1681.81L1517.89 1666.07C1520.37 1665.57 1522.87 1666.72 1524.28 1668.96L1569.6 1741.28L1575.17 1750.18L1607.27 1801.41C1608.08 1802.7 1608.5 1804.24 1608.46 1805.81Z" fill="#596687"/>
<path d="M1370.77 1714.85L1428.59 1840.04C1429.86 1842.8 1432.71 1844.28 1435.51 1843.66L1602.22 1806.35L1601.95 1824.06L1436.5 1863.91L1370.22 1720.76L1370.77 1714.85Z" fill="#D4DDDC"/>
<path d="M1517.85 1769.23L1465.85 1782.36L1460.88 1770.86L1512.89 1757.74L1517.85 1769.23Z" fill="white"/>
<path d="M1433.25 1699.8L1386.87 1710.62L1384.77 1706.3L1431.15 1695.47L1433.25 1699.8Z" fill="white"/>
<path d="M1625.49 1702.17L1625.2 1706.93C1625.09 1708.65 1624.32 1710.2 1623.05 1711.24L1575.17 1750.18L1567.6 1756.33C1565.48 1758.04 1562.69 1758.43 1560.23 1757.33L1488.41 1724.97L1486.89 1724.28L1487.11 1726.72C1487.37 1729.5 1484.82 1731.59 1482.42 1730.58L1465.75 1723.6C1464.67 1723.15 1463.88 1722.16 1463.62 1720.93L1462.23 1714.12C1462.17 1713.79 1462.13 1713.45 1462.09 1713.12L1413.17 1691.09C1411.69 1690.42 1411.48 1688.24 1412.81 1687.26L1413.76 1686.43L1437.44 1681.8L1466.26 1703.85L1492.06 1685.18C1492.66 1684.75 1493.41 1684.66 1494.09 1684.94L1513.1 1692.91C1514.8 1693.61 1515.01 1696.12 1513.47 1697.15L1490.81 1712.29C1490.29 1712.63 1489.84 1713.03 1489.41 1713.47L1493.18 1715.04L1559.33 1742.5C1562.75 1743.92 1566.57 1743.47 1569.6 1741.28C1569.71 1741.23 1569.81 1741.15 1569.91 1741.07L1622.71 1700.61L1624.64 1699.47C1625.23 1700.19 1625.55 1701.16 1625.49 1702.17Z" fill="#28170E"/>
<path d="M1630.64 1705.38L1630.07 1710.12C1629.86 1711.82 1628.99 1713.32 1627.67 1714.27L1569.64 1755.41C1567.42 1756.98 1564.61 1757.17 1562.23 1755.89L1492.49 1718.62L1468.56 1705.84L1419.43 1679.6C1417.99 1678.83 1417.92 1676.64 1419.3 1675.75L1424.31 1672.49L1476.12 1698.25L1497.84 1709.05L1562.21 1741.05C1565.64 1742.75 1569.63 1742.49 1572.85 1740.35L1627.96 1703.64L1629.95 1702.63C1630.5 1703.39 1630.76 1704.37 1630.64 1705.38Z" fill="#E55B57"/>
<path d="M1629.95 1702.63L1627.96 1703.64L1572.97 1740.27C1569.68 1742.46 1565.59 1742.73 1562.08 1740.98L1424.31 1672.49L1421.37 1670.46C1420.09 1669.57 1420.12 1667.54 1421.44 1666.71L1478.65 1630.96C1479.62 1630.35 1480.8 1630.28 1481.83 1630.77L1628.61 1701.46C1629.15 1701.73 1629.62 1702.13 1629.95 1702.63Z" fill="#F9C0B4"/>
<path d="M1519.68 1694.98L1497.84 1709.05L1496.8 1709.71C1493.92 1711.57 1492.24 1715.01 1492.49 1718.62L1468.57 1705.84C1469.21 1703.92 1470.43 1702.22 1472.09 1701.06L1476.12 1698.25L1498.46 1682.64C1499.06 1682.22 1499.82 1682.14 1500.49 1682.43L1519.39 1690.73C1521.07 1691.46 1521.25 1693.97 1519.68 1694.98Z" fill="#28170E"/>
<path d="M1498.51 1679.17L1471.34 1696.21C1468.17 1698.2 1466.45 1702.07 1467.01 1705.98L1468 1712.88C1468.17 1714.11 1468.91 1715.17 1469.96 1715.69L1486.17 1723.8C1488.52 1724.98 1491.18 1723.07 1491.1 1720.29L1490.93 1714.93C1490.81 1711.27 1492.64 1707.85 1495.64 1706.13L1519.15 1692.6C1520.76 1691.68 1520.7 1689.17 1519.04 1688.34L1500.55 1679.07C1499.89 1678.74 1499.13 1678.78 1498.51 1679.17Z" fill="#FCCFC8"/>
<path d="M1499.94 1695.36C1503.73 1693.72 1506.12 1690.55 1505.27 1688.28C1504.43 1686.01 1500.67 1685.5 1496.88 1687.14C1493.09 1688.78 1490.7 1691.94 1491.55 1694.21C1492.39 1696.48 1496.15 1697 1499.94 1695.36Z" fill="#28170E"/>
<path d="M1499.94 1694.32C1503.73 1692.69 1506.12 1689.52 1505.27 1687.25C1504.43 1684.98 1500.67 1684.47 1496.88 1686.11C1493.09 1687.74 1490.7 1690.91 1491.55 1693.18C1492.39 1695.45 1496.15 1695.96 1499.94 1694.32Z" fill="#596687"/>
<path d="M966.953 1606.98C966.953 1606.98 992.642 1581.23 975.939 1576.99C959.236 1572.74 919.285 1604.82 911.003 1577.93C901.988 1548.67 957.324 1546.61 946.133 1508.61C946.133 1508.61 959.435 1529.85 945.625 1549.69C932.672 1568.29 974.787 1554.79 989.391 1567.14C1003.99 1579.5 966.953 1606.98 966.953 1606.98Z" fill="white"/>
<path d="M1613.78 1569.55L1593.67 1590.27L1590.62 1595.44L1567.03 1592.62C1552.18 1598.26 1546.93 1593.09 1546.93 1593.09L1541.69 1596.85C1537.94 1592.81 1537.64 1586.85 1538.27 1581.94L1534.26 1598.27L1515.48 1566.73L1515.03 1528.59L1515.55 1527.52L1518.96 1520.58C1518.96 1520.58 1509.35 1501.29 1529.45 1495.64C1549.56 1489.99 1552.18 1505.04 1552.18 1505.04C1552.18 1505.04 1552.77 1505.03 1553.78 1505.03C1559.69 1504.97 1579.95 1504.98 1581.45 1507.4C1583.19 1510.23 1592.37 1518.24 1598.92 1523.88C1605.47 1529.53 1607.23 1538.94 1607.23 1538.94L1613.78 1569.55Z" fill="#F9AD8A"/>
<path d="M1553.92 1505.75C1553.92 1505.75 1541.9 1506.7 1533.38 1509.28C1524.86 1511.88 1515.91 1526.94 1515.68 1527.64L1515.55 1527.52L1518.96 1520.58C1518.96 1520.58 1509.35 1501.29 1529.45 1495.64C1549.55 1489.99 1552.18 1505.04 1552.18 1505.04C1552.18 1505.04 1552.77 1505.03 1553.78 1505.03L1553.92 1505.75Z" fill="#F0655E"/>
<path d="M1534.26 1530.47C1534.26 1530.47 1543.43 1521.29 1549.77 1523.88C1556.1 1526.47 1562.66 1529.77 1562.66 1529.77C1562.66 1529.77 1570.08 1542.95 1569.65 1543.66C1569.21 1544.36 1533.83 1572.84 1541.69 1596.85C1541.69 1596.85 1537.53 1585.56 1538.41 1578.5L1538.29 1584.06C1538.29 1584.06 1539.94 1578.26 1535.13 1567.9C1530.32 1557.55 1530.11 1551.19 1530.11 1551.19L1534.26 1530.47Z" fill="#F0655E"/>
<path d="M1595.32 1545.61C1593.64 1537.6 1591.72 1529.66 1589.57 1521.79C1589.33 1520.92 1588.06 1521.29 1588.3 1522.17C1590.46 1530.04 1592.38 1537.98 1594.06 1545.98C1594.25 1546.87 1595.51 1546.49 1595.32 1545.61Z" fill="#F0655E"/>
<path d="M1587.31 1544.79C1586.97 1544.72 1586.63 1544.62 1586.3 1544.49C1586.22 1544.46 1586.14 1544.43 1586.05 1544.39C1586.05 1544.39 1586.05 1544.39 1586.04 1544.39C1586 1544.36 1585.95 1544.34 1585.9 1544.32C1585.74 1544.24 1585.58 1544.15 1585.43 1544.05C1585.28 1543.96 1585.13 1543.87 1584.99 1543.77C1584.92 1543.71 1584.84 1543.66 1584.77 1543.6C1584.74 1543.58 1584.71 1543.55 1584.68 1543.52C1584.67 1543.52 1584.67 1543.52 1584.67 1543.52C1584.67 1543.51 1584.66 1543.51 1584.64 1543.5C1584.37 1543.25 1584.11 1542.99 1583.87 1542.7C1583.64 1542.42 1583.17 1542.43 1582.94 1542.7C1582.69 1542.99 1582.69 1543.4 1582.94 1543.7C1583.98 1544.95 1585.43 1545.83 1586.96 1546.15C1587.3 1546.22 1587.69 1546.05 1587.77 1545.66C1587.84 1545.31 1587.67 1544.87 1587.31 1544.79Z" fill="#F0655E"/>
<path d="M1547.35 1495.56V1514.23C1547.35 1510.94 1544.87 1508.27 1541.82 1508.27C1540.28 1508.27 1538.89 1508.93 1537.9 1510.02C1536.89 1511.09 1536.27 1512.57 1536.27 1514.23V1495.56C1536.27 1493.92 1536.89 1492.42 1537.9 1491.35C1538.89 1490.26 1540.28 1489.6 1541.82 1489.6C1544.87 1489.6 1547.35 1492.27 1547.35 1495.56Z" fill="#596687"/>
<path d="M1547.35 1519.41V1612.58C1547.35 1609.29 1544.87 1606.62 1541.82 1606.62C1540.28 1606.62 1538.89 1607.28 1537.9 1608.37C1536.89 1609.44 1536.27 1610.92 1536.27 1612.58V1519.41C1536.27 1517.76 1536.89 1516.28 1537.9 1515.2C1538.89 1514.12 1540.28 1513.45 1541.82 1513.45C1544.87 1513.45 1547.35 1516.12 1547.35 1519.41Z" fill="#323850"/>
<path d="M1547.35 1514.23V1519.41C1547.35 1516.12 1544.87 1513.45 1541.82 1513.45C1540.28 1513.45 1538.89 1514.12 1537.9 1515.2C1536.89 1516.28 1536.27 1517.76 1536.27 1519.41V1514.23C1536.27 1512.58 1536.89 1511.09 1537.9 1510.02C1538.89 1508.93 1540.28 1508.27 1541.82 1508.27C1544.87 1508.27 1547.35 1510.94 1547.35 1514.23Z" fill="#FEE5D1"/>
<path d="M1547.35 1612.58V1612.95C1547.35 1616.25 1544.87 1618.92 1541.82 1618.92C1538.75 1618.92 1536.27 1616.25 1536.27 1612.95V1612.58C1536.27 1610.93 1536.89 1609.44 1537.9 1608.37C1538.89 1607.28 1540.28 1606.62 1541.82 1606.62C1544.87 1606.62 1547.35 1609.29 1547.35 1612.58Z" fill="#596687"/>
<path d="M1544.56 1617.1V1617.28C1544.56 1618.88 1543.36 1620.18 1541.88 1620.18C1540.39 1620.18 1539.18 1618.88 1539.18 1617.28V1617.1C1539.18 1616.3 1539.48 1615.58 1539.97 1615.06C1540.46 1614.53 1541.13 1614.21 1541.88 1614.21C1543.36 1614.21 1544.56 1615.5 1544.56 1617.1Z" fill="#FEE5D1"/>
<path d="M1541.88 1625.35C1541.44 1625.35 1541.08 1624.96 1541.08 1624.49V1617.11C1541.08 1616.63 1541.44 1616.25 1541.88 1616.25C1542.33 1616.25 1542.68 1616.63 1542.68 1617.11V1624.49C1542.68 1624.96 1542.33 1625.35 1541.88 1625.35Z" fill="#323850"/>
<path d="M1534.66 1581.69C1534.41 1580.75 1534.11 1579.82 1533.8 1578.89C1533.56 1578.16 1533.33 1577.39 1532.88 1576.77C1531.72 1575.2 1530.02 1576.2 1528.67 1576.89C1527.07 1577.7 1525.53 1578.64 1524.05 1579.68C1523.35 1580.18 1524 1581.4 1524.71 1580.9C1525.98 1580.01 1527.29 1579.19 1528.65 1578.46C1529.33 1578.1 1530.01 1577.72 1530.72 1577.45C1531.38 1577.19 1531.75 1577.36 1532.07 1578.01C1532.39 1578.65 1532.58 1579.38 1532.8 1580.06C1533.06 1580.86 1533.3 1581.66 1533.5 1582.47C1533.91 1584.1 1534.14 1585.75 1534.02 1587.43C1533.96 1588.34 1535.28 1588.33 1535.34 1587.43C1535.46 1585.49 1535.15 1583.56 1534.66 1581.69Z" fill="#F0655E"/>
<path d="M1564.96 1588.91C1564.42 1588.53 1563.89 1588.14 1563.35 1587.76C1562.85 1587.4 1562.36 1586.97 1561.83 1586.68C1560.86 1586.14 1559.64 1586.84 1558.71 1587.24C1556.59 1588.14 1554.59 1589.35 1552.78 1590.86C1552.12 1591.4 1552.77 1592.63 1553.44 1592.08C1555.05 1590.74 1556.81 1589.61 1558.68 1588.76C1559.12 1588.57 1559.56 1588.39 1560.01 1588.22C1560.26 1588.13 1560.52 1588.01 1560.77 1587.95C1561.09 1587.88 1561.19 1587.91 1561.47 1588.09C1562.42 1588.75 1563.35 1589.45 1564.29 1590.13C1565 1590.64 1565.65 1589.42 1564.96 1588.91Z" fill="#F0655E"/>
<path d="M1594.5 1547.92C1594.13 1547.82 1593.83 1548.04 1593.69 1548.41C1593.66 1548.51 1593.62 1548.61 1593.59 1548.71C1593.58 1548.72 1593.58 1548.71 1593.58 1548.72C1593.58 1548.72 1593.58 1548.72 1593.57 1548.74C1593.56 1548.78 1593.54 1548.82 1593.52 1548.87C1593.44 1549.06 1593.35 1549.25 1593.26 1549.44C1593.08 1549.81 1592.89 1550.17 1592.68 1550.52C1592.57 1550.69 1592.47 1550.86 1592.35 1551.02C1592.33 1551.06 1592.3 1551.1 1592.28 1551.13C1592.26 1551.15 1592.26 1551.15 1592.26 1551.15C1592.26 1551.17 1592.25 1551.17 1592.24 1551.19C1592.18 1551.26 1592.13 1551.34 1592.07 1551.41C1591.82 1551.74 1591.55 1552.05 1591.26 1552.35C1591.01 1552.61 1591 1553.1 1591.26 1553.35C1591.53 1553.61 1591.92 1553.63 1592.19 1553.35C1593.42 1552.07 1594.35 1550.51 1594.96 1548.79C1595.08 1548.44 1594.82 1548 1594.5 1547.92Z" fill="#F0655E"/>
<path d="M1603.23 1555.15C1600.51 1560.74 1599.64 1567.47 1595.81 1572.4C1593.79 1575.01 1591.15 1576.94 1588.49 1578.71C1585.51 1580.68 1582.51 1582.6 1579.52 1584.54C1576.02 1586.82 1572.53 1589.09 1569.03 1591.37C1568.31 1591.84 1568.96 1593.06 1569.69 1592.59C1575.98 1588.5 1582.28 1584.44 1588.55 1580.32C1591.2 1578.58 1593.86 1576.74 1596 1574.29C1598.03 1571.98 1599.39 1569.19 1600.49 1566.26C1601.79 1562.8 1602.75 1559.19 1604.36 1555.87C1604.75 1555.06 1603.62 1554.35 1603.23 1555.15Z" fill="#F0655E"/>
<path d="M1609.27 1569.86C1603.07 1577.7 1596.87 1585.53 1590.67 1593.37C1590.13 1594.06 1591.05 1595.07 1591.6 1594.37C1597.8 1586.53 1604 1578.7 1610.2 1570.86C1610.74 1570.17 1609.82 1569.16 1609.27 1569.86Z" fill="#F0655E"/>
<path d="M1594.05 1566.04C1592.87 1565.21 1591.69 1564.37 1590.51 1563.53C1590.22 1563.33 1589.77 1563.46 1589.61 1563.79C1589.44 1564.14 1589.54 1564.54 1589.85 1564.75C1591.03 1565.59 1592.21 1566.43 1593.39 1567.26C1593.68 1567.47 1594.13 1567.34 1594.29 1567.01C1594.46 1566.66 1594.36 1566.26 1594.05 1566.04Z" fill="#F0655E"/>
<path d="M1549.67 1565.97C1549.67 1565.97 1535.59 1583.03 1542.11 1595.55L1557.47 1582.6L1549.67 1565.97Z" fill="#F9AD8A"/>
<path d="M1555.04 1582.31C1554.38 1580.72 1553.35 1579.15 1551.63 1578.93C1549.94 1578.71 1548.61 1580.36 1547.47 1581.46C1544.9 1583.91 1542.56 1586.72 1541.37 1590.25C1541.08 1591.1 1542.35 1591.47 1542.63 1590.62C1543.62 1587.69 1545.54 1585.3 1547.63 1583.2C1548.13 1582.7 1548.65 1582.21 1549.17 1581.73C1549.68 1581.26 1550.24 1580.58 1550.9 1580.37C1552.42 1579.88 1553.41 1581.82 1553.91 1583.02C1554.25 1583.85 1555.38 1583.13 1555.04 1582.31Z" fill="#F0655E"/>
<path d="M1589.68 1554.63C1577.54 1565.27 1565.27 1575.71 1552.84 1585.95C1549.37 1588.82 1545.88 1591.67 1542.38 1594.51C1541.71 1595.05 1542.37 1596.27 1543.04 1595.73C1555.54 1585.59 1567.91 1575.26 1580.13 1564.73C1583.63 1561.72 1587.13 1558.68 1590.6 1555.63C1591.26 1555.06 1590.32 1554.06 1589.68 1554.63Z" fill="#F0655E"/>
</svg>
